<svg width="200" height="22" viewBox="0 0 200 22" fill="none" xmlns="http://www.w3.org/2000/svg">
<circle cx="120.447" cy="9.44971" r="4.76465" fill="#131619" stroke="#131619" stroke-width="1.5"/>
<path d="M4.13998 14.117C3.61731 14.117 3.12731 13.977 2.66998 13.697C2.21264 13.4076 1.84398 12.997 1.56398 12.465C1.29331 11.9236 1.15798 11.2703 1.15798 10.505C1.15798 9.73964 1.29331 9.09097 1.56398 8.55897C1.84398 8.01764 2.21264 7.60697 2.66998 7.32697C3.12731 7.03764 3.61731 6.89297 4.13998 6.89297C4.69064 6.89297 5.15264 7.00497 5.52598 7.22897C5.89931 7.44364 6.18864 7.73297 6.39398 8.09697V4.59697H7.56998V11.331C7.56998 11.5643 7.57931 11.9096 7.59798 12.367C7.61664 12.815 7.68664 13.3423 7.80798 13.949H6.70198L6.39398 12.899C6.18864 13.2723 5.89931 13.571 5.52598 13.795C5.15264 14.0096 4.69064 14.117 4.13998 14.117ZM4.44798 13.109C5.04531 13.109 5.52131 12.8803 5.87598 12.423C6.23998 11.9656 6.42198 11.3263 6.42198 10.505C6.42198 9.67431 6.23998 9.03497 5.87598 8.58697C5.52131 8.12964 5.04531 7.90097 4.44798 7.90097C3.85064 7.90097 3.36998 8.12964 3.00598 8.58697C2.65131 9.03497 2.47398 9.67431 2.47398 10.505C2.47398 11.3263 2.65131 11.9656 3.00598 12.423C3.36998 12.8803 3.85064 13.109 4.44798 13.109ZM12.4623 14.117C11.7343 14.117 11.1183 13.9583 10.6143 13.641C10.1103 13.3143 9.72299 12.8803 9.45232 12.339C9.19099 11.7883 9.06032 11.1723 9.06032 10.491C9.06032 9.75364 9.20965 9.11897 9.50832 8.58697C9.80699 8.04564 10.2083 7.63031 10.7123 7.34097C11.2257 7.04231 11.7997 6.89297 12.4343 6.89297C12.985 6.89297 13.4703 7.00497 13.8903 7.22897C14.3103 7.44364 14.6557 7.73764 14.9263 8.11097C15.2063 8.47497 15.407 8.89031 15.5283 9.35697C15.659 9.82364 15.7057 10.3043 15.6683 10.799H10.3203C10.339 11.3776 10.465 11.835 10.6983 12.171C10.941 12.507 11.2257 12.745 11.5523 12.885C11.879 13.0156 12.1823 13.081 12.4623 13.081C12.8543 13.081 13.181 13.0203 13.4423 12.899C13.713 12.7683 13.9277 12.6003 14.0863 12.395L15.2203 12.731C14.9683 13.1323 14.609 13.4636 14.1423 13.725C13.6757 13.9863 13.1157 14.117 12.4623 14.117ZM10.3343 9.86097H14.4223C14.4223 9.53431 14.3383 9.22164 14.1703 8.92297C14.0117 8.62431 13.783 8.38164 13.4843 8.19497C13.195 7.99897 12.845 7.90097 12.4343 7.90097C12.089 7.90097 11.7623 7.96631 11.4543 8.09697C11.1463 8.22764 10.8897 8.43764 10.6843 8.72697C10.4883 9.01631 10.3717 9.39431 10.3343 9.86097ZM19.4212 14.117C19.0199 14.117 18.6232 14.0563 18.2312 13.935C17.8485 13.8043 17.5032 13.613 17.1952 13.361C16.8965 13.0996 16.6679 12.773 16.5092 12.381L17.6432 11.961C17.7459 12.3716 17.9699 12.6703 18.3152 12.857C18.6699 13.0343 19.0385 13.123 19.4212 13.123C19.7012 13.123 19.9625 13.081 20.2052 12.997C20.4572 12.913 20.6625 12.7916 20.8212 12.633C20.9799 12.4743 21.0592 12.2923 21.0592 12.087C21.0592 11.7043 20.9052 11.4336 20.5972 11.275C20.2985 11.1163 19.9392 10.995 19.5192 10.911L18.5532 10.715C18.2172 10.6403 17.9045 10.5376 17.6152 10.407C17.3259 10.267 17.0925 10.071 16.9152 9.81897C16.7379 9.56697 16.6492 9.23097 16.6492 8.81097C16.6492 8.39097 16.7799 8.04097 17.0412 7.76097C17.3025 7.47164 17.6339 7.25231 18.0352 7.10297C18.4459 6.95364 18.8752 6.87897 19.3232 6.87897C19.8739 6.87897 20.3919 6.99564 20.8772 7.22897C21.3719 7.45297 21.7219 7.80764 21.9272 8.29297L20.8212 8.69897C20.6999 8.41897 20.4852 8.21364 20.1772 8.08297C19.8785 7.94297 19.5659 7.87297 19.2392 7.87297C18.8845 7.87297 18.5625 7.95231 18.2732 8.11097C17.9839 8.26964 17.8392 8.49831 17.8392 8.79697C17.8392 9.09564 17.9605 9.31497 18.2032 9.45497C18.4552 9.58564 18.7632 9.68831 19.1272 9.76297L20.0372 9.94497C20.4105 10.0196 20.7652 10.127 21.1012 10.267C21.4372 10.407 21.7125 10.617 21.9272 10.897C22.1419 11.1676 22.2492 11.5503 22.2492 12.045C22.2492 12.4836 22.1139 12.857 21.8432 13.165C21.5725 13.473 21.2225 13.711 20.7932 13.879C20.3639 14.0376 19.9065 14.117 19.4212 14.117ZM24.849 5.68897C24.6157 5.68897 24.4104 5.60497 24.233 5.43697C24.065 5.25964 23.981 5.04964 23.981 4.80697C23.981 4.56431 24.065 4.35897 24.233 4.19097C24.4104 4.02297 24.6157 3.93897 24.849 3.93897C25.0917 3.93897 25.297 4.02297 25.465 4.19097C25.6424 4.35897 25.731 4.56431 25.731 4.80697C25.731 5.04964 25.6424 5.25964 25.465 5.43697C25.297 5.60497 25.0917 5.68897 24.849 5.68897ZM24.261 13.949V7.94297H23.295V7.00497H25.437V13.949H24.261ZM27.5415 13.949V7.00497H28.3955L28.7735 8.29297C29.0162 7.87297 29.3429 7.53697 29.7535 7.28497C30.1735 7.02364 30.6729 6.89297 31.2515 6.89297V8.11097C31.1862 8.11097 31.1162 8.11097 31.0415 8.11097C30.9762 8.11097 30.9109 8.11564 30.8455 8.12497C30.0522 8.19031 29.4969 8.46564 29.1795 8.95097C28.8715 9.43631 28.7175 10.1083 28.7175 10.967V13.949H27.5415ZM35.2533 14.117C34.5253 14.117 33.9093 13.9583 33.4053 13.641C32.9013 13.3143 32.514 12.8803 32.2433 12.339C31.982 11.7883 31.8513 11.1723 31.8513 10.491C31.8513 9.75364 32.0007 9.11897 32.2993 8.58697C32.598 8.04564 32.9993 7.63031 33.5033 7.34097C34.0167 7.04231 34.5907 6.89297 35.2253 6.89297C35.776 6.89297 36.2613 7.00497 36.6813 7.22897C37.1013 7.44364 37.4467 7.73764 37.7173 8.11097C37.9973 8.47497 38.198 8.89031 38.3193 9.35697C38.45 9.82364 38.4967 10.3043 38.4593 10.799H33.1113C33.13 11.3776 33.256 11.835 33.4893 12.171C33.732 12.507 34.0167 12.745 34.3433 12.885C34.67 13.0156 34.9733 13.081 35.2533 13.081C35.6453 13.081 35.972 13.0203 36.2333 12.899C36.504 12.7683 36.7187 12.6003 36.8773 12.395L38.0113 12.731C37.7593 13.1323 37.4 13.4636 36.9333 13.725C36.4667 13.9863 35.9067 14.117 35.2533 14.117ZM33.1253 9.86097H37.2133C37.2133 9.53431 37.1293 9.22164 36.9613 8.92297C36.8027 8.62431 36.574 8.38164 36.2753 8.19497C35.986 7.99897 35.636 7.90097 35.2253 7.90097C34.88 7.90097 34.5533 7.96631 34.2453 8.09697C33.9373 8.22764 33.6807 8.43764 33.4753 8.72697C33.2793 9.01631 33.1627 9.39431 33.1253 9.86097ZM42.3802 14.117C41.8575 14.117 41.3675 13.977 40.9102 13.697C40.4529 13.4076 40.0842 12.997 39.8042 12.465C39.5335 11.9236 39.3982 11.2703 39.3982 10.505C39.3982 9.73964 39.5335 9.09097 39.8042 8.55897C40.0842 8.01764 40.4529 7.60697 40.9102 7.32697C41.3675 7.03764 41.8575 6.89297 42.3802 6.89297C42.9309 6.89297 43.3929 7.00497 43.7662 7.22897C44.1395 7.44364 44.4289 7.73297 44.6342 8.09697V4.59697H45.8102V11.331C45.8102 11.5643 45.8195 11.9096 45.8382 12.367C45.8569 12.815 45.9269 13.3423 46.0482 13.949H44.9422L44.6342 12.899C44.4289 13.2723 44.1395 13.571 43.7662 13.795C43.3929 14.0096 42.9309 14.117 42.3802 14.117ZM42.6882 13.109C43.2855 13.109 43.7615 12.8803 44.1162 12.423C44.4802 11.9656 44.6622 11.3263 44.6622 10.505C44.6622 9.67431 44.4802 9.03497 44.1162 8.58697C43.7615 8.12964 43.2855 7.90097 42.6882 7.90097C42.0909 7.90097 41.6102 8.12964 41.2462 8.58697C40.8915 9.03497 40.7142 9.67431 40.7142 10.505C40.7142 11.3263 40.8915 11.9656 41.2462 12.423C41.6102 12.8803 42.0909 13.109 42.6882 13.109Z" fill="#131619"/>
<path d="M146.662 13.168C146.26 13.168 145.864 13.098 145.472 12.958C145.08 12.818 144.72 12.6033 144.394 12.314C144.076 12.0153 143.82 11.6373 143.624 11.18C143.428 10.7227 143.33 10.1813 143.33 9.556C143.33 8.93067 143.428 8.38933 143.624 7.932C143.82 7.47467 144.076 7.10133 144.394 6.812C144.72 6.51333 145.08 6.294 145.472 6.154C145.864 6.014 146.26 5.944 146.662 5.944C147.063 5.944 147.46 6.014 147.852 6.154C148.253 6.294 148.612 6.51333 148.93 6.812C149.256 7.10133 149.513 7.47467 149.7 7.932C149.896 8.38933 149.994 8.93067 149.994 9.556C149.994 10.1813 149.896 10.7227 149.7 11.18C149.513 11.6373 149.256 12.0153 148.93 12.314C148.612 12.6033 148.253 12.818 147.852 12.958C147.46 13.098 147.063 13.168 146.662 13.168ZM146.662 12.132C146.998 12.132 147.324 12.0433 147.642 11.866C147.959 11.6793 148.22 11.3993 148.426 11.026C148.631 10.6433 148.734 10.1533 148.734 9.556C148.734 8.95867 148.631 8.47333 148.426 8.1C148.22 7.71733 147.959 7.43733 147.642 7.26C147.324 7.07333 146.998 6.98 146.662 6.98C146.335 6.98 146.008 7.07333 145.682 7.26C145.364 7.43733 145.103 7.71733 144.898 8.1C144.692 8.47333 144.59 8.95867 144.59 9.556C144.59 10.1533 144.692 10.6433 144.898 11.026C145.103 11.3993 145.364 11.6793 145.682 11.866C146.008 12.0433 146.335 12.132 146.662 12.132ZM154.932 13.168C154.391 13.168 153.934 13.0607 153.56 12.846C153.187 12.622 152.893 12.3233 152.678 11.95L152.37 13H151.502V3.648H152.678V7.148C152.893 6.784 153.187 6.49467 153.56 6.28C153.934 6.056 154.391 5.944 154.932 5.944C155.464 5.944 155.954 6.08867 156.402 6.378C156.86 6.658 157.224 7.06867 157.494 7.61C157.774 8.142 157.914 8.79067 157.914 9.556C157.914 10.3213 157.774 10.9747 157.494 11.516C157.224 12.048 156.86 12.4587 156.402 12.748C155.954 13.028 155.464 13.168 154.932 13.168ZM154.624 12.16C155.222 12.16 155.698 11.9313 156.052 11.474C156.416 11.0167 156.598 10.3773 156.598 9.556C156.598 8.72533 156.416 8.086 156.052 7.638C155.698 7.18067 155.222 6.952 154.624 6.952C154.027 6.952 153.546 7.18067 153.182 7.638C152.828 8.086 152.65 8.72533 152.65 9.556C152.65 10.3773 152.828 11.0167 153.182 11.474C153.546 11.9313 154.027 12.16 154.624 12.16ZM161.798 13.168C161.397 13.168 161 13.1073 160.608 12.986C160.225 12.8553 159.88 12.664 159.572 12.412C159.273 12.1507 159.045 11.824 158.886 11.432L160.02 11.012C160.123 11.4227 160.347 11.7213 160.692 11.908C161.047 12.0853 161.415 12.174 161.798 12.174C162.078 12.174 162.339 12.132 162.582 12.048C162.834 11.964 163.039 11.8427 163.198 11.684C163.357 11.5253 163.436 11.3433 163.436 11.138C163.436 10.7553 163.282 10.4847 162.974 10.326C162.675 10.1673 162.316 10.046 161.896 9.962L160.93 9.766C160.594 9.69133 160.281 9.58867 159.992 9.458C159.703 9.318 159.469 9.122 159.292 8.87C159.115 8.618 159.026 8.282 159.026 7.862C159.026 7.442 159.157 7.092 159.418 6.812C159.679 6.52267 160.011 6.30333 160.412 6.154C160.823 6.00467 161.252 5.93 161.7 5.93C162.251 5.93 162.769 6.04667 163.254 6.28C163.749 6.504 164.099 6.85867 164.304 7.344L163.198 7.75C163.077 7.47 162.862 7.26467 162.554 7.134C162.255 6.994 161.943 6.924 161.616 6.924C161.261 6.924 160.939 7.00333 160.65 7.162C160.361 7.32067 160.216 7.54933 160.216 7.848C160.216 8.14667 160.337 8.366 160.58 8.506C160.832 8.63667 161.14 8.73933 161.504 8.814L162.414 8.996C162.787 9.07067 163.142 9.178 163.478 9.318C163.814 9.458 164.089 9.668 164.304 9.948C164.519 10.2187 164.626 10.6013 164.626 11.096C164.626 11.5347 164.491 11.908 164.22 12.216C163.949 12.524 163.599 12.762 163.17 12.93C162.741 13.0887 162.283 13.168 161.798 13.168ZM168.976 13.168C168.248 13.168 167.632 13.0093 167.128 12.692C166.624 12.3653 166.236 11.9313 165.966 11.39C165.704 10.8393 165.574 10.2233 165.574 9.542C165.574 8.80467 165.723 8.17 166.022 7.638C166.32 7.09667 166.722 6.68133 167.226 6.392C167.739 6.09333 168.313 5.944 168.948 5.944C169.498 5.944 169.984 6.056 170.404 6.28C170.824 6.49467 171.169 6.78867 171.44 7.162C171.72 7.526 171.92 7.94133 172.042 8.408C172.172 8.87467 172.219 9.35533 172.182 9.85H166.834C166.852 10.4287 166.978 10.886 167.212 11.222C167.454 11.558 167.739 11.796 168.066 11.936C168.392 12.0667 168.696 12.132 168.976 12.132C169.368 12.132 169.694 12.0713 169.956 11.95C170.226 11.8193 170.441 11.6513 170.6 11.446L171.734 11.782C171.482 12.1833 171.122 12.5147 170.656 12.776C170.189 13.0373 169.629 13.168 168.976 13.168ZM166.848 8.912H170.936C170.936 8.58533 170.852 8.27267 170.684 7.974C170.525 7.67533 170.296 7.43267 169.998 7.246C169.708 7.05 169.358 6.952 168.948 6.952C168.602 6.952 168.276 7.01733 167.968 7.148C167.66 7.27867 167.403 7.48867 167.198 7.778C167.002 8.06733 166.885 8.44533 166.848 8.912ZM173.569 13V6.056H174.423L174.801 7.344C175.043 6.924 175.37 6.588 175.781 6.336C176.201 6.07467 176.7 5.944 177.279 5.944V7.162C177.213 7.162 177.143 7.162 177.069 7.162C177.003 7.162 176.938 7.16667 176.873 7.176C176.079 7.24133 175.524 7.51667 175.207 8.002C174.899 8.48733 174.745 9.15933 174.745 10.018V13H173.569ZM180.194 13L177.716 6.056H178.99L180.81 11.46L182.616 6.056H183.89L181.412 13H180.194ZM187.829 13.168C187.101 13.168 186.485 13.0093 185.981 12.692C185.477 12.3653 185.09 11.9313 184.819 11.39C184.558 10.8393 184.427 10.2233 184.427 9.542C184.427 8.80467 184.577 8.17 184.875 7.638C185.174 7.09667 185.575 6.68133 186.079 6.392C186.593 6.09333 187.167 5.944 187.801 5.944C188.352 5.944 188.837 6.056 189.257 6.28C189.677 6.49467 190.023 6.78867 190.293 7.162C190.573 7.526 190.774 7.94133 190.895 8.408C191.026 8.87467 191.073 9.35533 191.035 9.85H185.687C185.706 10.4287 185.832 10.886 186.065 11.222C186.308 11.558 186.593 11.796 186.919 11.936C187.246 12.0667 187.549 12.132 187.829 12.132C188.221 12.132 188.548 12.0713 188.809 11.95C189.08 11.8193 189.295 11.6513 189.453 11.446L190.587 11.782C190.335 12.1833 189.976 12.5147 189.509 12.776C189.043 13.0373 188.483 13.168 187.829 13.168ZM185.701 8.912H189.789C189.789 8.58533 189.705 8.27267 189.537 7.974C189.379 7.67533 189.15 7.43267 188.851 7.246C188.562 7.05 188.212 6.952 187.801 6.952C187.456 6.952 187.129 7.01733 186.821 7.148C186.513 7.27867 186.257 7.48867 186.051 7.778C185.855 8.06733 185.739 8.44533 185.701 8.912ZM194.956 13.168C194.433 13.168 193.943 13.028 193.486 12.748C193.029 12.4587 192.66 12.048 192.38 11.516C192.109 10.9747 191.974 10.3213 191.974 9.556C191.974 8.79067 192.109 8.142 192.38 7.61C192.66 7.06867 193.029 6.658 193.486 6.378C193.943 6.08867 194.433 5.944 194.956 5.944C195.507 5.944 195.969 6.056 196.342 6.28C196.715 6.49467 197.005 6.784 197.21 7.148V3.648H198.386V10.382C198.386 10.6153 198.395 10.9607 198.414 11.418C198.433 11.866 198.503 12.3933 198.624 13H197.518L197.21 11.95C197.005 12.3233 196.715 12.622 196.342 12.846C195.969 13.0607 195.507 13.168 194.956 13.168ZM195.264 12.16C195.861 12.16 196.337 11.9313 196.692 11.474C197.056 11.0167 197.238 10.3773 197.238 9.556C197.238 8.72533 197.056 8.086 196.692 7.638C196.337 7.18067 195.861 6.952 195.264 6.952C194.667 6.952 194.186 7.18067 193.822 7.638C193.467 8.086 193.29 8.72533 193.29 9.556C193.29 10.3773 193.467 11.0167 193.822 11.474C194.186 11.9313 194.667 12.16 195.264 12.16Z" fill="#131619"/>
<path d="M120.125 4.1499V14.7144H67.7974V4.1499H120.125Z" stroke="#131619" stroke-width="0.5" stroke-linecap="square"/>
<path d="M67.5754 20.6519H68.0754V21.1519H67.5754V20.6519ZM0.5 21.1519C0.223862 21.1519 0 20.9281 0 20.6519C0 20.3758 0.223862 20.1519 0.5 20.1519V20.6519V21.1519ZM0.549179 20.1519C0.825317 20.1519 1.04918 20.3758 1.04918 20.6519C1.04918 20.9281 0.825317 21.1519 0.549179 21.1519V20.6519V20.1519ZM3.49971 21.1519C3.22356 21.1519 2.99971 20.9281 2.99971 20.6519C2.99971 20.3758 3.22356 20.1519 3.49971 20.1519V20.6519V21.1519ZM3.59806 20.1519C3.8742 20.1519 4.09806 20.3758 4.09806 20.6519C4.09806 20.9281 3.8742 21.1519 3.59806 21.1519V20.6519V20.1519ZM6.54859 21.1519C6.27245 21.1519 6.04859 20.9281 6.04859 20.6519C6.04859 20.3758 6.27245 20.1519 6.54859 20.1519V20.6519V21.1519ZM6.64694 20.1519C6.92308 20.1519 7.14694 20.3758 7.14694 20.6519C7.14694 20.9281 6.92308 21.1519 6.64694 21.1519V20.6519V20.1519ZM9.59748 21.1519C9.32133 21.1519 9.09748 20.9281 9.09748 20.6519C9.09748 20.3758 9.32133 20.1519 9.59748 20.1519V20.6519V21.1519ZM9.69583 20.1519C9.97197 20.1519 10.1958 20.3758 10.1958 20.6519C10.1958 20.9281 9.97197 21.1519 9.69583 21.1519V20.6519V20.1519ZM12.6464 21.1519C12.3702 21.1519 12.1464 20.9281 12.1464 20.6519C12.1464 20.3758 12.3702 20.1519 12.6464 20.1519V20.6519V21.1519ZM12.7447 20.1519C13.0209 20.1519 13.2447 20.3758 13.2447 20.6519C13.2447 20.9281 13.0209 21.1519 12.7447 21.1519V20.6519V20.1519ZM15.6952 21.1519C15.4191 21.1519 15.1952 20.9281 15.1952 20.6519C15.1952 20.3758 15.4191 20.1519 15.6952 20.1519V20.6519V21.1519ZM15.7936 20.1519C16.0697 20.1519 16.2936 20.3758 16.2936 20.6519C16.2936 20.9281 16.0697 21.1519 15.7936 21.1519V20.6519V20.1519ZM18.7441 21.1519C18.468 21.1519 18.2441 20.9281 18.2441 20.6519C18.2441 20.3758 18.468 20.1519 18.7441 20.1519V20.6519V21.1519ZM18.8425 20.1519C19.1186 20.1519 19.3425 20.3758 19.3425 20.6519C19.3425 20.9281 19.1186 21.1519 18.8425 21.1519V20.6519V20.1519ZM21.793 21.1519C21.5169 21.1519 21.293 20.9281 21.293 20.6519C21.293 20.3758 21.5169 20.1519 21.793 20.1519V20.6519V21.1519ZM21.8914 20.1519C22.1675 20.1519 22.3914 20.3758 22.3914 20.6519C22.3914 20.9281 22.1675 21.1519 21.8914 21.1519V20.6519V20.1519ZM24.8419 21.1519C24.5658 21.1519 24.3419 20.9281 24.3419 20.6519C24.3419 20.3758 24.5658 20.1519 24.8419 20.1519V20.6519V21.1519ZM24.9402 20.1519C25.2164 20.1519 25.4402 20.3758 25.4402 20.6519C25.4402 20.9281 25.2164 21.1519 24.9402 21.1519V20.6519V20.1519ZM27.8908 21.1519C27.6146 21.1519 27.3908 20.9281 27.3908 20.6519C27.3908 20.3758 27.6146 20.1519 27.8908 20.1519V20.6519V21.1519ZM27.9891 20.1519C28.2653 20.1519 28.4891 20.3758 28.4891 20.6519C28.4891 20.9281 28.2653 21.1519 27.9891 21.1519V20.6519V20.1519ZM30.9397 21.1519C30.6635 21.1519 30.4397 20.9281 30.4397 20.6519C30.4397 20.3758 30.6635 20.1519 30.9397 20.1519V20.6519V21.1519ZM31.038 20.1519C31.3142 20.1519 31.538 20.3758 31.538 20.6519C31.538 20.9281 31.3142 21.1519 31.038 21.1519V20.6519V20.1519ZM33.9885 21.1519C33.7124 21.1519 33.4885 20.9281 33.4885 20.6519C33.4885 20.3758 33.7124 20.1519 33.9885 20.1519V20.6519V21.1519ZM34.0869 20.1519C34.363 20.1519 34.5869 20.3758 34.5869 20.6519C34.5869 20.9281 34.363 21.1519 34.0869 21.1519V20.6519V20.1519ZM37.0374 21.1519C36.7613 21.1519 36.5374 20.9281 36.5374 20.6519C36.5374 20.3758 36.7613 20.1519 37.0374 20.1519V20.6519V21.1519ZM37.1358 20.1519C37.4119 20.1519 37.6358 20.3758 37.6358 20.6519C37.6358 20.9281 37.4119 21.1519 37.1358 21.1519V20.6519V20.1519ZM40.0863 21.1519C39.8102 21.1519 39.5863 20.9281 39.5863 20.6519C39.5863 20.3758 39.8102 20.1519 40.0863 20.1519V20.6519V21.1519ZM40.1847 20.1519C40.4608 20.1519 40.6847 20.3758 40.6847 20.6519C40.6847 20.9281 40.4608 21.1519 40.1847 21.1519V20.6519V20.1519ZM43.1352 21.1519C42.859 21.1519 42.6352 20.9281 42.6352 20.6519C42.6352 20.3758 42.859 20.1519 43.1352 20.1519V20.6519V21.1519ZM43.2335 20.1519C43.5097 20.1519 43.7335 20.3758 43.7335 20.6519C43.7335 20.9281 43.5097 21.1519 43.2335 21.1519V20.6519V20.1519ZM46.1841 21.1519C45.9079 21.1519 45.6841 20.9281 45.6841 20.6519C45.6841 20.3758 45.9079 20.1519 46.1841 20.1519V20.6519V21.1519ZM46.2824 20.1519C46.5586 20.1519 46.7824 20.3758 46.7824 20.6519C46.7824 20.9281 46.5586 21.1519 46.2824 21.1519V20.6519V20.1519ZM49.233 21.1519C48.9568 21.1519 48.733 20.9281 48.733 20.6519C48.733 20.3758 48.9568 20.1519 49.233 20.1519V20.6519V21.1519ZM49.3313 20.1519C49.6074 20.1519 49.8313 20.3758 49.8313 20.6519C49.8313 20.9281 49.6074 21.1519 49.3313 21.1519V20.6519V20.1519ZM52.2818 21.1519C52.0057 21.1519 51.7818 20.9281 51.7818 20.6519C51.7818 20.3758 52.0057 20.1519 52.2818 20.1519V20.6519V21.1519ZM52.3802 20.1519C52.6563 20.1519 52.8802 20.3758 52.8802 20.6519C52.8802 20.9281 52.6563 21.1519 52.3802 21.1519V20.6519V20.1519ZM55.3307 21.1519C55.0546 21.1519 54.8307 20.9281 54.8307 20.6519C54.8307 20.3758 55.0546 20.1519 55.3307 20.1519V20.6519V21.1519ZM55.4291 20.1519C55.7052 20.1519 55.9291 20.3758 55.9291 20.6519C55.9291 20.9281 55.7052 21.1519 55.4291 21.1519V20.6519V20.1519ZM58.3796 21.1519C58.1035 21.1519 57.8796 20.9281 57.8796 20.6519C57.8796 20.3758 58.1035 20.1519 58.3796 20.1519V20.6519V21.1519ZM58.4779 20.1519C58.7541 20.1519 58.9779 20.3758 58.9779 20.6519C58.9779 20.9281 58.7541 21.1519 58.4779 21.1519V20.6519V20.1519ZM61.4285 21.1519C61.1523 21.1519 60.9285 20.9281 60.9285 20.6519C60.9285 20.3758 61.1523 20.1519 61.4285 20.1519V20.6519V21.1519ZM61.5268 20.1519C61.803 20.1519 62.0268 20.3758 62.0268 20.6519C62.0268 20.9281 61.803 21.1519 61.5268 21.1519V20.6519V20.1519ZM64.4774 21.1519C64.2012 21.1519 63.9774 20.9281 63.9774 20.6519C63.9774 20.3758 64.2012 20.1519 64.4774 20.1519V20.6519V21.1519ZM64.5757 20.1519C64.8519 20.1519 65.0757 20.3758 65.0757 20.6519C65.0757 20.9281 64.8519 21.1519 64.5757 21.1519V20.6519V20.1519ZM67.5262 21.1519C67.2501 21.1519 67.0262 20.9281 67.0262 20.6519C67.0262 20.3758 67.2501 20.1519 67.5262 20.1519V20.6519V21.1519ZM67.0754 20.602C67.0754 20.3258 67.2993 20.102 67.5754 20.102C67.8516 20.102 68.0754 20.3258 68.0754 20.602H67.5754H67.0754ZM68.0754 17.6036C68.0754 17.8798 67.8516 18.1036 67.5754 18.1036C67.2993 18.1036 67.0754 17.8798 67.0754 17.6036H67.5754H68.0754ZM67.0754 17.5037C67.0754 17.2276 67.2993 17.0037 67.5754 17.0037C67.8516 17.0037 68.0754 17.2276 68.0754 17.5037H67.5754H67.0754ZM68.0754 14.5054C68.0754 14.7815 67.8516 15.0054 67.5754 15.0054C67.2993 15.0054 67.0754 14.7815 67.0754 14.5054H67.5754H68.0754ZM67.0754 14.4054C67.0754 14.1293 67.2993 13.9054 67.5754 13.9054C67.8516 13.9054 68.0754 14.1293 68.0754 14.4054H67.5754H67.0754ZM68.0754 11.4071C68.0754 11.6833 67.8516 11.9071 67.5754 11.9071C67.2993 11.9071 67.0754 11.6833 67.0754 11.4071H67.5754H68.0754ZM67.0754 11.3072C67.0754 11.031 67.2993 10.8072 67.5754 10.8072C67.8516 10.8072 68.0754 11.031 68.0754 11.3072H67.5754H67.0754ZM68.0754 8.30887C68.0754 8.58501 67.8516 8.80887 67.5754 8.80887C67.2993 8.80887 67.0754 8.58501 67.0754 8.30887H67.5754H68.0754ZM0.5 20.6519V20.1519H0.549179V20.6519V21.1519H0.5V20.6519ZM3.49971 20.6519V20.1519H3.59806V20.6519V21.1519H3.49971V20.6519ZM6.54859 20.6519V20.1519H6.64694V20.6519V21.1519H6.54859V20.6519ZM9.59748 20.6519V20.1519H9.69583V20.6519V21.1519H9.59748V20.6519ZM12.6464 20.6519V20.1519H12.7447V20.6519V21.1519H12.6464V20.6519ZM15.6952 20.6519V20.1519H15.7936V20.6519V21.1519H15.6952V20.6519ZM18.7441 20.6519V20.1519H18.8425V20.6519V21.1519H18.7441V20.6519ZM21.793 20.6519V20.1519H21.8914V20.6519V21.1519H21.793V20.6519ZM24.8419 20.6519V20.1519H24.9402V20.6519V21.1519H24.8419V20.6519ZM27.8908 20.6519V20.1519H27.9891V20.6519V21.1519H27.8908V20.6519ZM30.9397 20.6519V20.1519H31.038V20.6519V21.1519H30.9397V20.6519ZM33.9885 20.6519V20.1519H34.0869V20.6519V21.1519H33.9885V20.6519ZM37.0374 20.6519V20.1519H37.1358V20.6519V21.1519H37.0374V20.6519ZM40.0863 20.6519V20.1519H40.1847V20.6519V21.1519H40.0863V20.6519ZM43.1352 20.6519V20.1519H43.2335V20.6519V21.1519H43.1352V20.6519ZM46.1841 20.6519V20.1519H46.2824V20.6519V21.1519H46.1841V20.6519ZM49.233 20.6519V20.1519H49.3313V20.6519V21.1519H49.233V20.6519ZM52.2818 20.6519V20.1519H52.3802V20.6519V21.1519H52.2818V20.6519ZM55.3307 20.6519V20.1519H55.4291V20.6519V21.1519H55.3307V20.6519ZM58.3796 20.6519V20.1519H58.4779V20.6519V21.1519H58.3796V20.6519ZM61.4285 20.6519V20.1519H61.5268V20.6519V21.1519H61.4285V20.6519ZM64.4774 20.6519V20.1519H64.5757V20.6519V21.1519H64.4774V20.6519ZM67.5262 20.6519V20.1519H67.5754V20.6519V21.1519H67.5262V20.6519ZM67.5754 20.6519H67.0754V20.602H67.5754H68.0754V20.6519H67.5754ZM67.5754 17.6036H67.0754V17.5037H67.5754H68.0754V17.6036H67.5754ZM67.5754 14.5054H67.0754V14.4054H67.5754H68.0754V14.5054H67.5754ZM67.5754 11.4071H67.0754V11.3072H67.5754H68.0754V11.4071H67.5754ZM67.5754 8.30887H67.0754V8.2589H67.5754H68.0754V8.30887H67.5754Z" fill="#131619"/>
<path d="M120.69 20.6509H120.44V20.9009L120.69 20.9009L120.69 20.6509ZM199.14 20.9019C199.278 20.9019 199.39 20.7899 199.39 20.6519C199.39 20.5138 199.278 20.4019 199.14 20.4019V20.6519V20.9019ZM197.203 20.4018C197.065 20.4018 196.953 20.5138 196.953 20.6518C196.953 20.7899 197.065 20.9018 197.203 20.9018L197.203 20.6518V20.4018ZM192.361 20.9018C192.499 20.9018 192.611 20.7899 192.611 20.6518C192.611 20.5137 192.499 20.4018 192.361 20.4018V20.6518V20.9018ZM188.487 20.4017C188.349 20.4017 188.237 20.5137 188.237 20.6517C188.237 20.7898 188.349 20.9017 188.487 20.9017L188.487 20.6517V20.4017ZM183.644 20.9017C183.782 20.9017 183.894 20.7897 183.894 20.6517C183.894 20.5136 183.782 20.4017 183.644 20.4017V20.6517L183.644 20.9017ZM179.77 20.4016C179.632 20.4016 179.52 20.5136 179.52 20.6516C179.52 20.7897 179.632 20.9016 179.77 20.9016L179.77 20.6516L179.77 20.4016ZM174.927 20.9016C175.066 20.9016 175.177 20.7896 175.177 20.6516C175.177 20.5135 175.066 20.4016 174.927 20.4016L174.927 20.6516L174.927 20.9016ZM171.053 20.4015C170.915 20.4015 170.803 20.5135 170.803 20.6515C170.803 20.7896 170.915 20.9015 171.053 20.9015V20.6515L171.053 20.4015ZM166.211 20.9015C166.349 20.9015 166.461 20.7895 166.461 20.6515C166.461 20.5134 166.349 20.4015 166.211 20.4015L166.211 20.6515L166.211 20.9015ZM162.337 20.4014C162.199 20.4014 162.087 20.5134 162.087 20.6514C162.087 20.7895 162.199 20.9014 162.337 20.9014L162.337 20.6514L162.337 20.4014ZM157.494 20.9014C157.632 20.9014 157.744 20.7894 157.744 20.6514C157.744 20.5133 157.632 20.4014 157.494 20.4014L157.494 20.6514V20.9014ZM153.62 20.4013C153.482 20.4013 153.37 20.5133 153.37 20.6513C153.37 20.7894 153.482 20.9013 153.62 20.9013L153.62 20.6513L153.62 20.4013ZM148.777 20.9013C148.916 20.9013 149.027 20.7893 149.027 20.6513C149.027 20.5132 148.916 20.4013 148.777 20.4013L148.777 20.6513L148.777 20.9013ZM144.903 20.4012C144.765 20.4012 144.653 20.5132 144.653 20.6512C144.653 20.7893 144.765 20.9012 144.903 20.9012L144.903 20.6512L144.903 20.4012ZM140.061 20.9012C140.199 20.9012 140.311 20.7892 140.311 20.6512C140.311 20.5131 140.199 20.4012 140.061 20.4012L140.061 20.6512L140.061 20.9012ZM136.187 20.4011C136.049 20.4011 135.937 20.5131 135.937 20.6511C135.937 20.7892 136.049 20.9011 136.187 20.9011L136.187 20.6511L136.187 20.4011ZM131.344 20.9011C131.482 20.9011 131.594 20.7891 131.594 20.6511C131.594 20.513 131.482 20.4011 131.344 20.4011L131.344 20.6511L131.344 20.9011ZM127.47 20.401C127.332 20.401 127.22 20.5129 127.22 20.651C127.22 20.7891 127.332 20.901 127.47 20.901L127.47 20.651L127.47 20.401ZM122.627 20.901C122.766 20.901 122.877 20.789 122.877 20.651C122.877 20.5129 122.766 20.401 122.627 20.401L122.627 20.651L122.627 20.901ZM120.94 19.2161C120.94 19.078 120.829 18.9661 120.69 18.9661C120.552 18.9661 120.44 19.078 120.44 19.2161H120.69H120.94ZM120.44 15.629C120.44 15.7671 120.552 15.879 120.69 15.879C120.829 15.879 120.94 15.7671 120.94 15.629H120.69H120.44ZM199.14 20.6519V20.4019L197.203 20.4018V20.6518L197.203 20.9018L199.14 20.9019V20.6519ZM192.361 20.6518V20.4018L188.487 20.4017V20.6517L188.487 20.9017L192.361 20.9018V20.6518ZM183.644 20.6517V20.4017L179.77 20.4016L179.77 20.6516L179.77 20.9016L183.644 20.9017L183.644 20.6517ZM174.927 20.6516L174.927 20.4016L171.053 20.4015L171.053 20.6515V20.9015L174.927 20.9016L174.927 20.6516ZM166.211 20.6515L166.211 20.4015L162.337 20.4014L162.337 20.6514L162.337 20.9014L166.211 20.9015L166.211 20.6515ZM157.494 20.6514L157.494 20.4014L153.62 20.4013L153.62 20.6513L153.62 20.9013L157.494 20.9014V20.6514ZM148.777 20.6513L148.777 20.4013L144.903 20.4012L144.903 20.6512L144.903 20.9012L148.777 20.9013L148.777 20.6513ZM140.061 20.6512L140.061 20.4012L136.187 20.4011L136.187 20.6511L136.187 20.9011L140.061 20.9012L140.061 20.6512ZM131.344 20.6511L131.344 20.4011L127.47 20.401L127.47 20.651L127.47 20.901L131.344 20.9011L131.344 20.6511ZM122.627 20.651L122.627 20.401L120.69 20.4009L120.69 20.6509L120.69 20.9009L122.627 20.901L122.627 20.651ZM120.69 20.6509H120.94V19.2161H120.69H120.44V20.6509H120.69ZM120.69 15.629H120.94V14.1942H120.69H120.44V15.629H120.69Z" fill="#131619"/>
<circle cx="67.5474" cy="9.44971" r="4.76465" fill="white" stroke="#131619" stroke-width="1.5"/>
</svg>
