<svg width="200" height="47" viewBox="0 0 200 47" fill="none" xmlns="http://www.w3.org/2000/svg">
<circle cx="120.447" cy="35.186" r="4.76465" fill="#131619" stroke="#131619" stroke-width="1.5"/>
<path d="M65.5509 13.168C65.0282 13.168 64.5382 13.028 64.0809 12.748C63.6235 12.4587 63.2549 12.048 62.9749 11.516C62.7042 10.9747 62.5689 10.3213 62.5689 9.556C62.5689 8.79067 62.7042 8.142 62.9749 7.61C63.2549 7.06867 63.6235 6.658 64.0809 6.378C64.5382 6.08867 65.0282 5.944 65.5509 5.944C66.1015 5.944 66.5635 6.056 66.9369 6.28C67.3102 6.49467 67.5995 6.784 67.8049 7.148V3.648H68.9809V10.382C68.9809 10.6153 68.9902 10.9607 69.0089 11.418C69.0275 11.866 69.0975 12.3933 69.2189 13H68.1129L67.8049 11.95C67.5995 12.3233 67.3102 12.622 66.9369 12.846C66.5635 13.0607 66.1015 13.168 65.5509 13.168ZM65.8589 12.16C66.4562 12.16 66.9322 11.9313 67.2869 11.474C67.6509 11.0167 67.8329 10.3773 67.8329 9.556C67.8329 8.72533 67.6509 8.086 67.2869 7.638C66.9322 7.18067 66.4562 6.952 65.8589 6.952C65.2615 6.952 64.7809 7.18067 64.4169 7.638C64.0622 8.086 63.8849 8.72533 63.8849 9.556C63.8849 10.3773 64.0622 11.0167 64.4169 11.474C64.7809 11.9313 65.2615 12.16 65.8589 12.16ZM72.1232 4.74C71.8899 4.74 71.6845 4.656 71.5072 4.488C71.3392 4.31067 71.2552 4.10067 71.2552 3.858C71.2552 3.61533 71.3392 3.41 71.5072 3.242C71.6845 3.074 71.8899 2.99 72.1232 2.99C72.3659 2.99 72.5712 3.074 72.7392 3.242C72.9165 3.41 73.0052 3.61533 73.0052 3.858C73.0052 4.10067 72.9165 4.31067 72.7392 4.488C72.5712 4.656 72.3659 4.74 72.1232 4.74ZM71.5352 13V6.994H70.5692V6.056H72.7112V13H71.5352ZM75.2217 13V6.994H74.0457V6.056H75.2217V5.02C75.2217 4.544 75.2684 4.166 75.3617 3.886C75.455 3.606 75.637 3.41 75.9077 3.298C76.1784 3.17667 76.5704 3.116 77.0837 3.116H77.8397V4.11H77.1117C76.813 4.11 76.617 4.17067 76.5237 4.292C76.4397 4.41333 76.3977 4.65133 76.3977 5.006V6.056H77.8397V6.994H76.3977V13H75.2217ZM79.5693 13V6.994H78.3933V6.056H79.5693V5.02C79.5693 4.544 79.616 4.166 79.7093 3.886C79.8027 3.606 79.9847 3.41 80.2553 3.298C80.526 3.17667 80.918 3.116 81.4313 3.116H82.1873V4.11H81.4593C81.1607 4.11 80.9647 4.17067 80.8713 4.292C80.7873 4.41333 80.7453 4.65133 80.7453 5.006V6.056H82.1873V6.994H80.7453V13H79.5693ZM86.1642 13.168C85.4362 13.168 84.8202 13.0093 84.3162 12.692C83.8122 12.3653 83.4249 11.9313 83.1542 11.39C82.8929 10.8393 82.7622 10.2233 82.7622 9.542C82.7622 8.80467 82.9116 8.17 83.2102 7.638C83.5089 7.09667 83.9102 6.68133 84.4142 6.392C84.9276 6.09333 85.5016 5.944 86.1362 5.944C86.6869 5.944 87.1722 6.056 87.5922 6.28C88.0122 6.49467 88.3576 6.78867 88.6282 7.162C88.9082 7.526 89.1089 7.94133 89.2302 8.408C89.3609 8.87467 89.4076 9.35533 89.3702 9.85H84.0222C84.0409 10.4287 84.1669 10.886 84.4002 11.222C84.6429 11.558 84.9276 11.796 85.2542 11.936C85.5809 12.0667 85.8842 12.132 86.1642 12.132C86.5562 12.132 86.8829 12.0713 87.1442 11.95C87.4149 11.8193 87.6296 11.6513 87.7882 11.446L88.9222 11.782C88.6702 12.1833 88.3109 12.5147 87.8442 12.776C87.3776 13.0373 86.8176 13.168 86.1642 13.168ZM84.0362 8.912H88.1242C88.1242 8.58533 88.0402 8.27267 87.8722 7.974C87.7136 7.67533 87.4849 7.43267 87.1862 7.246C86.8969 7.05 86.5469 6.952 86.1362 6.952C85.7909 6.952 85.4642 7.01733 85.1562 7.148C84.8482 7.27867 84.5916 7.48867 84.3862 7.778C84.1902 8.06733 84.0736 8.44533 84.0362 8.912ZM90.7571 13V6.056H91.6111L91.9891 7.344C92.2318 6.924 92.5584 6.588 92.9691 6.336C93.3891 6.07467 93.8884 5.944 94.4671 5.944V7.162C94.4018 7.162 94.3318 7.162 94.2571 7.162C94.1918 7.162 94.1264 7.16667 94.0611 7.176C93.2678 7.24133 92.7124 7.51667 92.3951 8.002C92.0871 8.48733 91.9331 9.15933 91.9331 10.018V13H90.7571ZM98.4689 13.168C97.7409 13.168 97.1249 13.0093 96.6209 12.692C96.1169 12.3653 95.7296 11.9313 95.4589 11.39C95.1976 10.8393 95.0669 10.2233 95.0669 9.542C95.0669 8.80467 95.2162 8.17 95.5149 7.638C95.8136 7.09667 96.2149 6.68133 96.7189 6.392C97.2322 6.09333 97.8062 5.944 98.4409 5.944C98.9916 5.944 99.4769 6.056 99.8969 6.28C100.317 6.49467 100.662 6.78867 100.933 7.162C101.213 7.526 101.414 7.94133 101.535 8.408C101.666 8.87467 101.712 9.35533 101.675 9.85H96.3269C96.3456 10.4287 96.4716 10.886 96.7049 11.222C96.9476 11.558 97.2322 11.796 97.5589 11.936C97.8856 12.0667 98.1889 12.132 98.4689 12.132C98.8609 12.132 99.1876 12.0713 99.4489 11.95C99.7196 11.8193 99.9342 11.6513 100.093 11.446L101.227 11.782C100.975 12.1833 100.616 12.5147 100.149 12.776C99.6822 13.0373 99.1222 13.168 98.4689 13.168ZM96.3409 8.912H100.429C100.429 8.58533 100.345 8.27267 100.177 7.974C100.018 7.67533 99.7896 7.43267 99.4909 7.246C99.2016 7.05 98.8516 6.952 98.4409 6.952C98.0956 6.952 97.7689 7.01733 97.4609 7.148C97.1529 7.27867 96.8962 7.48867 96.6909 7.778C96.4949 8.06733 96.3782 8.44533 96.3409 8.912ZM103.062 13V6.056H103.93L104.238 7.106C104.434 6.77933 104.709 6.504 105.064 6.28C105.418 6.056 105.89 5.944 106.478 5.944C107.318 5.944 107.91 6.19133 108.256 6.686C108.601 7.17133 108.774 7.81067 108.774 8.604V13H107.598V8.954C107.598 8.59933 107.565 8.27267 107.5 7.974C107.434 7.666 107.29 7.41867 107.066 7.232C106.851 7.04533 106.52 6.952 106.072 6.952C105.502 6.952 105.054 7.148 104.728 7.54C104.401 7.92267 104.238 8.48733 104.238 9.234V13H103.062ZM113.34 13.168C112.677 13.168 112.103 13.014 111.618 12.706C111.133 12.3887 110.759 11.9593 110.498 11.418C110.237 10.8767 110.106 10.256 110.106 9.556C110.106 8.86533 110.241 8.24933 110.512 7.708C110.792 7.15733 111.184 6.728 111.688 6.42C112.192 6.10267 112.785 5.944 113.466 5.944C114.091 5.944 114.628 6.098 115.076 6.406C115.524 6.714 115.86 7.08267 116.084 7.512L115.006 7.904C114.857 7.624 114.637 7.4 114.348 7.232C114.059 7.064 113.737 6.98 113.382 6.98C113.037 6.98 112.71 7.07333 112.402 7.26C112.094 7.43733 111.847 7.71733 111.66 8.1C111.473 8.47333 111.38 8.954 111.38 9.542C111.38 10.1207 111.473 10.606 111.66 10.998C111.856 11.3807 112.103 11.6653 112.402 11.852C112.71 12.0387 113.037 12.132 113.382 12.132C113.765 12.132 114.096 12.048 114.376 11.88C114.665 11.7027 114.885 11.4833 115.034 11.222L116.112 11.614C115.851 12.062 115.477 12.4353 114.992 12.734C114.507 13.0233 113.956 13.168 113.34 13.168ZM120.508 13.168C119.78 13.168 119.164 13.0093 118.66 12.692C118.156 12.3653 117.769 11.9313 117.498 11.39C117.237 10.8393 117.106 10.2233 117.106 9.542C117.106 8.80467 117.255 8.17 117.554 7.638C117.853 7.09667 118.254 6.68133 118.758 6.392C119.271 6.09333 119.845 5.944 120.48 5.944C121.031 5.944 121.516 6.056 121.936 6.28C122.356 6.49467 122.701 6.78867 122.972 7.162C123.252 7.526 123.453 7.94133 123.574 8.408C123.705 8.87467 123.751 9.35533 123.714 9.85H118.366C118.385 10.4287 118.511 10.886 118.744 11.222C118.987 11.558 119.271 11.796 119.598 11.936C119.925 12.0667 120.228 12.132 120.508 12.132C120.9 12.132 121.227 12.0713 121.488 11.95C121.759 11.8193 121.973 11.6513 122.132 11.446L123.266 11.782C123.014 12.1833 122.655 12.5147 122.188 12.776C121.721 13.0373 121.161 13.168 120.508 13.168ZM118.38 8.912H122.468C122.468 8.58533 122.384 8.27267 122.216 7.974C122.057 7.67533 121.829 7.43267 121.53 7.246C121.241 7.05 120.891 6.952 120.48 6.952C120.135 6.952 119.808 7.01733 119.5 7.148C119.192 7.27867 118.935 7.48867 118.73 7.778C118.534 8.06733 118.417 8.44533 118.38 8.912Z" fill="#131619"/>
<path d="M4.13998 39.8533C3.61731 39.8533 3.12731 39.7133 2.66998 39.4333C2.21264 39.144 1.84398 38.7333 1.56398 38.2013C1.29331 37.66 1.15798 37.0066 1.15798 36.2413C1.15798 35.476 1.29331 34.8273 1.56398 34.2953C1.84398 33.754 2.21264 33.3433 2.66998 33.0633C3.12731 32.774 3.61731 32.6293 4.13998 32.6293C4.69064 32.6293 5.15264 32.7413 5.52598 32.9653C5.89931 33.18 6.18864 33.4693 6.39398 33.8333V30.3333H7.56998V37.0673C7.56998 37.3006 7.57931 37.646 7.59798 38.1033C7.61664 38.5513 7.68664 39.0786 7.80798 39.6853H6.70198L6.39398 38.6353C6.18864 39.0086 5.89931 39.3073 5.52598 39.5313C5.15264 39.746 4.69064 39.8533 4.13998 39.8533ZM4.44798 38.8453C5.04531 38.8453 5.52131 38.6166 5.87598 38.1593C6.23998 37.702 6.42198 37.0626 6.42198 36.2413C6.42198 35.4106 6.23998 34.7713 5.87598 34.3233C5.52131 33.866 5.04531 33.6373 4.44798 33.6373C3.85064 33.6373 3.36998 33.866 3.00598 34.3233C2.65131 34.7713 2.47398 35.4106 2.47398 36.2413C2.47398 37.0626 2.65131 37.702 3.00598 38.1593C3.36998 38.6166 3.85064 38.8453 4.44798 38.8453ZM12.4623 39.8533C11.7343 39.8533 11.1183 39.6946 10.6143 39.3773C10.1103 39.0506 9.72299 38.6166 9.45232 38.0753C9.19099 37.5246 9.06032 36.9086 9.06032 36.2273C9.06032 35.49 9.20965 34.8553 9.50832 34.3233C9.80699 33.782 10.2083 33.3666 10.7123 33.0773C11.2257 32.7786 11.7997 32.6293 12.4343 32.6293C12.985 32.6293 13.4703 32.7413 13.8903 32.9653C14.3103 33.18 14.6557 33.474 14.9263 33.8473C15.2063 34.2113 15.407 34.6266 15.5283 35.0933C15.659 35.56 15.7057 36.0406 15.6683 36.5353H10.3203C10.339 37.114 10.465 37.5713 10.6983 37.9073C10.941 38.2433 11.2257 38.4813 11.5523 38.6213C11.879 38.752 12.1823 38.8173 12.4623 38.8173C12.8543 38.8173 13.181 38.7566 13.4423 38.6353C13.713 38.5046 13.9277 38.3366 14.0863 38.1313L15.2203 38.4673C14.9683 38.8686 14.609 39.2 14.1423 39.4613C13.6757 39.7226 13.1157 39.8533 12.4623 39.8533ZM10.3343 35.5973H14.4223C14.4223 35.2706 14.3383 34.958 14.1703 34.6593C14.0117 34.3606 13.783 34.118 13.4843 33.9313C13.195 33.7353 12.845 33.6373 12.4343 33.6373C12.089 33.6373 11.7623 33.7026 11.4543 33.8333C11.1463 33.964 10.8897 34.174 10.6843 34.4633C10.4883 34.7526 10.3717 35.1306 10.3343 35.5973ZM19.4212 39.8533C19.0199 39.8533 18.6232 39.7926 18.2312 39.6713C17.8485 39.5406 17.5032 39.3493 17.1952 39.0973C16.8965 38.836 16.6679 38.5093 16.5092 38.1173L17.6432 37.6973C17.7459 38.108 17.9699 38.4066 18.3152 38.5933C18.6699 38.7706 19.0385 38.8593 19.4212 38.8593C19.7012 38.8593 19.9625 38.8173 20.2052 38.7333C20.4572 38.6493 20.6625 38.528 20.8212 38.3693C20.9799 38.2106 21.0592 38.0286 21.0592 37.8233C21.0592 37.4406 20.9052 37.17 20.5972 37.0113C20.2985 36.8526 19.9392 36.7313 19.5192 36.6473L18.5532 36.4513C18.2172 36.3766 17.9045 36.274 17.6152 36.1433C17.3259 36.0033 17.0925 35.8073 16.9152 35.5553C16.7379 35.3033 16.6492 34.9673 16.6492 34.5473C16.6492 34.1273 16.7799 33.7773 17.0412 33.4973C17.3025 33.208 17.6339 32.9886 18.0352 32.8393C18.4459 32.69 18.8752 32.6153 19.3232 32.6153C19.8739 32.6153 20.3919 32.732 20.8772 32.9653C21.3719 33.1893 21.7219 33.544 21.9272 34.0293L20.8212 34.4353C20.6999 34.1553 20.4852 33.95 20.1772 33.8193C19.8785 33.6793 19.5659 33.6093 19.2392 33.6093C18.8845 33.6093 18.5625 33.6886 18.2732 33.8473C17.9839 34.006 17.8392 34.2346 17.8392 34.5333C17.8392 34.832 17.9605 35.0513 18.2032 35.1913C18.4552 35.322 18.7632 35.4246 19.1272 35.4993L20.0372 35.6813C20.4105 35.756 20.7652 35.8633 21.1012 36.0033C21.4372 36.1433 21.7125 36.3533 21.9272 36.6333C22.1419 36.904 22.2492 37.2866 22.2492 37.7813C22.2492 38.22 22.1139 38.5933 21.8432 38.9013C21.5725 39.2093 21.2225 39.4473 20.7932 39.6153C20.3639 39.774 19.9065 39.8533 19.4212 39.8533ZM24.849 31.4253C24.6157 31.4253 24.4104 31.3413 24.233 31.1733C24.065 30.996 23.981 30.786 23.981 30.5433C23.981 30.3006 24.065 30.0953 24.233 29.9273C24.4104 29.7593 24.6157 29.6753 24.849 29.6753C25.0917 29.6753 25.297 29.7593 25.465 29.9273C25.6424 30.0953 25.731 30.3006 25.731 30.5433C25.731 30.786 25.6424 30.996 25.465 31.1733C25.297 31.3413 25.0917 31.4253 24.849 31.4253ZM24.261 39.6853V33.6793H23.295V32.7413H25.437V39.6853H24.261ZM27.5415 39.6853V32.7413H28.3955L28.7735 34.0293C29.0162 33.6093 29.3429 33.2733 29.7535 33.0213C30.1735 32.76 30.6729 32.6293 31.2515 32.6293V33.8473C31.1862 33.8473 31.1162 33.8473 31.0415 33.8473C30.9762 33.8473 30.9109 33.852 30.8455 33.8613C30.0522 33.9266 29.4969 34.202 29.1795 34.6873C28.8715 35.1726 28.7175 35.8446 28.7175 36.7033V39.6853H27.5415ZM35.2533 39.8533C34.5253 39.8533 33.9093 39.6946 33.4053 39.3773C32.9013 39.0506 32.514 38.6166 32.2433 38.0753C31.982 37.5246 31.8513 36.9086 31.8513 36.2273C31.8513 35.49 32.0007 34.8553 32.2993 34.3233C32.598 33.782 32.9993 33.3666 33.5033 33.0773C34.0167 32.7786 34.5907 32.6293 35.2253 32.6293C35.776 32.6293 36.2613 32.7413 36.6813 32.9653C37.1013 33.18 37.4467 33.474 37.7173 33.8473C37.9973 34.2113 38.198 34.6266 38.3193 35.0933C38.45 35.56 38.4967 36.0406 38.4593 36.5353H33.1113C33.13 37.114 33.256 37.5713 33.4893 37.9073C33.732 38.2433 34.0167 38.4813 34.3433 38.6213C34.67 38.752 34.9733 38.8173 35.2533 38.8173C35.6453 38.8173 35.972 38.7566 36.2333 38.6353C36.504 38.5046 36.7187 38.3366 36.8773 38.1313L38.0113 38.4673C37.7593 38.8686 37.4 39.2 36.9333 39.4613C36.4667 39.7226 35.9067 39.8533 35.2533 39.8533ZM33.1253 35.5973H37.2133C37.2133 35.2706 37.1293 34.958 36.9613 34.6593C36.8027 34.3606 36.574 34.118 36.2753 33.9313C35.986 33.7353 35.636 33.6373 35.2253 33.6373C34.88 33.6373 34.5533 33.7026 34.2453 33.8333C33.9373 33.964 33.6807 34.174 33.4753 34.4633C33.2793 34.7526 33.1627 35.1306 33.1253 35.5973ZM42.3802 39.8533C41.8575 39.8533 41.3675 39.7133 40.9102 39.4333C40.4529 39.144 40.0842 38.7333 39.8042 38.2013C39.5335 37.66 39.3982 37.0066 39.3982 36.2413C39.3982 35.476 39.5335 34.8273 39.8042 34.2953C40.0842 33.754 40.4529 33.3433 40.9102 33.0633C41.3675 32.774 41.8575 32.6293 42.3802 32.6293C42.9309 32.6293 43.3929 32.7413 43.7662 32.9653C44.1395 33.18 44.4289 33.4693 44.6342 33.8333V30.3333H45.8102V37.0673C45.8102 37.3006 45.8195 37.646 45.8382 38.1033C45.8569 38.5513 45.9269 39.0786 46.0482 39.6853H44.9422L44.6342 38.6353C44.4289 39.0086 44.1395 39.3073 43.7662 39.5313C43.3929 39.746 42.9309 39.8533 42.3802 39.8533ZM42.6882 38.8453C43.2855 38.8453 43.7615 38.6166 44.1162 38.1593C44.4802 37.702 44.6622 37.0626 44.6622 36.2413C44.6622 35.4106 44.4802 34.7713 44.1162 34.3233C43.7615 33.866 43.2855 33.6373 42.6882 33.6373C42.0909 33.6373 41.6102 33.866 41.2462 34.3233C40.8915 34.7713 40.7142 35.4106 40.7142 36.2413C40.7142 37.0626 40.8915 37.702 41.2462 38.1593C41.6102 38.6166 42.0909 38.8453 42.6882 38.8453Z" fill="#131619"/>
<path d="M146.662 38.9043C146.26 38.9043 145.864 38.8343 145.472 38.6943C145.08 38.5543 144.72 38.3397 144.394 38.0503C144.076 37.7517 143.82 37.3737 143.624 36.9163C143.428 36.459 143.33 35.9177 143.33 35.2923C143.33 34.667 143.428 34.1257 143.624 33.6683C143.82 33.211 144.076 32.8377 144.394 32.5483C144.72 32.2497 145.08 32.0303 145.472 31.8903C145.864 31.7503 146.26 31.6803 146.662 31.6803C147.063 31.6803 147.46 31.7503 147.852 31.8903C148.253 32.0303 148.612 32.2497 148.93 32.5483C149.256 32.8377 149.513 33.211 149.7 33.6683C149.896 34.1257 149.994 34.667 149.994 35.2923C149.994 35.9177 149.896 36.459 149.7 36.9163C149.513 37.3737 149.256 37.7517 148.93 38.0503C148.612 38.3397 148.253 38.5543 147.852 38.6943C147.46 38.8343 147.063 38.9043 146.662 38.9043ZM146.662 37.8683C146.998 37.8683 147.324 37.7797 147.642 37.6023C147.959 37.4157 148.22 37.1357 148.426 36.7623C148.631 36.3797 148.734 35.8897 148.734 35.2923C148.734 34.695 148.631 34.2097 148.426 33.8363C148.22 33.4537 147.959 33.1737 147.642 32.9963C147.324 32.8097 146.998 32.7163 146.662 32.7163C146.335 32.7163 146.008 32.8097 145.682 32.9963C145.364 33.1737 145.103 33.4537 144.898 33.8363C144.692 34.2097 144.59 34.695 144.59 35.2923C144.59 35.8897 144.692 36.3797 144.898 36.7623C145.103 37.1357 145.364 37.4157 145.682 37.6023C146.008 37.7797 146.335 37.8683 146.662 37.8683ZM154.932 38.9043C154.391 38.9043 153.934 38.797 153.56 38.5823C153.187 38.3583 152.893 38.0597 152.678 37.6863L152.37 38.7363H151.502V29.3843H152.678V32.8843C152.893 32.5203 153.187 32.231 153.56 32.0163C153.934 31.7923 154.391 31.6803 154.932 31.6803C155.464 31.6803 155.954 31.825 156.402 32.1143C156.86 32.3943 157.224 32.805 157.494 33.3463C157.774 33.8783 157.914 34.527 157.914 35.2923C157.914 36.0577 157.774 36.711 157.494 37.2523C157.224 37.7843 156.86 38.195 156.402 38.4843C155.954 38.7643 155.464 38.9043 154.932 38.9043ZM154.624 37.8963C155.222 37.8963 155.698 37.6677 156.052 37.2103C156.416 36.753 156.598 36.1137 156.598 35.2923C156.598 34.4617 156.416 33.8223 156.052 33.3743C155.698 32.917 155.222 32.6883 154.624 32.6883C154.027 32.6883 153.546 32.917 153.182 33.3743C152.828 33.8223 152.65 34.4617 152.65 35.2923C152.65 36.1137 152.828 36.753 153.182 37.2103C153.546 37.6677 154.027 37.8963 154.624 37.8963ZM161.798 38.9043C161.397 38.9043 161 38.8437 160.608 38.7223C160.225 38.5917 159.88 38.4003 159.572 38.1483C159.273 37.887 159.045 37.5603 158.886 37.1683L160.02 36.7483C160.123 37.159 160.347 37.4577 160.692 37.6443C161.047 37.8217 161.415 37.9103 161.798 37.9103C162.078 37.9103 162.339 37.8683 162.582 37.7843C162.834 37.7003 163.039 37.579 163.198 37.4203C163.357 37.2617 163.436 37.0797 163.436 36.8743C163.436 36.4917 163.282 36.221 162.974 36.0623C162.675 35.9037 162.316 35.7823 161.896 35.6983L160.93 35.5023C160.594 35.4277 160.281 35.325 159.992 35.1943C159.703 35.0543 159.469 34.8583 159.292 34.6063C159.115 34.3543 159.026 34.0183 159.026 33.5983C159.026 33.1783 159.157 32.8283 159.418 32.5483C159.679 32.259 160.011 32.0397 160.412 31.8903C160.823 31.741 161.252 31.6663 161.7 31.6663C162.251 31.6663 162.769 31.783 163.254 32.0163C163.749 32.2403 164.099 32.595 164.304 33.0803L163.198 33.4863C163.077 33.2063 162.862 33.001 162.554 32.8703C162.255 32.7303 161.943 32.6603 161.616 32.6603C161.261 32.6603 160.939 32.7397 160.65 32.8983C160.361 33.057 160.216 33.2857 160.216 33.5843C160.216 33.883 160.337 34.1023 160.58 34.2423C160.832 34.373 161.14 34.4757 161.504 34.5503L162.414 34.7323C162.787 34.807 163.142 34.9143 163.478 35.0543C163.814 35.1943 164.089 35.4043 164.304 35.6843C164.519 35.955 164.626 36.3377 164.626 36.8323C164.626 37.271 164.491 37.6443 164.22 37.9523C163.949 38.2603 163.599 38.4983 163.17 38.6663C162.741 38.825 162.283 38.9043 161.798 38.9043ZM168.976 38.9043C168.248 38.9043 167.632 38.7457 167.128 38.4283C166.624 38.1017 166.236 37.6677 165.966 37.1263C165.704 36.5757 165.574 35.9597 165.574 35.2783C165.574 34.541 165.723 33.9063 166.022 33.3743C166.32 32.833 166.722 32.4177 167.226 32.1283C167.739 31.8297 168.313 31.6803 168.948 31.6803C169.498 31.6803 169.984 31.7923 170.404 32.0163C170.824 32.231 171.169 32.525 171.44 32.8983C171.72 33.2623 171.92 33.6777 172.042 34.1443C172.172 34.611 172.219 35.0917 172.182 35.5863H166.834C166.852 36.165 166.978 36.6223 167.212 36.9583C167.454 37.2943 167.739 37.5323 168.066 37.6723C168.392 37.803 168.696 37.8683 168.976 37.8683C169.368 37.8683 169.694 37.8077 169.956 37.6863C170.226 37.5557 170.441 37.3877 170.6 37.1823L171.734 37.5183C171.482 37.9197 171.122 38.251 170.656 38.5123C170.189 38.7737 169.629 38.9043 168.976 38.9043ZM166.848 34.6483H170.936C170.936 34.3217 170.852 34.009 170.684 33.7103C170.525 33.4117 170.296 33.169 169.998 32.9823C169.708 32.7863 169.358 32.6883 168.948 32.6883C168.602 32.6883 168.276 32.7537 167.968 32.8843C167.66 33.015 167.403 33.225 167.198 33.5143C167.002 33.8037 166.885 34.1817 166.848 34.6483ZM173.569 38.7363V31.7923H174.423L174.801 33.0803C175.043 32.6603 175.37 32.3243 175.781 32.0723C176.201 31.811 176.7 31.6803 177.279 31.6803V32.8983C177.213 32.8983 177.143 32.8983 177.069 32.8983C177.003 32.8983 176.938 32.903 176.873 32.9123C176.079 32.9777 175.524 33.253 175.207 33.7383C174.899 34.2237 174.745 34.8957 174.745 35.7543V38.7363H173.569ZM180.194 38.7363L177.716 31.7923H178.99L180.81 37.1963L182.616 31.7923H183.89L181.412 38.7363H180.194ZM187.829 38.9043C187.101 38.9043 186.485 38.7457 185.981 38.4283C185.477 38.1017 185.09 37.6677 184.819 37.1263C184.558 36.5757 184.427 35.9597 184.427 35.2783C184.427 34.541 184.577 33.9063 184.875 33.3743C185.174 32.833 185.575 32.4177 186.079 32.1283C186.593 31.8297 187.167 31.6803 187.801 31.6803C188.352 31.6803 188.837 31.7923 189.257 32.0163C189.677 32.231 190.023 32.525 190.293 32.8983C190.573 33.2623 190.774 33.6777 190.895 34.1443C191.026 34.611 191.073 35.0917 191.035 35.5863H185.687C185.706 36.165 185.832 36.6223 186.065 36.9583C186.308 37.2943 186.593 37.5323 186.919 37.6723C187.246 37.803 187.549 37.8683 187.829 37.8683C188.221 37.8683 188.548 37.8077 188.809 37.6863C189.08 37.5557 189.295 37.3877 189.453 37.1823L190.587 37.5183C190.335 37.9197 189.976 38.251 189.509 38.5123C189.043 38.7737 188.483 38.9043 187.829 38.9043ZM185.701 34.6483H189.789C189.789 34.3217 189.705 34.009 189.537 33.7103C189.379 33.4117 189.15 33.169 188.851 32.9823C188.562 32.7863 188.212 32.6883 187.801 32.6883C187.456 32.6883 187.129 32.7537 186.821 32.8843C186.513 33.015 186.257 33.225 186.051 33.5143C185.855 33.8037 185.739 34.1817 185.701 34.6483ZM194.956 38.9043C194.433 38.9043 193.943 38.7643 193.486 38.4843C193.029 38.195 192.66 37.7843 192.38 37.2523C192.109 36.711 191.974 36.0577 191.974 35.2923C191.974 34.527 192.109 33.8783 192.38 33.3463C192.66 32.805 193.029 32.3943 193.486 32.1143C193.943 31.825 194.433 31.6803 194.956 31.6803C195.507 31.6803 195.969 31.7923 196.342 32.0163C196.715 32.231 197.005 32.5203 197.21 32.8843V29.3843H198.386V36.1183C198.386 36.3517 198.395 36.697 198.414 37.1543C198.433 37.6023 198.503 38.1297 198.624 38.7363H197.518L197.21 37.6863C197.005 38.0597 196.715 38.3583 196.342 38.5823C195.969 38.797 195.507 38.9043 194.956 38.9043ZM195.264 37.8963C195.861 37.8963 196.337 37.6677 196.692 37.2103C197.056 36.753 197.238 36.1137 197.238 35.2923C197.238 34.4617 197.056 33.8223 196.692 33.3743C196.337 32.917 195.861 32.6883 195.264 32.6883C194.667 32.6883 194.186 32.917 193.822 33.3743C193.467 33.8223 193.29 34.4617 193.29 35.2923C193.29 36.1137 193.467 36.753 193.822 37.2103C194.186 37.6677 194.667 37.8963 195.264 37.8963Z" fill="#131619"/>
<path d="M120.125 29.8862V40.4507H67.7974V29.8862H120.125Z" stroke="#131619" stroke-width="0.5" stroke-linecap="square"/>
<path d="M62.1094 19.1334L93.1165 19.1334M93.1165 19.1334L93.1165 29.7464M93.1165 19.1334L125.477 19.1334" stroke="#131619" stroke-width="0.5"/>
<path d="M67.5754 46.3883H68.0754V46.8883H67.5754V46.3883ZM0.5 46.8883C0.223862 46.8883 0 46.6644 0 46.3883C0 46.1121 0.223862 45.8883 0.5 45.8883V46.3883V46.8883ZM0.549179 45.8883C0.825317 45.8883 1.04918 46.1121 1.04918 46.3883C1.04918 46.6644 0.825317 46.8883 0.549179 46.8883V46.3883V45.8883ZM3.49971 46.8883C3.22356 46.8883 2.99971 46.6644 2.99971 46.3883C2.99971 46.1121 3.22356 45.8883 3.49971 45.8883V46.3883V46.8883ZM3.59806 45.8883C3.8742 45.8883 4.09806 46.1121 4.09806 46.3883C4.09806 46.6644 3.8742 46.8883 3.59806 46.8883V46.3883V45.8883ZM6.54859 46.8883C6.27245 46.8883 6.04859 46.6644 6.04859 46.3883C6.04859 46.1121 6.27245 45.8883 6.54859 45.8883V46.3883V46.8883ZM6.64694 45.8883C6.92308 45.8883 7.14694 46.1121 7.14694 46.3883C7.14694 46.6644 6.92308 46.8883 6.64694 46.8883V46.3883V45.8883ZM9.59748 46.8883C9.32133 46.8883 9.09748 46.6644 9.09748 46.3883C9.09748 46.1121 9.32133 45.8883 9.59748 45.8883V46.3883V46.8883ZM9.69583 45.8883C9.97197 45.8883 10.1958 46.1121 10.1958 46.3883C10.1958 46.6644 9.97197 46.8883 9.69583 46.8883V46.3883V45.8883ZM12.6464 46.8883C12.3702 46.8883 12.1464 46.6644 12.1464 46.3883C12.1464 46.1121 12.3702 45.8883 12.6464 45.8883V46.3883V46.8883ZM12.7447 45.8883C13.0209 45.8883 13.2447 46.1121 13.2447 46.3883C13.2447 46.6644 13.0209 46.8883 12.7447 46.8883V46.3883V45.8883ZM15.6952 46.8883C15.4191 46.8883 15.1952 46.6644 15.1952 46.3883C15.1952 46.1121 15.4191 45.8883 15.6952 45.8883V46.3883V46.8883ZM15.7936 45.8883C16.0697 45.8883 16.2936 46.1121 16.2936 46.3883C16.2936 46.6644 16.0697 46.8883 15.7936 46.8883V46.3883V45.8883ZM18.7441 46.8883C18.468 46.8883 18.2441 46.6644 18.2441 46.3883C18.2441 46.1121 18.468 45.8883 18.7441 45.8883V46.3883V46.8883ZM18.8425 45.8883C19.1186 45.8883 19.3425 46.1121 19.3425 46.3883C19.3425 46.6644 19.1186 46.8883 18.8425 46.8883V46.3883V45.8883ZM21.793 46.8883C21.5169 46.8883 21.293 46.6644 21.293 46.3883C21.293 46.1121 21.5169 45.8883 21.793 45.8883V46.3883V46.8883ZM21.8914 45.8883C22.1675 45.8883 22.3914 46.1121 22.3914 46.3883C22.3914 46.6644 22.1675 46.8883 21.8914 46.8883V46.3883V45.8883ZM24.8419 46.8883C24.5658 46.8883 24.3419 46.6644 24.3419 46.3883C24.3419 46.1121 24.5658 45.8883 24.8419 45.8883V46.3883V46.8883ZM24.9402 45.8883C25.2164 45.8883 25.4402 46.1121 25.4402 46.3883C25.4402 46.6644 25.2164 46.8883 24.9402 46.8883V46.3883V45.8883ZM27.8908 46.8883C27.6146 46.8883 27.3908 46.6644 27.3908 46.3883C27.3908 46.1121 27.6146 45.8883 27.8908 45.8883V46.3883V46.8883ZM27.9891 45.8883C28.2653 45.8883 28.4891 46.1121 28.4891 46.3883C28.4891 46.6644 28.2653 46.8883 27.9891 46.8883V46.3883V45.8883ZM30.9397 46.8883C30.6635 46.8883 30.4397 46.6644 30.4397 46.3883C30.4397 46.1121 30.6635 45.8883 30.9397 45.8883V46.3883V46.8883ZM31.038 45.8883C31.3142 45.8883 31.538 46.1121 31.538 46.3883C31.538 46.6644 31.3142 46.8883 31.038 46.8883V46.3883V45.8883ZM33.9885 46.8883C33.7124 46.8883 33.4885 46.6644 33.4885 46.3883C33.4885 46.1121 33.7124 45.8883 33.9885 45.8883V46.3883V46.8883ZM34.0869 45.8883C34.363 45.8883 34.5869 46.1121 34.5869 46.3883C34.5869 46.6644 34.363 46.8883 34.0869 46.8883V46.3883V45.8883ZM37.0374 46.8883C36.7613 46.8883 36.5374 46.6644 36.5374 46.3883C36.5374 46.1121 36.7613 45.8883 37.0374 45.8883V46.3883V46.8883ZM37.1358 45.8883C37.4119 45.8883 37.6358 46.1121 37.6358 46.3883C37.6358 46.6644 37.4119 46.8883 37.1358 46.8883V46.3883V45.8883ZM40.0863 46.8883C39.8102 46.8883 39.5863 46.6644 39.5863 46.3883C39.5863 46.1121 39.8102 45.8883 40.0863 45.8883V46.3883V46.8883ZM40.1847 45.8883C40.4608 45.8883 40.6847 46.1121 40.6847 46.3883C40.6847 46.6644 40.4608 46.8883 40.1847 46.8883V46.3883V45.8883ZM43.1352 46.8883C42.859 46.8883 42.6352 46.6644 42.6352 46.3883C42.6352 46.1121 42.859 45.8883 43.1352 45.8883V46.3883V46.8883ZM43.2335 45.8883C43.5097 45.8883 43.7335 46.1121 43.7335 46.3883C43.7335 46.6644 43.5097 46.8883 43.2335 46.8883V46.3883V45.8883ZM46.1841 46.8883C45.9079 46.8883 45.6841 46.6644 45.6841 46.3883C45.6841 46.1121 45.9079 45.8883 46.1841 45.8883V46.3883V46.8883ZM46.2824 45.8883C46.5586 45.8883 46.7824 46.1121 46.7824 46.3883C46.7824 46.6644 46.5586 46.8883 46.2824 46.8883V46.3883V45.8883ZM49.233 46.8883C48.9568 46.8883 48.733 46.6644 48.733 46.3883C48.733 46.1121 48.9568 45.8883 49.233 45.8883V46.3883V46.8883ZM49.3313 45.8883C49.6074 45.8883 49.8313 46.1121 49.8313 46.3883C49.8313 46.6644 49.6074 46.8883 49.3313 46.8883V46.3883V45.8883ZM52.2818 46.8883C52.0057 46.8883 51.7818 46.6644 51.7818 46.3883C51.7818 46.1121 52.0057 45.8883 52.2818 45.8883V46.3883V46.8883ZM52.3802 45.8883C52.6563 45.8883 52.8802 46.1121 52.8802 46.3883C52.8802 46.6644 52.6563 46.8883 52.3802 46.8883V46.3883V45.8883ZM55.3307 46.8883C55.0546 46.8883 54.8307 46.6644 54.8307 46.3883C54.8307 46.1121 55.0546 45.8883 55.3307 45.8883V46.3883V46.8883ZM55.4291 45.8883C55.7052 45.8883 55.9291 46.1121 55.9291 46.3883C55.9291 46.6644 55.7052 46.8883 55.4291 46.8883V46.3883V45.8883ZM58.3796 46.8883C58.1035 46.8883 57.8796 46.6644 57.8796 46.3883C57.8796 46.1121 58.1035 45.8883 58.3796 45.8883V46.3883V46.8883ZM58.4779 45.8883C58.7541 45.8883 58.9779 46.1121 58.9779 46.3883C58.9779 46.6644 58.7541 46.8883 58.4779 46.8883V46.3883V45.8883ZM61.4285 46.8883C61.1523 46.8883 60.9285 46.6644 60.9285 46.3883C60.9285 46.1121 61.1523 45.8883 61.4285 45.8883V46.3883V46.8883ZM61.5268 45.8883C61.803 45.8883 62.0268 46.1121 62.0268 46.3883C62.0268 46.6644 61.803 46.8883 61.5268 46.8883V46.3883V45.8883ZM64.4774 46.8883C64.2012 46.8883 63.9774 46.6644 63.9774 46.3883C63.9774 46.1121 64.2012 45.8883 64.4774 45.8883V46.3883V46.8883ZM64.5757 45.8883C64.8519 45.8883 65.0757 46.1121 65.0757 46.3883C65.0757 46.6644 64.8519 46.8883 64.5757 46.8883V46.3883V45.8883ZM67.5262 46.8883C67.2501 46.8883 67.0262 46.6644 67.0262 46.3883C67.0262 46.1121 67.2501 45.8883 67.5262 45.8883V46.3883V46.8883ZM67.0754 46.3383C67.0754 46.0621 67.2993 45.8383 67.5754 45.8383C67.8516 45.8383 68.0754 46.0621 68.0754 46.3383H67.5754H67.0754ZM68.0754 43.34C68.0754 43.6161 67.8516 43.84 67.5754 43.84C67.2993 43.84 67.0754 43.6161 67.0754 43.34H67.5754H68.0754ZM67.0754 43.24C67.0754 42.9639 67.2993 42.74 67.5754 42.74C67.8516 42.74 68.0754 42.9639 68.0754 43.24H67.5754H67.0754ZM68.0754 40.2417C68.0754 40.5179 67.8516 40.7417 67.5754 40.7417C67.2993 40.7417 67.0754 40.5179 67.0754 40.2417H67.5754H68.0754ZM67.0754 40.1418C67.0754 39.8656 67.2993 39.6418 67.5754 39.6418C67.8516 39.6418 68.0754 39.8656 68.0754 40.1418H67.5754H67.0754ZM68.0754 37.1435C68.0754 37.4196 67.8516 37.6435 67.5754 37.6435C67.2993 37.6435 67.0754 37.4196 67.0754 37.1435H67.5754H68.0754ZM67.0754 37.0435C67.0754 36.7674 67.2993 36.5435 67.5754 36.5435C67.8516 36.5435 68.0754 36.7674 68.0754 37.0435H67.5754H67.0754ZM68.0754 34.0452C68.0754 34.3213 67.8516 34.5452 67.5754 34.5452C67.2993 34.5452 67.0754 34.3213 67.0754 34.0452H67.5754H68.0754ZM0.5 46.3883V45.8883H0.549179V46.3883V46.8883H0.5V46.3883ZM3.49971 46.3883V45.8883H3.59806V46.3883V46.8883H3.49971V46.3883ZM6.54859 46.3883V45.8883H6.64694V46.3883V46.8883H6.54859V46.3883ZM9.59748 46.3883V45.8883H9.69583V46.3883V46.8883H9.59748V46.3883ZM12.6464 46.3883V45.8883H12.7447V46.3883V46.8883H12.6464V46.3883ZM15.6952 46.3883V45.8883H15.7936V46.3883V46.8883H15.6952V46.3883ZM18.7441 46.3883V45.8883H18.8425V46.3883V46.8883H18.7441V46.3883ZM21.793 46.3883V45.8883H21.8914V46.3883V46.8883H21.793V46.3883ZM24.8419 46.3883V45.8883H24.9402V46.3883V46.8883H24.8419V46.3883ZM27.8908 46.3883V45.8883H27.9891V46.3883V46.8883H27.8908V46.3883ZM30.9397 46.3883V45.8883H31.038V46.3883V46.8883H30.9397V46.3883ZM33.9885 46.3883V45.8883H34.0869V46.3883V46.8883H33.9885V46.3883ZM37.0374 46.3883V45.8883H37.1358V46.3883V46.8883H37.0374V46.3883ZM40.0863 46.3883V45.8883H40.1847V46.3883V46.8883H40.0863V46.3883ZM43.1352 46.3883V45.8883H43.2335V46.3883V46.8883H43.1352V46.3883ZM46.1841 46.3883V45.8883H46.2824V46.3883V46.8883H46.1841V46.3883ZM49.233 46.3883V45.8883H49.3313V46.3883V46.8883H49.233V46.3883ZM52.2818 46.3883V45.8883H52.3802V46.3883V46.8883H52.2818V46.3883ZM55.3307 46.3883V45.8883H55.4291V46.3883V46.8883H55.3307V46.3883ZM58.3796 46.3883V45.8883H58.4779V46.3883V46.8883H58.3796V46.3883ZM61.4285 46.3883V45.8883H61.5268V46.3883V46.8883H61.4285V46.3883ZM64.4774 46.3883V45.8883H64.5757V46.3883V46.8883H64.4774V46.3883ZM67.5262 46.3883V45.8883H67.5754V46.3883V46.8883H67.5262V46.3883ZM67.5754 46.3883H67.0754V46.3383H67.5754H68.0754V46.3883H67.5754ZM67.5754 43.34H67.0754V43.24H67.5754H68.0754V43.34H67.5754ZM67.5754 40.2417H67.0754V40.1418H67.5754H68.0754V40.2417H67.5754ZM67.5754 37.1435H67.0754V37.0435H67.5754H68.0754V37.1435H67.5754ZM67.5754 34.0452H67.0754V33.9952H67.5754H68.0754V34.0452H67.5754Z" fill="#131619"/>
<path d="M120.69 46.3873H120.44V46.6373L120.69 46.6373L120.69 46.3873ZM199.14 46.6382C199.278 46.6382 199.39 46.5263 199.39 46.3882C199.39 46.2501 199.278 46.1382 199.14 46.1382V46.3882V46.6382ZM197.203 46.1382C197.065 46.1382 196.953 46.2501 196.953 46.3882C196.953 46.5262 197.065 46.6382 197.203 46.6382L197.203 46.3882V46.1382ZM192.361 46.6381C192.499 46.6381 192.611 46.5262 192.611 46.3881C192.611 46.25 192.499 46.1381 192.361 46.1381V46.3881V46.6381ZM188.487 46.1381C188.349 46.1381 188.237 46.25 188.237 46.3881C188.237 46.5261 188.349 46.6381 188.487 46.6381L188.487 46.3881V46.1381ZM183.644 46.638C183.782 46.638 183.894 46.5261 183.894 46.388C183.894 46.2499 183.782 46.138 183.644 46.138V46.388L183.644 46.638ZM179.77 46.138C179.632 46.138 179.52 46.2499 179.52 46.388C179.52 46.526 179.632 46.638 179.77 46.638L179.77 46.388L179.77 46.138ZM174.927 46.6379C175.066 46.6379 175.177 46.526 175.177 46.3879C175.177 46.2498 175.066 46.1379 174.927 46.1379L174.927 46.3879L174.927 46.6379ZM171.053 46.1379C170.915 46.1379 170.803 46.2498 170.803 46.3879C170.803 46.5259 170.915 46.6379 171.053 46.6379V46.3879L171.053 46.1379ZM166.211 46.6378C166.349 46.6378 166.461 46.5259 166.461 46.3878C166.461 46.2497 166.349 46.1378 166.211 46.1378L166.211 46.3878L166.211 46.6378ZM162.337 46.1378C162.199 46.1378 162.087 46.2497 162.087 46.3878C162.087 46.5258 162.199 46.6378 162.337 46.6378L162.337 46.3878L162.337 46.1378ZM157.494 46.6377C157.632 46.6377 157.744 46.5258 157.744 46.3877C157.744 46.2496 157.632 46.1377 157.494 46.1377L157.494 46.3877V46.6377ZM153.62 46.1377C153.482 46.1377 153.37 46.2496 153.37 46.3877C153.37 46.5257 153.482 46.6377 153.62 46.6377L153.62 46.3877L153.62 46.1377ZM148.777 46.6376C148.916 46.6376 149.027 46.5257 149.027 46.3876C149.027 46.2495 148.916 46.1376 148.777 46.1376L148.777 46.3876L148.777 46.6376ZM144.903 46.1376C144.765 46.1376 144.653 46.2495 144.653 46.3876C144.653 46.5256 144.765 46.6376 144.903 46.6376L144.903 46.3876L144.903 46.1376ZM140.061 46.6375C140.199 46.6375 140.311 46.5256 140.311 46.3875C140.311 46.2494 140.199 46.1375 140.061 46.1375L140.061 46.3875L140.061 46.6375ZM136.187 46.1375C136.049 46.1375 135.937 46.2494 135.937 46.3874C135.937 46.5255 136.049 46.6375 136.187 46.6375L136.187 46.3875L136.187 46.1375ZM131.344 46.6374C131.482 46.6374 131.594 46.5255 131.594 46.3874C131.594 46.2493 131.482 46.1374 131.344 46.1374L131.344 46.3874L131.344 46.6374ZM127.47 46.1374C127.332 46.1373 127.22 46.2493 127.22 46.3873C127.22 46.5254 127.332 46.6373 127.47 46.6374L127.47 46.3874L127.47 46.1374ZM122.627 46.6373C122.766 46.6373 122.877 46.5254 122.877 46.3873C122.877 46.2492 122.766 46.1373 122.627 46.1373L122.627 46.3873L122.627 46.6373ZM120.94 44.9524C120.94 44.8144 120.829 44.7024 120.69 44.7024C120.552 44.7024 120.44 44.8144 120.44 44.9524H120.69H120.94ZM120.44 41.3653C120.44 41.5034 120.552 41.6153 120.69 41.6153C120.829 41.6153 120.94 41.5034 120.94 41.3653H120.69H120.44ZM199.14 46.3882V46.1382L197.203 46.1382V46.3882L197.203 46.6382L199.14 46.6382V46.3882ZM192.361 46.3881V46.1381L188.487 46.1381V46.3881L188.487 46.6381L192.361 46.6381V46.3881ZM183.644 46.388V46.138L179.77 46.138L179.77 46.388L179.77 46.638L183.644 46.638L183.644 46.388ZM174.927 46.3879L174.927 46.1379L171.053 46.1379L171.053 46.3879V46.6379L174.927 46.6379L174.927 46.3879ZM166.211 46.3878L166.211 46.1378L162.337 46.1378L162.337 46.3878L162.337 46.6378L166.211 46.6378L166.211 46.3878ZM157.494 46.3877L157.494 46.1377L153.62 46.1377L153.62 46.3877L153.62 46.6377L157.494 46.6377V46.3877ZM148.777 46.3876L148.777 46.1376L144.903 46.1376L144.903 46.3876L144.903 46.6376L148.777 46.6376L148.777 46.3876ZM140.061 46.3875L140.061 46.1375L136.187 46.1375L136.187 46.3875L136.187 46.6375L140.061 46.6375L140.061 46.3875ZM131.344 46.3874L131.344 46.1374L127.47 46.1374L127.47 46.3874L127.47 46.6374L131.344 46.6374L131.344 46.3874ZM122.627 46.3873L122.627 46.1373L120.69 46.1373L120.69 46.3873L120.69 46.6373L122.627 46.6373L122.627 46.3873ZM120.69 46.3873H120.94V44.9524H120.69H120.44V46.3873H120.69ZM120.69 41.3653H120.94V39.9305H120.69H120.44V41.3653H120.69Z" fill="#131619"/>
<circle cx="67.5474" cy="35.186" r="4.76465" fill="white" stroke="#131619" stroke-width="1.5"/>
</svg>
