<svg width="203" height="54" viewBox="0 0 203 54" fill="none" xmlns="http://www.w3.org/2000/svg">
<path d="M144.821 49.5645V40.5H146.093V51H144.931L144.821 49.5645ZM139.845 47.3838V47.2402C139.845 46.6751 139.913 46.1624 140.05 45.7021C140.191 45.2373 140.389 44.8385 140.645 44.5059C140.904 44.1732 141.212 43.918 141.567 43.7402C141.927 43.5579 142.328 43.4668 142.771 43.4668C143.235 43.4668 143.641 43.5488 143.987 43.7129C144.338 43.8724 144.634 44.1071 144.876 44.417C145.122 44.7223 145.316 45.0915 145.457 45.5244C145.598 45.9574 145.696 46.4473 145.751 46.9941V47.623C145.701 48.1654 145.603 48.653 145.457 49.0859C145.316 49.5189 145.122 49.888 144.876 50.1934C144.634 50.4987 144.338 50.7334 143.987 50.8975C143.636 51.057 143.226 51.1367 142.757 51.1367C142.324 51.1367 141.927 51.0433 141.567 50.8564C141.212 50.6696 140.904 50.4076 140.645 50.0703C140.389 49.7331 140.191 49.3366 140.05 48.8809C139.913 48.4206 139.845 47.9215 139.845 47.3838ZM141.116 47.2402V47.3838C141.116 47.7529 141.153 48.0993 141.226 48.4229C141.303 48.7464 141.422 49.0312 141.581 49.2773C141.741 49.5234 141.943 49.7171 142.189 49.8584C142.436 49.9951 142.729 50.0635 143.071 50.0635C143.491 50.0635 143.835 49.9746 144.104 49.7969C144.377 49.6191 144.596 49.3844 144.76 49.0928C144.924 48.8011 145.051 48.4844 145.143 48.1426V46.4951C145.088 46.2445 145.008 46.0029 144.903 45.7705C144.803 45.5335 144.671 45.3239 144.507 45.1416C144.347 44.9548 144.149 44.8066 143.912 44.6973C143.68 44.5879 143.404 44.5332 143.085 44.5332C142.739 44.5332 142.44 44.6061 142.189 44.752C141.943 44.8932 141.741 45.0892 141.581 45.3398C141.422 45.5859 141.303 45.873 141.226 46.2012C141.153 46.5247 141.116 46.8711 141.116 47.2402ZM149.436 43.6035V51H148.164V43.6035H149.436ZM148.068 41.6416C148.068 41.4365 148.13 41.2633 148.253 41.1221C148.381 40.9808 148.567 40.9102 148.813 40.9102C149.055 40.9102 149.24 40.9808 149.367 41.1221C149.499 41.2633 149.565 41.4365 149.565 41.6416C149.565 41.8376 149.499 42.0062 149.367 42.1475C149.24 42.2842 149.055 42.3525 148.813 42.3525C148.567 42.3525 148.381 42.2842 148.253 42.1475C148.13 42.0062 148.068 41.8376 148.068 41.6416ZM153.353 51H152.088V42.8242C152.088 42.291 152.184 41.8421 152.375 41.4775C152.571 41.1084 152.851 40.8304 153.216 40.6436C153.58 40.4521 154.013 40.3564 154.515 40.3564C154.66 40.3564 154.806 40.3656 154.952 40.3838C155.103 40.402 155.248 40.4294 155.39 40.4658L155.321 41.498C155.226 41.4753 155.116 41.4593 154.993 41.4502C154.875 41.4411 154.756 41.4365 154.638 41.4365C154.369 41.4365 154.136 41.4912 153.94 41.6006C153.749 41.7054 153.603 41.8604 153.503 42.0654C153.403 42.2705 153.353 42.5234 153.353 42.8242V51ZM154.925 43.6035V44.5742H150.919V43.6035H154.925ZM158.22 51H156.955V42.8242C156.955 42.291 157.051 41.8421 157.242 41.4775C157.438 41.1084 157.718 40.8304 158.083 40.6436C158.448 40.4521 158.881 40.3564 159.382 40.3564C159.528 40.3564 159.674 40.3656 159.819 40.3838C159.97 40.402 160.116 40.4294 160.257 40.4658L160.188 41.498C160.093 41.4753 159.983 41.4593 159.86 41.4502C159.742 41.4411 159.623 41.4365 159.505 41.4365C159.236 41.4365 159.004 41.4912 158.808 41.6006C158.616 41.7054 158.47 41.8604 158.37 42.0654C158.27 42.2705 158.22 42.5234 158.22 42.8242V51ZM159.792 43.6035V44.5742H155.786V43.6035H159.792ZM164.105 51.1367C163.59 51.1367 163.123 51.0501 162.704 50.877C162.289 50.6992 161.932 50.4508 161.631 50.1318C161.335 49.8128 161.107 49.4346 160.947 48.9971C160.788 48.5596 160.708 48.0811 160.708 47.5615V47.2744C160.708 46.6729 160.797 46.1374 160.975 45.668C161.152 45.194 161.394 44.793 161.699 44.4648C162.005 44.1367 162.351 43.8883 162.738 43.7197C163.126 43.5511 163.527 43.4668 163.941 43.4668C164.47 43.4668 164.926 43.5579 165.309 43.7402C165.696 43.9225 166.013 44.1777 166.259 44.5059C166.505 44.8294 166.687 45.2122 166.806 45.6543C166.924 46.0918 166.983 46.5703 166.983 47.0898V47.6572H161.46V46.625H165.719V46.5293C165.701 46.2012 165.632 45.8822 165.514 45.5723C165.4 45.2624 165.217 45.0072 164.967 44.8066C164.716 44.6061 164.374 44.5059 163.941 44.5059C163.654 44.5059 163.39 44.5674 163.148 44.6904C162.907 44.8089 162.7 44.9867 162.526 45.2236C162.353 45.4606 162.219 45.75 162.123 46.0918C162.027 46.4336 161.979 46.8278 161.979 47.2744V47.5615C161.979 47.9124 162.027 48.2428 162.123 48.5527C162.223 48.8581 162.367 49.127 162.554 49.3594C162.745 49.5918 162.975 49.7741 163.244 49.9062C163.518 50.0384 163.827 50.1045 164.174 50.1045C164.62 50.1045 164.999 50.0133 165.309 49.8311C165.618 49.6488 165.89 49.4049 166.122 49.0996L166.888 49.708C166.728 49.9495 166.525 50.1797 166.279 50.3984C166.033 50.6172 165.73 50.7949 165.37 50.9316C165.015 51.0684 164.593 51.1367 164.105 51.1367ZM169.725 44.7656V51H168.46V43.6035H169.69L169.725 44.7656ZM172.035 43.5625L172.028 44.7383C171.924 44.7155 171.823 44.7018 171.728 44.6973C171.636 44.6882 171.532 44.6836 171.413 44.6836C171.121 44.6836 170.864 44.7292 170.641 44.8203C170.417 44.9115 170.228 45.0391 170.073 45.2031C169.918 45.3672 169.795 45.5632 169.704 45.791C169.618 46.0143 169.561 46.2604 169.533 46.5293L169.178 46.7344C169.178 46.2878 169.221 45.8685 169.308 45.4766C169.399 45.0846 169.538 44.7383 169.725 44.4375C169.911 44.1322 170.148 43.8952 170.436 43.7266C170.727 43.5534 171.074 43.4668 171.475 43.4668C171.566 43.4668 171.671 43.4782 171.789 43.501C171.908 43.5192 171.99 43.5397 172.035 43.5625ZM176.137 51.1367C175.622 51.1367 175.155 51.0501 174.735 50.877C174.321 50.6992 173.963 50.4508 173.662 50.1318C173.366 49.8128 173.138 49.4346 172.979 48.9971C172.819 48.5596 172.739 48.0811 172.739 47.5615V47.2744C172.739 46.6729 172.828 46.1374 173.006 45.668C173.184 45.194 173.425 44.793 173.73 44.4648C174.036 44.1367 174.382 43.8883 174.77 43.7197C175.157 43.5511 175.558 43.4668 175.973 43.4668C176.501 43.4668 176.957 43.5579 177.34 43.7402C177.727 43.9225 178.044 44.1777 178.29 44.5059C178.536 44.8294 178.718 45.2122 178.837 45.6543C178.955 46.0918 179.015 46.5703 179.015 47.0898V47.6572H173.491V46.625H177.75V46.5293C177.732 46.2012 177.663 45.8822 177.545 45.5723C177.431 45.2624 177.249 45.0072 176.998 44.8066C176.747 44.6061 176.406 44.5059 175.973 44.5059C175.686 44.5059 175.421 44.5674 175.18 44.6904C174.938 44.8089 174.731 44.9867 174.558 45.2236C174.384 45.4606 174.25 45.75 174.154 46.0918C174.059 46.4336 174.011 46.8278 174.011 47.2744V47.5615C174.011 47.9124 174.059 48.2428 174.154 48.5527C174.255 48.8581 174.398 49.127 174.585 49.3594C174.776 49.5918 175.007 49.7741 175.275 49.9062C175.549 50.0384 175.859 50.1045 176.205 50.1045C176.652 50.1045 177.03 50.0133 177.34 49.8311C177.65 49.6488 177.921 49.4049 178.153 49.0996L178.919 49.708C178.759 49.9495 178.557 50.1797 178.311 50.3984C178.064 50.6172 177.761 50.7949 177.401 50.9316C177.046 51.0684 176.624 51.1367 176.137 51.1367ZM181.756 45.1826V51H180.491V43.6035H181.688L181.756 45.1826ZM181.455 47.0215L180.929 47.001C180.933 46.4951 181.008 46.028 181.154 45.5996C181.3 45.1667 181.505 44.7907 181.77 44.4717C182.034 44.1527 182.348 43.9066 182.713 43.7334C183.082 43.5557 183.49 43.4668 183.937 43.4668C184.301 43.4668 184.629 43.5169 184.921 43.6172C185.213 43.7129 185.461 43.8678 185.666 44.082C185.876 44.2962 186.035 44.5742 186.145 44.916C186.254 45.2533 186.309 45.6657 186.309 46.1533V51H185.037V46.1396C185.037 45.7523 184.98 45.4424 184.866 45.21C184.752 44.973 184.586 44.8021 184.367 44.6973C184.148 44.5879 183.88 44.5332 183.561 44.5332C183.246 44.5332 182.959 44.5993 182.699 44.7314C182.444 44.8636 182.223 45.0459 182.036 45.2783C181.854 45.5107 181.71 45.7773 181.605 46.0781C181.505 46.3743 181.455 46.6888 181.455 47.0215ZM191.189 50.0977C191.49 50.0977 191.768 50.0361 192.023 49.9131C192.279 49.79 192.488 49.6214 192.652 49.4072C192.816 49.1885 192.91 48.9401 192.933 48.6621H194.136C194.113 49.0996 193.965 49.5075 193.691 49.8857C193.423 50.2594 193.069 50.5625 192.632 50.7949C192.194 51.0228 191.714 51.1367 191.189 51.1367C190.633 51.1367 190.148 51.0387 189.733 50.8428C189.323 50.6468 188.981 50.3779 188.708 50.0361C188.439 49.6943 188.236 49.3024 188.1 48.8604C187.967 48.4137 187.901 47.9421 187.901 47.4453V47.1582C187.901 46.6615 187.967 46.1921 188.1 45.75C188.236 45.3034 188.439 44.9092 188.708 44.5674C188.981 44.2256 189.323 43.9567 189.733 43.7607C190.148 43.5648 190.633 43.4668 191.189 43.4668C191.768 43.4668 192.274 43.5853 192.707 43.8223C193.14 44.0547 193.479 44.3737 193.726 44.7793C193.976 45.1803 194.113 45.6361 194.136 46.1465H192.933C192.91 45.8411 192.823 45.5654 192.673 45.3193C192.527 45.0732 192.326 44.8773 192.071 44.7314C191.821 44.5811 191.527 44.5059 191.189 44.5059C190.802 44.5059 190.476 44.5833 190.212 44.7383C189.952 44.8887 189.745 45.0938 189.59 45.3535C189.439 45.6087 189.33 45.8936 189.262 46.208C189.198 46.5179 189.166 46.8346 189.166 47.1582V47.4453C189.166 47.7689 189.198 48.0879 189.262 48.4023C189.326 48.7168 189.433 49.0016 189.583 49.2568C189.738 49.512 189.945 49.7171 190.205 49.8721C190.469 50.0225 190.798 50.0977 191.189 50.0977ZM198.627 51.1367C198.112 51.1367 197.645 51.0501 197.226 50.877C196.811 50.6992 196.453 50.4508 196.152 50.1318C195.856 49.8128 195.628 49.4346 195.469 48.9971C195.309 48.5596 195.229 48.0811 195.229 47.5615V47.2744C195.229 46.6729 195.318 46.1374 195.496 45.668C195.674 45.194 195.915 44.793 196.221 44.4648C196.526 44.1367 196.872 43.8883 197.26 43.7197C197.647 43.5511 198.048 43.4668 198.463 43.4668C198.992 43.4668 199.447 43.5579 199.83 43.7402C200.217 43.9225 200.534 44.1777 200.78 44.5059C201.026 44.8294 201.209 45.2122 201.327 45.6543C201.446 46.0918 201.505 46.5703 201.505 47.0898V47.6572H195.981V46.625H200.24V46.5293C200.222 46.2012 200.154 45.8822 200.035 45.5723C199.921 45.2624 199.739 45.0072 199.488 44.8066C199.238 44.6061 198.896 44.5059 198.463 44.5059C198.176 44.5059 197.911 44.5674 197.67 44.6904C197.428 44.8089 197.221 44.9867 197.048 45.2236C196.875 45.4606 196.74 45.75 196.645 46.0918C196.549 46.4336 196.501 46.8278 196.501 47.2744V47.5615C196.501 47.9124 196.549 48.2428 196.645 48.5527C196.745 48.8581 196.888 49.127 197.075 49.3594C197.267 49.5918 197.497 49.7741 197.766 49.9062C198.039 50.0384 198.349 50.1045 198.695 50.1045C199.142 50.1045 199.52 50.0133 199.83 49.8311C200.14 49.6488 200.411 49.4049 200.644 49.0996L201.409 49.708C201.25 49.9495 201.047 50.1797 200.801 50.3984C200.555 50.6172 200.252 50.7949 199.892 50.9316C199.536 51.0684 199.115 51.1367 198.627 51.1367Z" fill="#131619"/>
<path d="M5.67773 11.5645V2.5H6.94922V13H5.78711L5.67773 11.5645ZM0.701172 9.38379V9.24023C0.701172 8.67513 0.769531 8.16243 0.90625 7.70215C1.04753 7.2373 1.24577 6.83854 1.50098 6.50586C1.76074 6.17318 2.06836 5.91797 2.42383 5.74023C2.78385 5.55794 3.1849 5.4668 3.62695 5.4668C4.0918 5.4668 4.4974 5.54883 4.84375 5.71289C5.19466 5.8724 5.49089 6.1071 5.73242 6.41699C5.97852 6.72233 6.1722 7.09147 6.31348 7.52441C6.45475 7.95736 6.55273 8.44727 6.60742 8.99414V9.62305C6.55729 10.1654 6.45931 10.653 6.31348 11.0859C6.1722 11.5189 5.97852 11.888 5.73242 12.1934C5.49089 12.4987 5.19466 12.7334 4.84375 12.8975C4.49284 13.057 4.08268 13.1367 3.61328 13.1367C3.18034 13.1367 2.78385 13.0433 2.42383 12.8564C2.06836 12.6696 1.76074 12.4076 1.50098 12.0703C1.24577 11.7331 1.04753 11.3366 0.90625 10.8809C0.769531 10.4206 0.701172 9.92155 0.701172 9.38379ZM1.97266 9.24023V9.38379C1.97266 9.75293 2.00911 10.0993 2.08203 10.4229C2.15951 10.7464 2.27799 11.0312 2.4375 11.2773C2.59701 11.5234 2.7998 11.7171 3.0459 11.8584C3.29199 11.9951 3.58594 12.0635 3.92773 12.0635C4.34701 12.0635 4.69108 11.9746 4.95996 11.7969C5.2334 11.6191 5.45215 11.3844 5.61621 11.0928C5.78027 10.8011 5.90788 10.4844 5.99902 10.1426V8.49512C5.94434 8.24447 5.86458 8.00293 5.75977 7.77051C5.65951 7.53353 5.52734 7.32389 5.36328 7.1416C5.20378 6.95475 5.00553 6.80664 4.76855 6.69727C4.53613 6.58789 4.26042 6.5332 3.94141 6.5332C3.59505 6.5332 3.29655 6.60612 3.0459 6.75195C2.7998 6.89323 2.59701 7.08919 2.4375 7.33984C2.27799 7.58594 2.15951 7.87305 2.08203 8.20117C2.00911 8.52474 1.97266 8.87109 1.97266 9.24023ZM11.9873 13.1367C11.4723 13.1367 11.0052 13.0501 10.5859 12.877C10.1712 12.6992 9.81348 12.4508 9.5127 12.1318C9.21647 11.8128 8.98861 11.4346 8.8291 10.9971C8.6696 10.5596 8.58984 10.0811 8.58984 9.56152V9.27441C8.58984 8.67285 8.67871 8.13737 8.85645 7.66797C9.03418 7.19401 9.27572 6.79297 9.58105 6.46484C9.88639 6.13672 10.2327 5.88835 10.6201 5.71973C11.0075 5.55111 11.4085 5.4668 11.8232 5.4668C12.3519 5.4668 12.8076 5.55794 13.1904 5.74023C13.5778 5.92253 13.8945 6.17773 14.1406 6.50586C14.3867 6.82943 14.569 7.21224 14.6875 7.6543C14.806 8.0918 14.8652 8.57031 14.8652 9.08984V9.65723H9.3418V8.625H13.6006V8.5293C13.5824 8.20117 13.514 7.88216 13.3955 7.57227C13.2816 7.26237 13.0993 7.00716 12.8486 6.80664C12.598 6.60612 12.2562 6.50586 11.8232 6.50586C11.5361 6.50586 11.2718 6.56738 11.0303 6.69043C10.7887 6.80892 10.5814 6.98665 10.4082 7.22363C10.235 7.46061 10.1006 7.75 10.0049 8.0918C9.90918 8.43359 9.86133 8.8278 9.86133 9.27441V9.56152C9.86133 9.91243 9.90918 10.2428 10.0049 10.5527C10.1051 10.8581 10.2487 11.127 10.4355 11.3594C10.627 11.5918 10.8571 11.7741 11.126 11.9062C11.3994 12.0384 11.7093 12.1045 12.0557 12.1045C12.5023 12.1045 12.8805 12.0133 13.1904 11.8311C13.5003 11.6488 13.7715 11.4049 14.0039 11.0996L14.7695 11.708C14.61 11.9495 14.4072 12.1797 14.1611 12.3984C13.915 12.6172 13.612 12.7949 13.252 12.9316C12.8965 13.0684 12.4749 13.1367 11.9873 13.1367ZM20.6484 11.0381C20.6484 10.8558 20.6074 10.6872 20.5254 10.5322C20.4479 10.3727 20.2861 10.2292 20.04 10.1016C19.7985 9.9694 19.4339 9.85547 18.9463 9.75977C18.5361 9.67318 18.1647 9.57064 17.832 9.45215C17.5039 9.33366 17.2236 9.1901 16.9912 9.02148C16.7633 8.85286 16.5879 8.65462 16.4648 8.42676C16.3418 8.19889 16.2803 7.93229 16.2803 7.62695C16.2803 7.33529 16.3441 7.05957 16.4717 6.7998C16.6038 6.54004 16.7884 6.3099 17.0254 6.10938C17.2669 5.90885 17.5563 5.75163 17.8936 5.6377C18.2308 5.52376 18.6068 5.4668 19.0215 5.4668C19.6139 5.4668 20.1198 5.57161 20.5391 5.78125C20.9583 5.99089 21.2796 6.27116 21.5029 6.62207C21.7262 6.96842 21.8379 7.35352 21.8379 7.77734H20.5732C20.5732 7.57227 20.5117 7.37402 20.3887 7.18262C20.2702 6.98665 20.0947 6.82487 19.8623 6.69727C19.6344 6.56966 19.3542 6.50586 19.0215 6.50586C18.6706 6.50586 18.3857 6.56055 18.167 6.66992C17.9528 6.77474 17.7956 6.90918 17.6953 7.07324C17.5996 7.2373 17.5518 7.41048 17.5518 7.59277C17.5518 7.72949 17.5745 7.85254 17.6201 7.96191C17.6702 8.06673 17.7568 8.16471 17.8799 8.25586C18.0029 8.34245 18.1761 8.42448 18.3994 8.50195C18.6227 8.57943 18.9076 8.6569 19.2539 8.73438C19.86 8.87109 20.359 9.03516 20.751 9.22656C21.1429 9.41797 21.4346 9.65267 21.626 9.93066C21.8174 10.2087 21.9131 10.5459 21.9131 10.9424C21.9131 11.266 21.8447 11.5622 21.708 11.8311C21.5758 12.0999 21.3822 12.3324 21.127 12.5283C20.8763 12.7197 20.5755 12.8701 20.2246 12.9795C19.8783 13.0843 19.4886 13.1367 19.0557 13.1367C18.404 13.1367 17.8525 13.0205 17.4014 12.7881C16.9502 12.5557 16.6084 12.2549 16.376 11.8857C16.1436 11.5166 16.0273 11.127 16.0273 10.7168H17.2988C17.3171 11.0632 17.4173 11.3389 17.5996 11.5439C17.7819 11.7445 18.0052 11.888 18.2695 11.9746C18.5339 12.0566 18.7959 12.0977 19.0557 12.0977C19.402 12.0977 19.6914 12.0521 19.9238 11.9609C20.1608 11.8698 20.3408 11.7445 20.4639 11.585C20.5869 11.4255 20.6484 11.2432 20.6484 11.0381ZM24.9482 5.60352V13H23.6768V5.60352H24.9482ZM23.5811 3.6416C23.5811 3.43652 23.6426 3.26335 23.7656 3.12207C23.8932 2.98079 24.0801 2.91016 24.3262 2.91016C24.5677 2.91016 24.7523 2.98079 24.8799 3.12207C25.012 3.26335 25.0781 3.43652 25.0781 3.6416C25.0781 3.83757 25.012 4.00618 24.8799 4.14746C24.7523 4.28418 24.5677 4.35254 24.3262 4.35254C24.0801 4.35254 23.8932 4.28418 23.7656 4.14746C23.6426 4.00618 23.5811 3.83757 23.5811 3.6416ZM28.2432 6.76562V13H26.9785V5.60352H28.209L28.2432 6.76562ZM30.5537 5.5625L30.5469 6.73828C30.4421 6.71549 30.3418 6.70182 30.2461 6.69727C30.1549 6.68815 30.0501 6.68359 29.9316 6.68359C29.64 6.68359 29.3825 6.72917 29.1592 6.82031C28.9359 6.91146 28.7467 7.03906 28.5918 7.20312C28.4368 7.36719 28.3138 7.56315 28.2227 7.79102C28.1361 8.01432 28.0791 8.26042 28.0518 8.5293L27.6963 8.73438C27.6963 8.28776 27.7396 7.86849 27.8262 7.47656C27.9173 7.08464 28.0563 6.73828 28.2432 6.4375C28.43 6.13216 28.667 5.89518 28.9541 5.72656C29.2458 5.55339 29.5921 5.4668 29.9932 5.4668C30.0843 5.4668 30.1891 5.47819 30.3076 5.50098C30.4261 5.51921 30.5081 5.53971 30.5537 5.5625ZM34.6553 13.1367C34.1403 13.1367 33.6732 13.0501 33.2539 12.877C32.8392 12.6992 32.4814 12.4508 32.1807 12.1318C31.8844 11.8128 31.6566 11.4346 31.4971 10.9971C31.3376 10.5596 31.2578 10.0811 31.2578 9.56152V9.27441C31.2578 8.67285 31.3467 8.13737 31.5244 7.66797C31.7021 7.19401 31.9437 6.79297 32.249 6.46484C32.5544 6.13672 32.9007 5.88835 33.2881 5.71973C33.6755 5.55111 34.0765 5.4668 34.4912 5.4668C35.0199 5.4668 35.4756 5.55794 35.8584 5.74023C36.2458 5.92253 36.5625 6.17773 36.8086 6.50586C37.0547 6.82943 37.237 7.21224 37.3555 7.6543C37.474 8.0918 37.5332 8.57031 37.5332 9.08984V9.65723H32.0098V8.625H36.2686V8.5293C36.2503 8.20117 36.182 7.88216 36.0635 7.57227C35.9495 7.26237 35.7673 7.00716 35.5166 6.80664C35.266 6.60612 34.9242 6.50586 34.4912 6.50586C34.2041 6.50586 33.9398 6.56738 33.6982 6.69043C33.4567 6.80892 33.2493 6.98665 33.0762 7.22363C32.903 7.46061 32.7686 7.75 32.6729 8.0918C32.5771 8.43359 32.5293 8.8278 32.5293 9.27441V9.56152C32.5293 9.91243 32.5771 10.2428 32.6729 10.5527C32.7731 10.8581 32.9167 11.127 33.1035 11.3594C33.2949 11.5918 33.5251 11.7741 33.7939 11.9062C34.0674 12.0384 34.3773 12.1045 34.7236 12.1045C35.1702 12.1045 35.5485 12.0133 35.8584 11.8311C36.1683 11.6488 36.4395 11.4049 36.6719 11.0996L37.4375 11.708C37.278 11.9495 37.0752 12.1797 36.8291 12.3984C36.583 12.6172 36.2799 12.7949 35.9199 12.9316C35.5645 13.0684 35.1429 13.1367 34.6553 13.1367ZM43.6719 11.5645V2.5H44.9434V13H43.7812L43.6719 11.5645ZM38.6953 9.38379V9.24023C38.6953 8.67513 38.7637 8.16243 38.9004 7.70215C39.0417 7.2373 39.2399 6.83854 39.4951 6.50586C39.7549 6.17318 40.0625 5.91797 40.418 5.74023C40.778 5.55794 41.179 5.4668 41.6211 5.4668C42.0859 5.4668 42.4915 5.54883 42.8379 5.71289C43.1888 5.8724 43.485 6.1071 43.7266 6.41699C43.9727 6.72233 44.1663 7.09147 44.3076 7.52441C44.4489 7.95736 44.5469 8.44727 44.6016 8.99414V9.62305C44.5514 10.1654 44.4535 10.653 44.3076 11.0859C44.1663 11.5189 43.9727 11.888 43.7266 12.1934C43.485 12.4987 43.1888 12.7334 42.8379 12.8975C42.487 13.057 42.0768 13.1367 41.6074 13.1367C41.1745 13.1367 40.778 13.0433 40.418 12.8564C40.0625 12.6696 39.7549 12.4076 39.4951 12.0703C39.2399 11.7331 39.0417 11.3366 38.9004 10.8809C38.7637 10.4206 38.6953 9.92155 38.6953 9.38379ZM39.9668 9.24023V9.38379C39.9668 9.75293 40.0033 10.0993 40.0762 10.4229C40.1536 10.7464 40.2721 11.0312 40.4316 11.2773C40.5911 11.5234 40.7939 11.7171 41.04 11.8584C41.2861 11.9951 41.5801 12.0635 41.9219 12.0635C42.3411 12.0635 42.6852 11.9746 42.9541 11.7969C43.2275 11.6191 43.4463 11.3844 43.6104 11.0928C43.7744 10.8011 43.902 10.4844 43.9932 10.1426V8.49512C43.9385 8.24447 43.8587 8.00293 43.7539 7.77051C43.6536 7.53353 43.5215 7.32389 43.3574 7.1416C43.1979 6.95475 42.9997 6.80664 42.7627 6.69727C42.5303 6.58789 42.2546 6.5332 41.9355 6.5332C41.5892 6.5332 41.2907 6.60612 41.04 6.75195C40.7939 6.89323 40.5911 7.08919 40.4316 7.33984C40.2721 7.58594 40.1536 7.87305 40.0762 8.20117C40.0033 8.52474 39.9668 8.87109 39.9668 9.24023Z" fill="#131619"/>
<path d="M94.3965 9.38379V9.22656C94.3965 8.69336 94.474 8.19889 94.6289 7.74316C94.7839 7.28288 95.0072 6.88411 95.2988 6.54688C95.5905 6.20508 95.9437 5.94076 96.3584 5.75391C96.7731 5.5625 97.238 5.4668 97.7529 5.4668C98.2725 5.4668 98.7396 5.5625 99.1543 5.75391C99.5736 5.94076 99.929 6.20508 100.221 6.54688C100.517 6.88411 100.743 7.28288 100.897 7.74316C101.052 8.19889 101.13 8.69336 101.13 9.22656V9.38379C101.13 9.91699 101.052 10.4115 100.897 10.8672C100.743 11.3229 100.517 11.7217 100.221 12.0635C99.929 12.4007 99.5758 12.665 99.1611 12.8564C98.751 13.0433 98.2861 13.1367 97.7666 13.1367C97.2471 13.1367 96.7799 13.0433 96.3652 12.8564C95.9505 12.665 95.5951 12.4007 95.2988 12.0635C95.0072 11.7217 94.7839 11.3229 94.6289 10.8672C94.474 10.4115 94.3965 9.91699 94.3965 9.38379ZM95.6611 9.22656V9.38379C95.6611 9.75293 95.7044 10.1016 95.791 10.4297C95.8776 10.7533 96.0075 11.0404 96.1807 11.291C96.3584 11.5417 96.5794 11.7399 96.8438 11.8857C97.1081 12.027 97.4157 12.0977 97.7666 12.0977C98.113 12.0977 98.416 12.027 98.6758 11.8857C98.9401 11.7399 99.1589 11.5417 99.332 11.291C99.5052 11.0404 99.6351 10.7533 99.7217 10.4297C99.8128 10.1016 99.8584 9.75293 99.8584 9.38379V9.22656C99.8584 8.86198 99.8128 8.5179 99.7217 8.19434C99.6351 7.86621 99.5029 7.57682 99.3252 7.32617C99.152 7.07096 98.9333 6.87044 98.6689 6.72461C98.4092 6.57878 98.1038 6.50586 97.7529 6.50586C97.4066 6.50586 97.1012 6.57878 96.8369 6.72461C96.5771 6.87044 96.3584 7.07096 96.1807 7.32617C96.0075 7.57682 95.8776 7.86621 95.791 8.19434C95.7044 8.5179 95.6611 8.86198 95.6611 9.22656ZM102.709 2.5H103.98V11.5645L103.871 13H102.709V2.5ZM108.978 9.24023V9.38379C108.978 9.92155 108.914 10.4206 108.786 10.8809C108.659 11.3366 108.472 11.7331 108.226 12.0703C107.979 12.4076 107.679 12.6696 107.323 12.8564C106.968 13.0433 106.56 13.1367 106.1 13.1367C105.63 13.1367 105.218 13.057 104.862 12.8975C104.511 12.7334 104.215 12.4987 103.974 12.1934C103.732 11.888 103.538 11.5189 103.393 11.0859C103.251 10.653 103.153 10.1654 103.099 9.62305V8.99414C103.153 8.44727 103.251 7.95736 103.393 7.52441C103.538 7.09147 103.732 6.72233 103.974 6.41699C104.215 6.1071 104.511 5.8724 104.862 5.71289C105.213 5.54883 105.621 5.4668 106.086 5.4668C106.551 5.4668 106.963 5.55794 107.323 5.74023C107.683 5.91797 107.984 6.17318 108.226 6.50586C108.472 6.83854 108.659 7.2373 108.786 7.70215C108.914 8.16243 108.978 8.67513 108.978 9.24023ZM107.706 9.38379V9.24023C107.706 8.87109 107.672 8.52474 107.604 8.20117C107.535 7.87305 107.426 7.58594 107.275 7.33984C107.125 7.08919 106.927 6.89323 106.681 6.75195C106.435 6.60612 106.132 6.5332 105.771 6.5332C105.452 6.5332 105.174 6.58789 104.938 6.69727C104.705 6.80664 104.507 6.95475 104.343 7.1416C104.179 7.32389 104.044 7.53353 103.939 7.77051C103.839 8.00293 103.764 8.24447 103.714 8.49512V10.1426C103.787 10.4616 103.905 10.7692 104.069 11.0654C104.238 11.3571 104.461 11.5964 104.739 11.7832C105.022 11.9701 105.37 12.0635 105.785 12.0635C106.127 12.0635 106.419 11.9951 106.66 11.8584C106.906 11.7171 107.104 11.5234 107.255 11.2773C107.41 11.0312 107.524 10.7464 107.597 10.4229C107.67 10.0993 107.706 9.75293 107.706 9.38379ZM114.884 11.0381C114.884 10.8558 114.843 10.6872 114.761 10.5322C114.683 10.3727 114.521 10.2292 114.275 10.1016C114.034 9.9694 113.669 9.85547 113.182 9.75977C112.771 9.67318 112.4 9.57064 112.067 9.45215C111.739 9.33366 111.459 9.1901 111.227 9.02148C110.999 8.85286 110.823 8.65462 110.7 8.42676C110.577 8.19889 110.516 7.93229 110.516 7.62695C110.516 7.33529 110.579 7.05957 110.707 6.7998C110.839 6.54004 111.024 6.3099 111.261 6.10938C111.502 5.90885 111.792 5.75163 112.129 5.6377C112.466 5.52376 112.842 5.4668 113.257 5.4668C113.849 5.4668 114.355 5.57161 114.774 5.78125C115.194 5.99089 115.515 6.27116 115.738 6.62207C115.962 6.96842 116.073 7.35352 116.073 7.77734H114.809C114.809 7.57227 114.747 7.37402 114.624 7.18262C114.506 6.98665 114.33 6.82487 114.098 6.69727C113.87 6.56966 113.59 6.50586 113.257 6.50586C112.906 6.50586 112.621 6.56055 112.402 6.66992C112.188 6.77474 112.031 6.90918 111.931 7.07324C111.835 7.2373 111.787 7.41048 111.787 7.59277C111.787 7.72949 111.81 7.85254 111.855 7.96191C111.906 8.06673 111.992 8.16471 112.115 8.25586C112.238 8.34245 112.411 8.42448 112.635 8.50195C112.858 8.57943 113.143 8.6569 113.489 8.73438C114.095 8.87109 114.594 9.03516 114.986 9.22656C115.378 9.41797 115.67 9.65267 115.861 9.93066C116.053 10.2087 116.148 10.5459 116.148 10.9424C116.148 11.266 116.08 11.5622 115.943 11.8311C115.811 12.0999 115.618 12.3324 115.362 12.5283C115.112 12.7197 114.811 12.8701 114.46 12.9795C114.114 13.0843 113.724 13.1367 113.291 13.1367C112.639 13.1367 112.088 13.0205 111.637 12.7881C111.186 12.5557 110.844 12.2549 110.611 11.8857C110.379 11.5166 110.263 11.127 110.263 10.7168H111.534C111.552 11.0632 111.653 11.3389 111.835 11.5439C112.017 11.7445 112.241 11.888 112.505 11.9746C112.769 12.0566 113.031 12.0977 113.291 12.0977C113.637 12.0977 113.927 12.0521 114.159 11.9609C114.396 11.8698 114.576 11.7445 114.699 11.585C114.822 11.4255 114.884 11.2432 114.884 11.0381ZM120.879 13.1367C120.364 13.1367 119.897 13.0501 119.478 12.877C119.063 12.6992 118.705 12.4508 118.404 12.1318C118.108 11.8128 117.88 11.4346 117.721 10.9971C117.561 10.5596 117.481 10.0811 117.481 9.56152V9.27441C117.481 8.67285 117.57 8.13737 117.748 7.66797C117.926 7.19401 118.167 6.79297 118.473 6.46484C118.778 6.13672 119.124 5.88835 119.512 5.71973C119.899 5.55111 120.3 5.4668 120.715 5.4668C121.243 5.4668 121.699 5.55794 122.082 5.74023C122.469 5.92253 122.786 6.17773 123.032 6.50586C123.278 6.82943 123.461 7.21224 123.579 7.6543C123.698 8.0918 123.757 8.57031 123.757 9.08984V9.65723H118.233V8.625H122.492V8.5293C122.474 8.20117 122.406 7.88216 122.287 7.57227C122.173 7.26237 121.991 7.00716 121.74 6.80664C121.49 6.60612 121.148 6.50586 120.715 6.50586C120.428 6.50586 120.163 6.56738 119.922 6.69043C119.68 6.80892 119.473 6.98665 119.3 7.22363C119.127 7.46061 118.992 7.75 118.896 8.0918C118.801 8.43359 118.753 8.8278 118.753 9.27441V9.56152C118.753 9.91243 118.801 10.2428 118.896 10.5527C118.997 10.8581 119.14 11.127 119.327 11.3594C119.519 11.5918 119.749 11.7741 120.018 11.9062C120.291 12.0384 120.601 12.1045 120.947 12.1045C121.394 12.1045 121.772 12.0133 122.082 11.8311C122.392 11.6488 122.663 11.4049 122.896 11.0996L123.661 11.708C123.502 11.9495 123.299 12.1797 123.053 12.3984C122.807 12.6172 122.504 12.7949 122.144 12.9316C121.788 13.0684 121.367 13.1367 120.879 13.1367ZM126.498 6.76562V13H125.233V5.60352H126.464L126.498 6.76562ZM128.809 5.5625L128.802 6.73828C128.697 6.71549 128.597 6.70182 128.501 6.69727C128.41 6.68815 128.305 6.68359 128.187 6.68359C127.895 6.68359 127.637 6.72917 127.414 6.82031C127.191 6.91146 127.002 7.03906 126.847 7.20312C126.692 7.36719 126.569 7.56315 126.478 7.79102C126.391 8.01432 126.334 8.26042 126.307 8.5293L125.951 8.73438C125.951 8.28776 125.994 7.86849 126.081 7.47656C126.172 7.08464 126.311 6.73828 126.498 6.4375C126.685 6.13216 126.922 5.89518 127.209 5.72656C127.501 5.55339 127.847 5.4668 128.248 5.4668C128.339 5.4668 128.444 5.47819 128.562 5.50098C128.681 5.51921 128.763 5.53971 128.809 5.5625ZM132.35 11.8584L134.373 5.60352H135.665L133.006 13H132.158L132.35 11.8584ZM130.661 5.60352L132.746 11.8926L132.89 13H132.042L129.362 5.60352H130.661ZM139.855 13.1367C139.34 13.1367 138.873 13.0501 138.454 12.877C138.039 12.6992 137.682 12.4508 137.381 12.1318C137.085 11.8128 136.857 11.4346 136.697 10.9971C136.538 10.5596 136.458 10.0811 136.458 9.56152V9.27441C136.458 8.67285 136.547 8.13737 136.725 7.66797C136.902 7.19401 137.144 6.79297 137.449 6.46484C137.755 6.13672 138.101 5.88835 138.488 5.71973C138.876 5.55111 139.277 5.4668 139.691 5.4668C140.22 5.4668 140.676 5.55794 141.059 5.74023C141.446 5.92253 141.763 6.17773 142.009 6.50586C142.255 6.82943 142.437 7.21224 142.556 7.6543C142.674 8.0918 142.733 8.57031 142.733 9.08984V9.65723H137.21V8.625H141.469V8.5293C141.451 8.20117 141.382 7.88216 141.264 7.57227C141.15 7.26237 140.967 7.00716 140.717 6.80664C140.466 6.60612 140.124 6.50586 139.691 6.50586C139.404 6.50586 139.14 6.56738 138.898 6.69043C138.657 6.80892 138.45 6.98665 138.276 7.22363C138.103 7.46061 137.969 7.75 137.873 8.0918C137.777 8.43359 137.729 8.8278 137.729 9.27441V9.56152C137.729 9.91243 137.777 10.2428 137.873 10.5527C137.973 10.8581 138.117 11.127 138.304 11.3594C138.495 11.5918 138.725 11.7741 138.994 11.9062C139.268 12.0384 139.577 12.1045 139.924 12.1045C140.37 12.1045 140.749 12.0133 141.059 11.8311C141.368 11.6488 141.64 11.4049 141.872 11.0996L142.638 11.708C142.478 11.9495 142.275 12.1797 142.029 12.3984C141.783 12.6172 141.48 12.7949 141.12 12.9316C140.765 13.0684 140.343 13.1367 139.855 13.1367ZM148.872 11.5645V2.5H150.144V13H148.981L148.872 11.5645ZM143.896 9.38379V9.24023C143.896 8.67513 143.964 8.16243 144.101 7.70215C144.242 7.2373 144.44 6.83854 144.695 6.50586C144.955 6.17318 145.263 5.91797 145.618 5.74023C145.978 5.55794 146.379 5.4668 146.821 5.4668C147.286 5.4668 147.692 5.54883 148.038 5.71289C148.389 5.8724 148.685 6.1071 148.927 6.41699C149.173 6.72233 149.367 7.09147 149.508 7.52441C149.649 7.95736 149.747 8.44727 149.802 8.99414V9.62305C149.752 10.1654 149.654 10.653 149.508 11.0859C149.367 11.5189 149.173 11.888 148.927 12.1934C148.685 12.4987 148.389 12.7334 148.038 12.8975C147.687 13.057 147.277 13.1367 146.808 13.1367C146.375 13.1367 145.978 13.0433 145.618 12.8564C145.263 12.6696 144.955 12.4076 144.695 12.0703C144.44 11.7331 144.242 11.3366 144.101 10.8809C143.964 10.4206 143.896 9.92155 143.896 9.38379ZM145.167 9.24023V9.38379C145.167 9.75293 145.203 10.0993 145.276 10.4229C145.354 10.7464 145.472 11.0312 145.632 11.2773C145.791 11.5234 145.994 11.7171 146.24 11.8584C146.486 11.9951 146.78 12.0635 147.122 12.0635C147.541 12.0635 147.885 11.9746 148.154 11.7969C148.428 11.6191 148.646 11.3844 148.811 11.0928C148.975 10.8011 149.102 10.4844 149.193 10.1426V8.49512C149.139 8.24447 149.059 8.00293 148.954 7.77051C148.854 7.53353 148.722 7.32389 148.558 7.1416C148.398 6.95475 148.2 6.80664 147.963 6.69727C147.73 6.58789 147.455 6.5332 147.136 6.5332C146.789 6.5332 146.491 6.60612 146.24 6.75195C145.994 6.89323 145.791 7.08919 145.632 7.33984C145.472 7.58594 145.354 7.87305 145.276 8.20117C145.203 8.52474 145.167 8.87109 145.167 9.24023Z" fill="#131619"/>
<circle cx="97.4756" cy="38.5498" r="4.76465" fill="#131619" stroke="#131619" stroke-width="1.5"/>
<path d="M97.1533 33.25V43.8145H44.8262V33.25H97.1533Z" stroke="#131619" stroke-width="0.5" stroke-linecap="square"/>
<path d="M131.93 51.0001H70.2327V43.6079" stroke="#131619" stroke-width="0.5"/>
<circle cx="44.5762" cy="38.5498" r="4.76465" fill="white" stroke="#131619" stroke-width="1.5"/>
<path d="M44.5762 18.1854H45.0762V17.6854H44.5762V18.1854ZM1.42432 17.6854C1.14817 17.6854 0.924316 17.9093 0.924316 18.1854C0.924316 18.4616 1.14817 18.6854 1.42432 18.6854V18.1854V17.6854ZM1.47403 18.6854C1.75017 18.6854 1.97403 18.4616 1.97403 18.1854C1.97403 17.9093 1.75017 17.6854 1.47403 17.6854V18.1854V18.6854ZM4.45688 17.6854C4.18074 17.6854 3.95688 17.9093 3.95688 18.1854C3.95688 18.4616 4.18074 18.6854 4.45688 18.6854V18.1854V17.6854ZM4.5563 18.6854C4.83245 18.6854 5.0563 18.4616 5.0563 18.1854C5.0563 17.9093 4.83245 17.6854 4.5563 17.6854V18.1854V18.6854ZM7.53915 17.6854C7.26301 17.6854 7.03915 17.9093 7.03915 18.1854C7.03915 18.4616 7.26301 18.6854 7.53915 18.6854V18.1854V17.6854ZM7.63858 18.6854C7.91472 18.6854 8.13858 18.4616 8.13858 18.1854C8.13858 17.9093 7.91472 17.6854 7.63858 17.6854V18.1854V18.6854ZM10.6214 17.6854C10.3453 17.6854 10.1214 17.9093 10.1214 18.1854C10.1214 18.4616 10.3453 18.6854 10.6214 18.6854V18.1854V17.6854ZM10.7209 18.6854C10.997 18.6854 11.2209 18.4616 11.2209 18.1854C11.2209 17.9093 10.997 17.6854 10.7209 17.6854V18.1854V18.6854ZM13.7037 17.6854C13.4276 17.6854 13.2037 17.9093 13.2037 18.1854C13.2037 18.4616 13.4276 18.6854 13.7037 18.6854V18.1854V17.6854ZM13.8031 18.6854C14.0793 18.6854 14.3031 18.4616 14.3031 18.1854C14.3031 17.9093 14.0793 17.6854 13.8031 17.6854V18.1854V18.6854ZM16.786 17.6854C16.5098 17.6854 16.286 17.9093 16.286 18.1854C16.286 18.4616 16.5098 18.6854 16.786 18.6854V18.1854V17.6854ZM16.8854 18.6854C17.1616 18.6854 17.3854 18.4616 17.3854 18.1854C17.3854 17.9093 17.1616 17.6854 16.8854 17.6854V18.1854V18.6854ZM19.8683 17.6854C19.5921 17.6854 19.3683 17.9093 19.3683 18.1854C19.3683 18.4616 19.5921 18.6854 19.8683 18.6854V18.1854V17.6854ZM19.9677 18.6854C20.2438 18.6854 20.4677 18.4616 20.4677 18.1854C20.4677 17.9093 20.2438 17.6854 19.9677 17.6854V18.1854V18.6854ZM22.9505 17.6854C22.6744 17.6854 22.4505 17.9093 22.4505 18.1854C22.4505 18.4616 22.6744 18.6854 22.9505 18.6854V18.1854V17.6854ZM23.05 18.6854C23.3261 18.6854 23.55 18.4616 23.55 18.1854C23.55 17.9093 23.3261 17.6854 23.05 17.6854V18.1854V18.6854ZM26.0328 17.6854C25.7567 17.6854 25.5328 17.9093 25.5328 18.1854C25.5328 18.4616 25.7567 18.6854 26.0328 18.6854V18.1854V17.6854ZM26.1322 18.6854C26.4084 18.6854 26.6322 18.4616 26.6322 18.1854C26.6322 17.9093 26.4084 17.6854 26.1322 17.6854V18.1854V18.6854ZM29.1151 17.6854C28.8389 17.6854 28.6151 17.9093 28.6151 18.1854C28.6151 18.4616 28.8389 18.6854 29.1151 18.6854V18.1854V17.6854ZM29.2145 18.6854C29.4907 18.6854 29.7145 18.4616 29.7145 18.1854C29.7145 17.9093 29.4907 17.6854 29.2145 17.6854V18.1854V18.6854ZM32.1974 17.6854C31.9212 17.6854 31.6974 17.9093 31.6974 18.1854C31.6974 18.4616 31.9212 18.6854 32.1974 18.6854V18.1854V17.6854ZM32.2968 18.6854C32.5729 18.6854 32.7968 18.4616 32.7968 18.1854C32.7968 17.9093 32.5729 17.6854 32.2968 17.6854V18.1854V18.6854ZM35.2796 17.6854C35.0035 17.6854 34.7796 17.9093 34.7796 18.1854C34.7796 18.4616 35.0035 18.6854 35.2796 18.6854V18.1854V17.6854ZM35.3791 18.6854C35.6552 18.6854 35.8791 18.4616 35.8791 18.1854C35.8791 17.9093 35.6552 17.6854 35.3791 17.6854V18.1854V18.6854ZM38.3619 17.6854C38.0858 17.6854 37.8619 17.9093 37.8619 18.1854C37.8619 18.4616 38.0858 18.6854 38.3619 18.6854V18.1854V17.6854ZM38.4613 18.6854C38.7375 18.6854 38.9613 18.4616 38.9613 18.1854C38.9613 17.9093 38.7375 17.6854 38.4613 17.6854V18.1854V18.6854ZM41.4442 17.6854C41.168 17.6854 40.9442 17.9093 40.9442 18.1854C40.9442 18.4616 41.168 18.6854 41.4442 18.6854V18.1854V17.6854ZM41.5436 18.6854C41.8198 18.6854 42.0436 18.4616 42.0436 18.1854C42.0436 17.9093 41.8198 17.6854 41.5436 17.6854V18.1854V18.6854ZM44.5265 17.6854C44.2503 17.6854 44.0265 17.9093 44.0265 18.1854C44.0265 18.4616 44.2503 18.6854 44.5265 18.6854V18.1854V17.6854ZM44.0762 18.2332C44.0762 18.5093 44.3 18.7332 44.5762 18.7332C44.8523 18.7332 45.0762 18.5093 45.0762 18.2332H44.5762H44.0762ZM45.0762 21.0996C45.0762 20.8235 44.8523 20.5996 44.5762 20.5996C44.3 20.5996 44.0762 20.8235 44.0762 21.0996H44.5762H45.0762ZM44.0762 21.1952C44.0762 21.4713 44.3 21.6952 44.5762 21.6952C44.8523 21.6952 45.0762 21.4713 45.0762 21.1952H44.5762H44.0762ZM45.0762 24.0616C45.0762 23.7855 44.8523 23.5616 44.5762 23.5616C44.3 23.5616 44.0762 23.7855 44.0762 24.0616H44.5762H45.0762ZM44.0762 24.1572C44.0762 24.4333 44.3 24.6572 44.5762 24.6572C44.8523 24.6572 45.0762 24.4333 45.0762 24.1572H44.5762H44.0762ZM45.0762 27.0236C45.0762 26.7475 44.8523 26.5236 44.5762 26.5236C44.3 26.5236 44.0762 26.7475 44.0762 27.0236H44.5762H45.0762ZM44.0762 27.1192C44.0762 27.3953 44.3 27.6192 44.5762 27.6192C44.8523 27.6192 45.0762 27.3953 45.0762 27.1192H44.5762H44.0762ZM45.0762 29.9856C45.0762 29.7094 44.8523 29.4856 44.5762 29.4856C44.3 29.4856 44.0762 29.7094 44.0762 29.9856H44.5762H45.0762ZM44.0762 30.0811C44.0762 30.3573 44.3 30.5811 44.5762 30.5811C44.8523 30.5811 45.0762 30.3573 45.0762 30.0811H44.5762H44.0762ZM45.0762 32.9476C45.0762 32.6714 44.8523 32.4476 44.5762 32.4476C44.3 32.4476 44.0762 32.6714 44.0762 32.9476H44.5762H45.0762ZM44.0762 33.0431C44.0762 33.3193 44.3 33.5431 44.5762 33.5431C44.8523 33.5431 45.0762 33.3193 45.0762 33.0431H44.5762H44.0762ZM45.0762 35.9096C45.0762 35.6334 44.8523 35.4096 44.5762 35.4096C44.3 35.4096 44.0762 35.6334 44.0762 35.9096H44.5762H45.0762ZM44.0762 36.0051C44.0762 36.2813 44.3 36.5051 44.5762 36.5051C44.8523 36.5051 45.0762 36.2813 45.0762 36.0051H44.5762H44.0762ZM45.0762 38.8716C45.0762 38.5954 44.8523 38.3716 44.5762 38.3716C44.3 38.3716 44.0762 38.5954 44.0762 38.8716H44.5762H45.0762ZM1.42432 18.1854V18.6854H1.47403V18.1854V17.6854H1.42432V18.1854ZM4.45688 18.1854V18.6854H4.5563V18.1854V17.6854H4.45688V18.1854ZM7.53915 18.1854V18.6854H7.63858V18.1854V17.6854H7.53915V18.1854ZM10.6214 18.1854V18.6854H10.7209V18.1854V17.6854H10.6214V18.1854ZM13.7037 18.1854V18.6854H13.8031V18.1854V17.6854H13.7037V18.1854ZM16.786 18.1854V18.6854H16.8854V18.1854V17.6854H16.786V18.1854ZM19.8683 18.1854V18.6854H19.9677V18.1854V17.6854H19.8683V18.1854ZM22.9505 18.1854V18.6854H23.05V18.1854V17.6854H22.9505V18.1854ZM26.0328 18.1854V18.6854H26.1322V18.1854V17.6854H26.0328V18.1854ZM29.1151 18.1854V18.6854H29.2145V18.1854V17.6854H29.1151V18.1854ZM32.1974 18.1854V18.6854H32.2968V18.1854V17.6854H32.1974V18.1854ZM35.2796 18.1854V18.6854H35.3791V18.1854V17.6854H35.2796V18.1854ZM38.3619 18.1854V18.6854H38.4613V18.1854V17.6854H38.3619V18.1854ZM41.4442 18.1854V18.6854H41.5436V18.1854V17.6854H41.4442V18.1854ZM44.5265 18.1854V18.6854H44.5762V18.1854V17.6854H44.5265V18.1854ZM44.5762 18.1854H44.0762V18.2332H44.5762H45.0762V18.1854H44.5762ZM44.5762 21.0996H44.0762V21.1952H44.5762H45.0762V21.0996H44.5762ZM44.5762 24.0616H44.0762V24.1572H44.5762H45.0762V24.0616H44.5762ZM44.5762 27.0236H44.0762V27.1192H44.5762H45.0762V27.0236H44.5762ZM44.5762 29.9856H44.0762V30.0811H44.5762H45.0762V29.9856H44.5762ZM44.5762 32.9476H44.0762V33.0431H44.5762H45.0762V32.9476H44.5762ZM44.5762 35.9096H44.0762V36.0051H44.5762H45.0762V35.9096H44.5762ZM44.5762 38.8716H44.0762V38.9193H44.5762H45.0762V38.8716H44.5762Z" fill="#131619"/>
<path d="M97.4028 18.1872H97.1528V17.9372L97.4028 17.9372L97.4028 18.1872ZM150.275 17.9355C150.413 17.9355 150.525 18.0475 150.525 18.1855C150.525 18.3236 150.413 18.4355 150.275 18.4355L150.275 18.1855L150.275 17.9355ZM148.317 18.4356C148.179 18.4356 148.067 18.3237 148.067 18.1856C148.067 18.0475 148.179 17.9356 148.317 17.9356L148.317 18.1856L148.317 18.4356ZM143.421 17.9358C143.559 17.9358 143.671 18.0477 143.671 18.1857C143.671 18.3238 143.559 18.4358 143.421 18.4358L143.421 18.1858L143.421 17.9358ZM139.505 18.4359C139.367 18.4359 139.255 18.324 139.255 18.1859C139.255 18.0478 139.367 17.9359 139.505 17.9359L139.505 18.1859L139.505 18.4359ZM134.609 17.936C134.747 17.936 134.859 18.0479 134.859 18.186C134.859 18.3241 134.747 18.436 134.609 18.436L134.609 18.186L134.609 17.936ZM130.693 18.4361C130.555 18.4361 130.443 18.3242 130.443 18.1861C130.443 18.0481 130.555 17.9361 130.693 17.9361L130.693 18.1861L130.693 18.4361ZM125.797 17.9363C125.935 17.9363 126.047 18.0482 126.047 18.1863C126.047 18.3244 125.935 18.4363 125.797 18.4363L125.797 18.1863L125.797 17.9363ZM121.881 18.4364C121.743 18.4364 121.631 18.3245 121.631 18.1864C121.631 18.0483 121.743 17.9364 121.881 17.9364L121.881 18.1864L121.881 18.4364ZM116.985 17.9366C117.123 17.9366 117.235 18.0485 117.235 18.1866C117.235 18.3246 117.123 18.4366 116.985 18.4366L116.985 18.1866L116.985 17.9366ZM113.069 18.4367C112.931 18.4367 112.819 18.3248 112.819 18.1867C112.819 18.0486 112.931 17.9367 113.069 17.9367L113.069 18.1867L113.069 18.4367ZM108.173 17.9368C108.311 17.9368 108.423 18.0487 108.423 18.1868C108.423 18.3249 108.311 18.4368 108.173 18.4368L108.173 18.1868L108.173 17.9368ZM104.257 18.4369C104.119 18.4369 104.007 18.325 104.007 18.187C104.007 18.0489 104.119 17.9369 104.257 17.9369L104.257 18.1869L104.257 18.4369ZM99.3611 17.9371C99.4991 17.9371 99.6111 18.049 99.6111 18.1871C99.6111 18.3252 99.4991 18.4371 99.3611 18.4371L99.3611 18.1871L99.3611 17.9371ZM97.6528 20.4909C97.6528 20.629 97.5409 20.7409 97.4028 20.7409C97.2648 20.7409 97.1528 20.629 97.1528 20.4909H97.4028H97.6528ZM97.1528 26.2503C97.1528 26.1123 97.2648 26.0003 97.4028 26.0003C97.5409 26.0003 97.6528 26.1123 97.6528 26.2503H97.4028H97.1528ZM97.6528 30.8579C97.6528 30.9959 97.5409 31.1079 97.4028 31.1079C97.2648 31.1079 97.1528 30.9959 97.1528 30.8579H97.4028H97.6528ZM97.1528 36.6173C97.1528 36.4792 97.2648 36.3673 97.4028 36.3673C97.5409 36.3673 97.6528 36.4792 97.6528 36.6173H97.4028H97.1528ZM150.275 18.1855L150.275 18.4355L148.317 18.4356L148.317 18.1856L148.317 17.9356L150.275 17.9355L150.275 18.1855ZM143.421 18.1858L143.421 18.4358L139.505 18.4359L139.505 18.1859L139.505 17.9359L143.421 17.9358L143.421 18.1858ZM134.609 18.186L134.609 18.436L130.693 18.4361L130.693 18.1861L130.693 17.9361L134.609 17.936L134.609 18.186ZM125.797 18.1863L125.797 18.4363L121.881 18.4364L121.881 18.1864L121.881 17.9364L125.797 17.9363L125.797 18.1863ZM116.985 18.1866L116.985 18.4366L113.069 18.4367L113.069 18.1867L113.069 17.9367L116.985 17.9366L116.985 18.1866ZM108.173 18.1868L108.173 18.4368L104.257 18.4369L104.257 18.1869L104.257 17.9369L108.173 17.9368L108.173 18.1868ZM99.3611 18.1871L99.3611 18.4371L97.4028 18.4372L97.4028 18.1872L97.4028 17.9372L99.3611 17.9371L99.3611 18.1871ZM97.4028 18.1872H97.6528V20.4909H97.4028H97.1528V18.1872H97.4028ZM97.4028 26.2503H97.6528V30.8579H97.4028H97.1528V26.2503H97.4028ZM97.4028 36.6173H97.6528V38.9211H97.4028H97.1528V36.6173H97.4028Z" fill="#131619"/>
</svg>
