<svg width="200" height="47" viewBox="0 0 200 47" fill="none" xmlns="http://www.w3.org/2000/svg">
<g clip-path="url(#clip0_1004_10)">
<path d="M138.864 38.668C138.463 38.668 138.066 38.598 137.674 38.458C137.282 38.318 136.923 38.1033 136.596 37.814C136.279 37.5153 136.022 37.1373 135.826 36.68C135.63 36.2227 135.532 35.6813 135.532 35.056C135.532 34.4307 135.63 33.8893 135.826 33.432C136.022 32.9747 136.279 32.6013 136.596 32.312C136.923 32.0133 137.282 31.794 137.674 31.654C138.066 31.514 138.463 31.444 138.864 31.444C139.265 31.444 139.662 31.514 140.054 31.654C140.455 31.794 140.815 32.0133 141.132 32.312C141.459 32.6013 141.715 32.9747 141.902 33.432C142.098 33.8893 142.196 34.4307 142.196 35.056C142.196 35.6813 142.098 36.2227 141.902 36.68C141.715 37.1373 141.459 37.5153 141.132 37.814C140.815 38.1033 140.455 38.318 140.054 38.458C139.662 38.598 139.265 38.668 138.864 38.668ZM138.864 37.632C139.2 37.632 139.527 37.5433 139.844 37.366C140.161 37.1793 140.423 36.8993 140.628 36.526C140.833 36.1433 140.936 35.6533 140.936 35.056C140.936 34.4587 140.833 33.9733 140.628 33.6C140.423 33.2173 140.161 32.9373 139.844 32.76C139.527 32.5733 139.2 32.48 138.864 32.48C138.537 32.48 138.211 32.5733 137.884 32.76C137.567 32.9373 137.305 33.2173 137.1 33.6C136.895 33.9733 136.792 34.4587 136.792 35.056C136.792 35.6533 136.895 36.1433 137.1 36.526C137.305 36.8993 137.567 37.1793 137.884 37.366C138.211 37.5433 138.537 37.632 138.864 37.632ZM147.135 38.668C146.593 38.668 146.136 38.5607 145.763 38.346C145.389 38.122 145.095 37.8233 144.881 37.45L144.573 38.5H143.705V29.148H144.881V32.648C145.095 32.284 145.389 31.9947 145.763 31.78C146.136 31.556 146.593 31.444 147.135 31.444C147.667 31.444 148.157 31.5887 148.605 31.878C149.062 32.158 149.426 32.5687 149.697 33.11C149.977 33.642 150.117 34.2907 150.117 35.056C150.117 35.8213 149.977 36.4747 149.697 37.016C149.426 37.548 149.062 37.9587 148.605 38.248C148.157 38.528 147.667 38.668 147.135 38.668ZM146.827 37.66C147.424 37.66 147.9 37.4313 148.255 36.974C148.619 36.5167 148.801 35.8773 148.801 35.056C148.801 34.2253 148.619 33.586 148.255 33.138C147.9 32.6807 147.424 32.452 146.827 32.452C146.229 32.452 145.749 32.6807 145.385 33.138C145.03 33.586 144.853 34.2253 144.853 35.056C144.853 35.8773 145.03 36.5167 145.385 36.974C145.749 37.4313 146.229 37.66 146.827 37.66ZM154 38.668C153.599 38.668 153.202 38.6073 152.81 38.486C152.428 38.3553 152.082 38.164 151.774 37.912C151.476 37.6507 151.247 37.324 151.088 36.932L152.222 36.512C152.325 36.9227 152.549 37.2213 152.894 37.408C153.249 37.5853 153.618 37.674 154 37.674C154.28 37.674 154.542 37.632 154.784 37.548C155.036 37.464 155.242 37.3427 155.4 37.184C155.559 37.0253 155.638 36.8433 155.638 36.638C155.638 36.2553 155.484 35.9847 155.176 35.826C154.878 35.6673 154.518 35.546 154.098 35.462L153.132 35.266C152.796 35.1913 152.484 35.0887 152.194 34.958C151.905 34.818 151.672 34.622 151.494 34.37C151.317 34.118 151.228 33.782 151.228 33.362C151.228 32.942 151.359 32.592 151.62 32.312C151.882 32.0227 152.213 31.8033 152.614 31.654C153.025 31.5047 153.454 31.43 153.902 31.43C154.453 31.43 154.971 31.5467 155.456 31.78C155.951 32.004 156.301 32.3587 156.506 32.844L155.4 33.25C155.279 32.97 155.064 32.7647 154.756 32.634C154.458 32.494 154.145 32.424 153.818 32.424C153.464 32.424 153.142 32.5033 152.852 32.662C152.563 32.8207 152.418 33.0493 152.418 33.348C152.418 33.6467 152.54 33.866 152.782 34.006C153.034 34.1367 153.342 34.2393 153.706 34.314L154.616 34.496C154.99 34.5707 155.344 34.678 155.68 34.818C156.016 34.958 156.292 35.168 156.506 35.448C156.721 35.7187 156.828 36.1013 156.828 36.596C156.828 37.0347 156.693 37.408 156.422 37.716C156.152 38.024 155.802 38.262 155.372 38.43C154.943 38.5887 154.486 38.668 154 38.668ZM161.178 38.668C160.45 38.668 159.834 38.5093 159.33 38.192C158.826 37.8653 158.439 37.4313 158.168 36.89C157.907 36.3393 157.776 35.7233 157.776 35.042C157.776 34.3047 157.925 33.67 158.224 33.138C158.523 32.5967 158.924 32.1813 159.428 31.892C159.941 31.5933 160.515 31.444 161.15 31.444C161.701 31.444 162.186 31.556 162.606 31.78C163.026 31.9947 163.371 32.2887 163.642 32.662C163.922 33.026 164.123 33.4413 164.244 33.908C164.375 34.3747 164.421 34.8553 164.384 35.35H159.036C159.055 35.9287 159.181 36.386 159.414 36.722C159.657 37.058 159.941 37.296 160.268 37.436C160.595 37.5667 160.898 37.632 161.178 37.632C161.57 37.632 161.897 37.5713 162.158 37.45C162.429 37.3193 162.643 37.1513 162.802 36.946L163.936 37.282C163.684 37.6833 163.325 38.0147 162.858 38.276C162.391 38.5373 161.831 38.668 161.178 38.668ZM159.05 34.412H163.138C163.138 34.0853 163.054 33.7727 162.886 33.474C162.727 33.1753 162.499 32.9327 162.2 32.746C161.911 32.55 161.561 32.452 161.15 32.452C160.805 32.452 160.478 32.5173 160.17 32.648C159.862 32.7787 159.605 32.9887 159.4 33.278C159.204 33.5673 159.087 33.9453 159.05 34.412ZM165.771 38.5V31.556H166.625L167.003 32.844C167.246 32.424 167.572 32.088 167.983 31.836C168.403 31.5747 168.902 31.444 169.481 31.444V32.662C169.416 32.662 169.346 32.662 169.271 32.662C169.206 32.662 169.14 32.6667 169.075 32.676C168.282 32.7413 167.726 33.0167 167.409 33.502C167.101 33.9873 166.947 34.6593 166.947 35.518V38.5H165.771ZM172.396 38.5L169.918 31.556H171.192L173.012 36.96L174.818 31.556H176.092L173.614 38.5H172.396ZM178.764 38.668C178.325 38.668 177.924 38.5887 177.56 38.43C177.196 38.2713 176.907 38.0427 176.692 37.744C176.477 37.4453 176.37 37.086 176.37 36.666C176.37 36.1153 176.561 35.6813 176.944 35.364C177.336 35.0467 177.882 34.804 178.582 34.636C179.291 34.4587 180.117 34.3187 181.06 34.216C181.079 33.628 180.962 33.1753 180.71 32.858C180.458 32.5407 180.052 32.382 179.492 32.382C179.072 32.382 178.727 32.48 178.456 32.676C178.195 32.8627 178.027 33.124 177.952 33.46L176.818 33.124C177.005 32.592 177.336 32.1813 177.812 31.892C178.297 31.5933 178.853 31.444 179.478 31.444C180.439 31.444 181.139 31.6727 181.578 32.13C182.026 32.578 182.25 33.2873 182.25 34.258V35.882C182.25 36.4607 182.273 36.96 182.32 37.38C182.367 37.8 182.423 38.1733 182.488 38.5H181.41L181.13 37.548C180.925 37.8933 180.631 38.1687 180.248 38.374C179.865 38.57 179.371 38.668 178.764 38.668ZM179.016 37.73C179.38 37.73 179.725 37.6647 180.052 37.534C180.379 37.4033 180.645 37.184 180.85 36.876C181.055 36.5587 181.158 36.1293 181.158 35.588V35.154C180.449 35.2287 179.833 35.322 179.31 35.434C178.787 35.5367 178.381 35.686 178.092 35.882C177.812 36.0687 177.672 36.3207 177.672 36.638C177.672 36.9647 177.789 37.2307 178.022 37.436C178.265 37.632 178.596 37.73 179.016 37.73ZM186.721 38.668C186.198 38.668 185.708 38.528 185.251 38.248C184.794 37.9587 184.425 37.548 184.145 37.016C183.874 36.4747 183.739 35.8213 183.739 35.056C183.739 34.2907 183.874 33.642 184.145 33.11C184.425 32.5687 184.794 32.158 185.251 31.878C185.708 31.5887 186.198 31.444 186.721 31.444C187.272 31.444 187.734 31.556 188.107 31.78C188.48 31.9947 188.77 32.284 188.975 32.648V29.148H190.151V35.882C190.151 36.1153 190.16 36.4607 190.179 36.918C190.198 37.366 190.268 37.8933 190.389 38.5H189.283L188.975 37.45C188.77 37.8233 188.48 38.122 188.107 38.346C187.734 38.5607 187.272 38.668 186.721 38.668ZM187.029 37.66C187.626 37.66 188.102 37.4313 188.457 36.974C188.821 36.5167 189.003 35.8773 189.003 35.056C189.003 34.2253 188.821 33.586 188.457 33.138C188.102 32.6807 187.626 32.452 187.029 32.452C186.432 32.452 185.951 32.6807 185.587 33.138C185.232 33.586 185.055 34.2253 185.055 35.056C185.055 35.8773 185.232 36.5167 185.587 36.974C185.951 37.4313 186.432 37.66 187.029 37.66ZM194.035 38.668C193.597 38.668 193.195 38.5887 192.831 38.43C192.467 38.2713 192.178 38.0427 191.963 37.744C191.749 37.4453 191.641 37.086 191.641 36.666C191.641 36.1153 191.833 35.6813 192.215 35.364C192.607 35.0467 193.153 34.804 193.853 34.636C194.563 34.4587 195.389 34.3187 196.331 34.216C196.35 33.628 196.233 33.1753 195.981 32.858C195.729 32.5407 195.323 32.382 194.763 32.382C194.343 32.382 193.998 32.48 193.727 32.676C193.466 32.8627 193.298 33.124 193.223 33.46L192.089 33.124C192.276 32.592 192.607 32.1813 193.083 31.892C193.569 31.5933 194.124 31.444 194.749 31.444C195.711 31.444 196.411 31.6727 196.849 32.13C197.297 32.578 197.521 33.2873 197.521 34.258V35.882C197.521 36.4607 197.545 36.96 197.591 37.38C197.638 37.8 197.694 38.1733 197.759 38.5H196.681L196.401 37.548C196.196 37.8933 195.902 38.1687 195.519 38.374C195.137 38.57 194.642 38.668 194.035 38.668ZM194.287 37.73C194.651 37.73 194.997 37.6647 195.323 37.534C195.65 37.4033 195.916 37.184 196.121 36.876C196.327 36.5587 196.429 36.1293 196.429 35.588V35.154C195.72 35.2287 195.104 35.322 194.581 35.434C194.059 35.5367 193.653 35.686 193.363 35.882C193.083 36.0687 192.943 36.3207 192.943 36.638C192.943 36.9647 193.06 37.2307 193.293 37.436C193.536 37.632 193.867 37.73 194.287 37.73Z" fill="#131619"/>
<path d="M4.514 39.668C3.99133 39.668 3.50133 39.528 3.044 39.248C2.58667 38.9587 2.218 38.548 1.938 38.016C1.66733 37.4747 1.532 36.8213 1.532 36.056C1.532 35.2907 1.66733 34.642 1.938 34.11C2.218 33.5687 2.58667 33.158 3.044 32.878C3.50133 32.5887 3.99133 32.444 4.514 32.444C5.06467 32.444 5.52667 32.556 5.9 32.78C6.27333 32.9947 6.56267 33.284 6.768 33.648V30.148H7.944V36.882C7.944 37.1153 7.95333 37.4607 7.972 37.918C7.99067 38.366 8.06067 38.8933 8.182 39.5H7.076L6.768 38.45C6.56267 38.8233 6.27333 39.122 5.9 39.346C5.52667 39.5607 5.06467 39.668 4.514 39.668ZM4.822 38.66C5.41933 38.66 5.89533 38.4313 6.25 37.974C6.614 37.5167 6.796 36.8773 6.796 36.056C6.796 35.2253 6.614 34.586 6.25 34.138C5.89533 33.6807 5.41933 33.452 4.822 33.452C4.22467 33.452 3.744 33.6807 3.38 34.138C3.02533 34.586 2.848 35.2253 2.848 36.056C2.848 36.8773 3.02533 37.5167 3.38 37.974C3.744 38.4313 4.22467 38.66 4.822 38.66ZM12.8363 39.668C12.1083 39.668 11.4923 39.5093 10.9883 39.192C10.4843 38.8653 10.097 38.4313 9.82634 37.89C9.56501 37.3393 9.43434 36.7233 9.43434 36.042C9.43434 35.3047 9.58368 34.67 9.88234 34.138C10.181 33.5967 10.5823 33.1813 11.0863 32.892C11.5997 32.5933 12.1737 32.444 12.8083 32.444C13.359 32.444 13.8443 32.556 14.2643 32.78C14.6843 32.9947 15.0297 33.2887 15.3003 33.662C15.5803 34.026 15.781 34.4413 15.9023 34.908C16.033 35.3747 16.0797 35.8553 16.0423 36.35H10.6943C10.713 36.9287 10.839 37.386 11.0723 37.722C11.315 38.058 11.5997 38.296 11.9263 38.436C12.253 38.5667 12.5563 38.632 12.8363 38.632C13.2283 38.632 13.555 38.5713 13.8163 38.45C14.087 38.3193 14.3017 38.1513 14.4603 37.946L15.5943 38.282C15.3423 38.6833 14.983 39.0147 14.5163 39.276C14.0497 39.5373 13.4897 39.668 12.8363 39.668ZM10.7083 35.412H14.7963C14.7963 35.0853 14.7123 34.7727 14.5443 34.474C14.3857 34.1753 14.157 33.9327 13.8583 33.746C13.569 33.55 13.219 33.452 12.8083 33.452C12.463 33.452 12.1363 33.5173 11.8283 33.648C11.5203 33.7787 11.2637 33.9887 11.0583 34.278C10.8623 34.5673 10.7457 34.9453 10.7083 35.412ZM19.7952 39.668C19.3939 39.668 18.9972 39.6073 18.6052 39.486C18.2226 39.3553 17.8772 39.164 17.5692 38.912C17.2706 38.6507 17.0419 38.324 16.8832 37.932L18.0172 37.512C18.1199 37.9227 18.3439 38.2213 18.6892 38.408C19.0439 38.5853 19.4126 38.674 19.7952 38.674C20.0752 38.674 20.3366 38.632 20.5792 38.548C20.8312 38.464 21.0366 38.3427 21.1952 38.184C21.3539 38.0253 21.4332 37.8433 21.4332 37.638C21.4332 37.2553 21.2792 36.9847 20.9712 36.826C20.6726 36.6673 20.3132 36.546 19.8932 36.462L18.9272 36.266C18.5912 36.1913 18.2786 36.0887 17.9892 35.958C17.6999 35.818 17.4666 35.622 17.2892 35.37C17.1119 35.118 17.0232 34.782 17.0232 34.362C17.0232 33.942 17.1539 33.592 17.4152 33.312C17.6766 33.0227 18.0079 32.8033 18.4092 32.654C18.8199 32.5047 19.2492 32.43 19.6972 32.43C20.2479 32.43 20.7659 32.5467 21.2512 32.78C21.7459 33.004 22.0959 33.3587 22.3012 33.844L21.1952 34.25C21.0739 33.97 20.8592 33.7647 20.5512 33.634C20.2526 33.494 19.9399 33.424 19.6132 33.424C19.2586 33.424 18.9366 33.5033 18.6472 33.662C18.3579 33.8207 18.2132 34.0493 18.2132 34.348C18.2132 34.6467 18.3346 34.866 18.5772 35.006C18.8292 35.1367 19.1372 35.2393 19.5012 35.314L20.4112 35.496C20.7846 35.5707 21.1392 35.678 21.4752 35.818C21.8112 35.958 22.0866 36.168 22.3012 36.448C22.5159 36.7187 22.6232 37.1013 22.6232 37.596C22.6232 38.0347 22.4879 38.408 22.2172 38.716C21.9466 39.024 21.5966 39.262 21.1672 39.43C20.7379 39.5887 20.2806 39.668 19.7952 39.668ZM26.9731 39.668C26.2451 39.668 25.6291 39.5093 25.1251 39.192C24.6211 38.8653 24.2337 38.4313 23.9631 37.89C23.7017 37.3393 23.5711 36.7233 23.5711 36.042C23.5711 35.3047 23.7204 34.67 24.0191 34.138C24.3177 33.5967 24.7191 33.1813 25.2231 32.892C25.7364 32.5933 26.3104 32.444 26.9451 32.444C27.4957 32.444 27.9811 32.556 28.4011 32.78C28.8211 32.9947 29.1664 33.2887 29.4371 33.662C29.7171 34.026 29.9177 34.4413 30.0391 34.908C30.1697 35.3747 30.2164 35.8553 30.1791 36.35H24.8311C24.8497 36.9287 24.9757 37.386 25.2091 37.722C25.4517 38.058 25.7364 38.296 26.0631 38.436C26.3897 38.5667 26.6931 38.632 26.9731 38.632C27.3651 38.632 27.6917 38.5713 27.9531 38.45C28.2237 38.3193 28.4384 38.1513 28.5971 37.946L29.7311 38.282C29.4791 38.6833 29.1197 39.0147 28.6531 39.276C28.1864 39.5373 27.6264 39.668 26.9731 39.668ZM24.8451 35.412H28.9331C28.9331 35.0853 28.8491 34.7727 28.6811 34.474C28.5224 34.1753 28.2937 33.9327 27.9951 33.746C27.7057 33.55 27.3557 33.452 26.9451 33.452C26.5997 33.452 26.2731 33.5173 25.9651 33.648C25.6571 33.7787 25.4004 33.9887 25.1951 34.278C24.9991 34.5673 24.8824 34.9453 24.8451 35.412ZM33.5119 39.668C33.0733 39.668 32.6719 39.5887 32.3079 39.43C31.9439 39.2713 31.6546 39.0427 31.4399 38.744C31.2253 38.4453 31.1179 38.086 31.1179 37.666C31.1179 37.1153 31.3093 36.6813 31.6919 36.364C32.0839 36.0467 32.6299 35.804 33.3299 35.636C34.0393 35.4587 34.8653 35.3187 35.8079 35.216C35.8266 34.628 35.7099 34.1753 35.4579 33.858C35.2059 33.5407 34.7999 33.382 34.2399 33.382C33.8199 33.382 33.4746 33.48 33.2039 33.676C32.9426 33.8627 32.7746 34.124 32.6999 34.46L31.5659 34.124C31.7526 33.592 32.0839 33.1813 32.5599 32.892C33.0453 32.5933 33.6006 32.444 34.2259 32.444C35.1873 32.444 35.8873 32.6727 36.3259 33.13C36.7739 33.578 36.9979 34.2873 36.9979 35.258V36.882C36.9979 37.4607 37.0213 37.96 37.0679 38.38C37.1146 38.8 37.1706 39.1733 37.2359 39.5H36.1579L35.8779 38.548C35.6726 38.8933 35.3786 39.1687 34.9959 39.374C34.6133 39.57 34.1186 39.668 33.5119 39.668ZM33.7639 38.73C34.1279 38.73 34.4733 38.6647 34.7999 38.534C35.1266 38.4033 35.3926 38.184 35.5979 37.876C35.8033 37.5587 35.9059 37.1293 35.9059 36.588V36.154C35.1966 36.2287 34.5806 36.322 34.0579 36.434C33.5353 36.5367 33.1293 36.686 32.8399 36.882C32.5599 37.0687 32.4199 37.3207 32.4199 37.638C32.4199 37.9647 32.5366 38.2307 32.7699 38.436C33.0126 38.632 33.3439 38.73 33.7639 38.73ZM41.4691 39.668C40.9464 39.668 40.4564 39.528 39.9991 39.248C39.5417 38.9587 39.1731 38.548 38.8931 38.016C38.6224 37.4747 38.4871 36.8213 38.4871 36.056C38.4871 35.2907 38.6224 34.642 38.8931 34.11C39.1731 33.5687 39.5417 33.158 39.9991 32.878C40.4564 32.5887 40.9464 32.444 41.4691 32.444C42.0197 32.444 42.4817 32.556 42.8551 32.78C43.2284 32.9947 43.5177 33.284 43.7231 33.648V30.148H44.8991V36.882C44.8991 37.1153 44.9084 37.4607 44.9271 37.918C44.9457 38.366 45.0157 38.8933 45.1371 39.5H44.0311L43.7231 38.45C43.5177 38.8233 43.2284 39.122 42.8551 39.346C42.4817 39.5607 42.0197 39.668 41.4691 39.668ZM41.7771 38.66C42.3744 38.66 42.8504 38.4313 43.2051 37.974C43.5691 37.5167 43.7511 36.8773 43.7511 36.056C43.7511 35.2253 43.5691 34.586 43.2051 34.138C42.8504 33.6807 42.3744 33.452 41.7771 33.452C41.1797 33.452 40.6991 33.6807 40.3351 34.138C39.9804 34.586 39.8031 35.2253 39.8031 36.056C39.8031 36.8773 39.9804 37.5167 40.3351 37.974C40.6991 38.4313 41.1797 38.66 41.7771 38.66ZM48.7834 39.668C48.3448 39.668 47.9434 39.5887 47.5794 39.43C47.2154 39.2713 46.9261 39.0427 46.7114 38.744C46.4968 38.4453 46.3894 38.086 46.3894 37.666C46.3894 37.1153 46.5808 36.6813 46.9634 36.364C47.3554 36.0467 47.9014 35.804 48.6014 35.636C49.3108 35.4587 50.1368 35.3187 51.0794 35.216C51.0981 34.628 50.9814 34.1753 50.7294 33.858C50.4774 33.5407 50.0714 33.382 49.5114 33.382C49.0914 33.382 48.7461 33.48 48.4754 33.676C48.2141 33.8627 48.0461 34.124 47.9714 34.46L46.8374 34.124C47.0241 33.592 47.3554 33.1813 47.8314 32.892C48.3168 32.5933 48.8721 32.444 49.4974 32.444C50.4588 32.444 51.1588 32.6727 51.5974 33.13C52.0454 33.578 52.2694 34.2873 52.2694 35.258V36.882C52.2694 37.4607 52.2928 37.96 52.3394 38.38C52.3861 38.8 52.4421 39.1733 52.5074 39.5H51.4294L51.1494 38.548C50.9441 38.8933 50.6501 39.1687 50.2674 39.374C49.8848 39.57 49.3901 39.668 48.7834 39.668ZM49.0354 38.73C49.3994 38.73 49.7448 38.6647 50.0714 38.534C50.3981 38.4033 50.6641 38.184 50.8694 37.876C51.0748 37.5587 51.1774 37.1293 51.1774 36.588V36.154C50.4681 36.2287 49.8521 36.322 49.3294 36.434C48.8068 36.5367 48.4008 36.686 48.1114 36.882C47.8314 37.0687 47.6914 37.3207 47.6914 37.638C47.6914 37.9647 47.8081 38.2307 48.0414 38.436C48.2841 38.632 48.6154 38.73 49.0354 38.73Z" fill="#131619"/>
<path d="M120.447 39.9507C123.078 39.9507 125.211 37.8175 125.211 35.186C125.211 32.5546 123.078 30.4214 120.447 30.4214C117.815 30.4214 115.682 32.5546 115.682 35.186C115.682 37.8175 117.815 39.9507 120.447 39.9507Z" fill="#131619" stroke="#131619" stroke-width="1.5"/>
<path d="M120.125 29.8862V40.4507H67.7974V29.8862H120.125Z" stroke="#131619" stroke-width="0.5" stroke-linecap="square"/>
<path d="M62.1094 19.1333H93.1165M93.1165 19.1333V29.7463M93.1165 19.1333H125.477" stroke="#131619" stroke-width="0.5"/>
<path d="M67.5754 46.3882H68.0754V46.8882H67.5754V46.3882ZM0.5 46.8882C0.223862 46.8882 0 46.6643 0 46.3882C0 46.112 0.223862 45.8882 0.5 45.8882V46.3882V46.8882ZM0.549179 45.8882C0.825317 45.8882 1.04918 46.112 1.04918 46.3882C1.04918 46.6643 0.825317 46.8882 0.549179 46.8882V46.3882V45.8882ZM3.49971 46.8882C3.22356 46.8882 2.99971 46.6643 2.99971 46.3882C2.99971 46.112 3.22356 45.8882 3.49971 45.8882V46.3882V46.8882ZM3.59806 45.8882C3.8742 45.8882 4.09806 46.112 4.09806 46.3882C4.09806 46.6643 3.8742 46.8882 3.59806 46.8882V46.3882V45.8882ZM6.54859 46.8882C6.27245 46.8882 6.04859 46.6643 6.04859 46.3882C6.04859 46.112 6.27245 45.8882 6.54859 45.8882V46.3882V46.8882ZM6.64694 45.8882C6.92308 45.8882 7.14694 46.112 7.14694 46.3882C7.14694 46.6643 6.92308 46.8882 6.64694 46.8882V46.3882V45.8882ZM9.59748 46.8882C9.32133 46.8882 9.09748 46.6643 9.09748 46.3882C9.09748 46.112 9.32133 45.8882 9.59748 45.8882V46.3882V46.8882ZM9.69583 45.8882C9.97197 45.8882 10.1958 46.112 10.1958 46.3882C10.1958 46.6643 9.97197 46.8882 9.69583 46.8882V46.3882V45.8882ZM12.6464 46.8882C12.3702 46.8882 12.1464 46.6643 12.1464 46.3882C12.1464 46.112 12.3702 45.8882 12.6464 45.8882V46.3882V46.8882ZM12.7447 45.8882C13.0209 45.8882 13.2447 46.112 13.2447 46.3882C13.2447 46.6643 13.0209 46.8882 12.7447 46.8882V46.3882V45.8882ZM15.6952 46.8882C15.4191 46.8882 15.1952 46.6643 15.1952 46.3882C15.1952 46.112 15.4191 45.8882 15.6952 45.8882V46.3882V46.8882ZM15.7936 45.8882C16.0697 45.8882 16.2936 46.112 16.2936 46.3882C16.2936 46.6643 16.0697 46.8882 15.7936 46.8882V46.3882V45.8882ZM18.7441 46.8882C18.468 46.8882 18.2441 46.6643 18.2441 46.3882C18.2441 46.112 18.468 45.8882 18.7441 45.8882V46.3882V46.8882ZM18.8425 45.8882C19.1186 45.8882 19.3425 46.112 19.3425 46.3882C19.3425 46.6643 19.1186 46.8882 18.8425 46.8882V46.3882V45.8882ZM21.793 46.8882C21.5169 46.8882 21.293 46.6643 21.293 46.3882C21.293 46.112 21.5169 45.8882 21.793 45.8882V46.3882V46.8882ZM21.8914 45.8882C22.1675 45.8882 22.3914 46.112 22.3914 46.3882C22.3914 46.6643 22.1675 46.8882 21.8914 46.8882V46.3882V45.8882ZM24.8419 46.8882C24.5658 46.8882 24.3419 46.6643 24.3419 46.3882C24.3419 46.112 24.5658 45.8882 24.8419 45.8882V46.3882V46.8882ZM24.9402 45.8882C25.2164 45.8882 25.4402 46.112 25.4402 46.3882C25.4402 46.6643 25.2164 46.8882 24.9402 46.8882V46.3882V45.8882ZM27.8908 46.8882C27.6146 46.8882 27.3908 46.6643 27.3908 46.3882C27.3908 46.112 27.6146 45.8882 27.8908 45.8882V46.3882V46.8882ZM27.9891 45.8882C28.2653 45.8882 28.4891 46.112 28.4891 46.3882C28.4891 46.6643 28.2653 46.8882 27.9891 46.8882V46.3882V45.8882ZM30.9397 46.8882C30.6635 46.8882 30.4397 46.6643 30.4397 46.3882C30.4397 46.112 30.6635 45.8882 30.9397 45.8882V46.3882V46.8882ZM31.038 45.8882C31.3142 45.8882 31.538 46.112 31.538 46.3882C31.538 46.6643 31.3142 46.8882 31.038 46.8882V46.3882V45.8882ZM33.9885 46.8882C33.7124 46.8882 33.4885 46.6643 33.4885 46.3882C33.4885 46.112 33.7124 45.8882 33.9885 45.8882V46.3882V46.8882ZM34.0869 45.8882C34.363 45.8882 34.5869 46.112 34.5869 46.3882C34.5869 46.6643 34.363 46.8882 34.0869 46.8882V46.3882V45.8882ZM37.0374 46.8882C36.7613 46.8882 36.5374 46.6643 36.5374 46.3882C36.5374 46.112 36.7613 45.8882 37.0374 45.8882V46.3882V46.8882ZM37.1358 45.8882C37.4119 45.8882 37.6358 46.112 37.6358 46.3882C37.6358 46.6643 37.4119 46.8882 37.1358 46.8882V46.3882V45.8882ZM40.0863 46.8882C39.8102 46.8882 39.5863 46.6643 39.5863 46.3882C39.5863 46.112 39.8102 45.8882 40.0863 45.8882V46.3882V46.8882ZM40.1847 45.8882C40.4608 45.8882 40.6847 46.112 40.6847 46.3882C40.6847 46.6643 40.4608 46.8882 40.1847 46.8882V46.3882V45.8882ZM43.1352 46.8882C42.859 46.8882 42.6352 46.6643 42.6352 46.3882C42.6352 46.112 42.859 45.8882 43.1352 45.8882V46.3882V46.8882ZM43.2335 45.8882C43.5097 45.8882 43.7335 46.112 43.7335 46.3882C43.7335 46.6643 43.5097 46.8882 43.2335 46.8882V46.3882V45.8882ZM46.1841 46.8882C45.9079 46.8882 45.6841 46.6643 45.6841 46.3882C45.6841 46.112 45.9079 45.8882 46.1841 45.8882V46.3882V46.8882ZM46.2824 45.8882C46.5586 45.8882 46.7824 46.112 46.7824 46.3882C46.7824 46.6643 46.5586 46.8882 46.2824 46.8882V46.3882V45.8882ZM49.233 46.8882C48.9568 46.8882 48.733 46.6643 48.733 46.3882C48.733 46.112 48.9568 45.8882 49.233 45.8882V46.3882V46.8882ZM49.3313 45.8882C49.6074 45.8882 49.8313 46.112 49.8313 46.3882C49.8313 46.6643 49.6074 46.8882 49.3313 46.8882V46.3882V45.8882ZM52.2818 46.8882C52.0057 46.8882 51.7818 46.6643 51.7818 46.3882C51.7818 46.112 52.0057 45.8882 52.2818 45.8882V46.3882V46.8882ZM52.3802 45.8882C52.6563 45.8882 52.8802 46.112 52.8802 46.3882C52.8802 46.6643 52.6563 46.8882 52.3802 46.8882V46.3882V45.8882ZM55.3307 46.8882C55.0546 46.8882 54.8307 46.6643 54.8307 46.3882C54.8307 46.112 55.0546 45.8882 55.3307 45.8882V46.3882V46.8882ZM55.4291 45.8882C55.7052 45.8882 55.9291 46.112 55.9291 46.3882C55.9291 46.6643 55.7052 46.8882 55.4291 46.8882V46.3882V45.8882ZM58.3796 46.8882C58.1035 46.8882 57.8796 46.6643 57.8796 46.3882C57.8796 46.112 58.1035 45.8882 58.3796 45.8882V46.3882V46.8882ZM58.4779 45.8882C58.7541 45.8882 58.9779 46.112 58.9779 46.3882C58.9779 46.6643 58.7541 46.8882 58.4779 46.8882V46.3882V45.8882ZM61.4285 46.8882C61.1523 46.8882 60.9285 46.6643 60.9285 46.3882C60.9285 46.112 61.1523 45.8882 61.4285 45.8882V46.3882V46.8882ZM61.5268 45.8882C61.803 45.8882 62.0268 46.112 62.0268 46.3882C62.0268 46.6643 61.803 46.8882 61.5268 46.8882V46.3882V45.8882ZM64.4774 46.8882C64.2012 46.8882 63.9774 46.6643 63.9774 46.3882C63.9774 46.112 64.2012 45.8882 64.4774 45.8882V46.3882V46.8882ZM64.5757 45.8882C64.8519 45.8882 65.0757 46.112 65.0757 46.3882C65.0757 46.6643 64.8519 46.8882 64.5757 46.8882V46.3882V45.8882ZM67.5262 46.8882C67.2501 46.8882 67.0262 46.6643 67.0262 46.3882C67.0262 46.112 67.2501 45.8882 67.5262 45.8882V46.3882V46.8882ZM67.0754 46.3382C67.0754 46.062 67.2993 45.8382 67.5754 45.8382C67.8516 45.8382 68.0754 46.062 68.0754 46.3382H67.5754H67.0754ZM68.0754 43.3399C68.0754 43.616 67.8516 43.8399 67.5754 43.8399C67.2993 43.8399 67.0754 43.616 67.0754 43.3399H67.5754H68.0754ZM67.0754 43.2399C67.0754 42.9638 67.2993 42.7399 67.5754 42.7399C67.8516 42.7399 68.0754 42.9638 68.0754 43.2399H67.5754H67.0754ZM68.0754 40.2416C68.0754 40.5178 67.8516 40.7416 67.5754 40.7416C67.2993 40.7416 67.0754 40.5178 67.0754 40.2416H67.5754H68.0754ZM67.0754 40.1417C67.0754 39.8655 67.2993 39.6417 67.5754 39.6417C67.8516 39.6417 68.0754 39.8655 68.0754 40.1417H67.5754H67.0754ZM68.0754 37.1434C68.0754 37.4195 67.8516 37.6434 67.5754 37.6434C67.2993 37.6434 67.0754 37.4195 67.0754 37.1434H67.5754H68.0754ZM67.0754 37.0434C67.0754 36.7673 67.2993 36.5434 67.5754 36.5434C67.8516 36.5434 68.0754 36.7673 68.0754 37.0434H67.5754H67.0754ZM68.0754 34.0451C68.0754 34.3212 67.8516 34.5451 67.5754 34.5451C67.2993 34.5451 67.0754 34.3212 67.0754 34.0451H67.5754H68.0754ZM0.5 46.3882V45.8882H0.549179V46.3882V46.8882H0.5V46.3882ZM3.49971 46.3882V45.8882H3.59806V46.3882V46.8882H3.49971V46.3882ZM6.54859 46.3882V45.8882H6.64694V46.3882V46.8882H6.54859V46.3882ZM9.59748 46.3882V45.8882H9.69583V46.3882V46.8882H9.59748V46.3882ZM12.6464 46.3882V45.8882H12.7447V46.3882V46.8882H12.6464V46.3882ZM15.6952 46.3882V45.8882H15.7936V46.3882V46.8882H15.6952V46.3882ZM18.7441 46.3882V45.8882H18.8425V46.3882V46.8882H18.7441V46.3882ZM21.793 46.3882V45.8882H21.8914V46.3882V46.8882H21.793V46.3882ZM24.8419 46.3882V45.8882H24.9402V46.3882V46.8882H24.8419V46.3882ZM27.8908 46.3882V45.8882H27.9891V46.3882V46.8882H27.8908V46.3882ZM30.9397 46.3882V45.8882H31.038V46.3882V46.8882H30.9397V46.3882ZM33.9885 46.3882V45.8882H34.0869V46.3882V46.8882H33.9885V46.3882ZM37.0374 46.3882V45.8882H37.1358V46.3882V46.8882H37.0374V46.3882ZM40.0863 46.3882V45.8882H40.1847V46.3882V46.8882H40.0863V46.3882ZM43.1352 46.3882V45.8882H43.2335V46.3882V46.8882H43.1352V46.3882ZM46.1841 46.3882V45.8882H46.2824V46.3882V46.8882H46.1841V46.3882ZM49.233 46.3882V45.8882H49.3313V46.3882V46.8882H49.233V46.3882ZM52.2818 46.3882V45.8882H52.3802V46.3882V46.8882H52.2818V46.3882ZM55.3307 46.3882V45.8882H55.4291V46.3882V46.8882H55.3307V46.3882ZM58.3796 46.3882V45.8882H58.4779V46.3882V46.8882H58.3796V46.3882ZM61.4285 46.3882V45.8882H61.5268V46.3882V46.8882H61.4285V46.3882ZM64.4774 46.3882V45.8882H64.5757V46.3882V46.8882H64.4774V46.3882ZM67.5262 46.3882V45.8882H67.5754V46.3882V46.8882H67.5262V46.3882ZM67.5754 46.3882H67.0754V46.3382H67.5754H68.0754V46.3882H67.5754ZM67.5754 43.3399H67.0754V43.2399H67.5754H68.0754V43.3399H67.5754ZM67.5754 40.2416H67.0754V40.1417H67.5754H68.0754V40.2416H67.5754ZM67.5754 37.1434H67.0754V37.0434H67.5754H68.0754V37.1434H67.5754ZM67.5754 34.0451H67.0754V33.9951H67.5754H68.0754V34.0451H67.5754Z" fill="#131619"/>
<path d="M120.69 46.3872H120.44V46.6372H120.69V46.3872ZM199.14 46.6381C199.278 46.6381 199.39 46.5262 199.39 46.3881C199.39 46.25 199.278 46.1381 199.14 46.1381V46.3881V46.6381ZM197.203 46.1381C197.065 46.1381 196.953 46.25 196.953 46.3881C196.953 46.5261 197.065 46.6381 197.203 46.6381V46.3881V46.1381ZM192.361 46.638C192.499 46.638 192.611 46.5261 192.611 46.388C192.611 46.2499 192.499 46.138 192.361 46.138V46.388V46.638ZM188.487 46.138C188.349 46.138 188.237 46.2499 188.237 46.388C188.237 46.526 188.349 46.638 188.487 46.638V46.388V46.138ZM183.644 46.6379C183.782 46.6379 183.894 46.526 183.894 46.3879C183.894 46.2498 183.782 46.1379 183.644 46.1379V46.3879V46.6379ZM179.77 46.1379C179.632 46.1379 179.52 46.2498 179.52 46.3879C179.52 46.5259 179.632 46.6379 179.77 46.6379V46.3879V46.1379ZM174.927 46.6378C175.066 46.6378 175.177 46.5259 175.177 46.3878C175.177 46.2497 175.066 46.1378 174.927 46.1378V46.3878V46.6378ZM171.053 46.1378C170.915 46.1378 170.803 46.2497 170.803 46.3878C170.803 46.5258 170.915 46.6378 171.053 46.6378V46.3878V46.1378ZM166.211 46.6377C166.349 46.6377 166.461 46.5258 166.461 46.3877C166.461 46.2496 166.349 46.1377 166.211 46.1377V46.3877V46.6377ZM162.337 46.1377C162.199 46.1377 162.087 46.2496 162.087 46.3877C162.087 46.5257 162.199 46.6377 162.337 46.6377V46.3877V46.1377ZM157.494 46.6376C157.632 46.6376 157.744 46.5257 157.744 46.3876C157.744 46.2495 157.632 46.1376 157.494 46.1376V46.3876V46.6376ZM153.62 46.1376C153.482 46.1376 153.37 46.2495 153.37 46.3876C153.37 46.5256 153.482 46.6376 153.62 46.6376V46.3876V46.1376ZM148.777 46.6375C148.916 46.6375 149.027 46.5256 149.027 46.3875C149.027 46.2494 148.916 46.1375 148.777 46.1375V46.3875V46.6375ZM144.903 46.1375C144.765 46.1375 144.653 46.2494 144.653 46.3875C144.653 46.5255 144.765 46.6375 144.903 46.6375V46.3875V46.1375ZM140.061 46.6374C140.199 46.6374 140.311 46.5255 140.311 46.3874C140.311 46.2493 140.199 46.1374 140.061 46.1374V46.3874V46.6374ZM136.187 46.1374C136.049 46.1374 135.937 46.2493 135.937 46.3873C135.937 46.5254 136.049 46.6374 136.187 46.6374V46.3874V46.1374ZM131.344 46.6373C131.482 46.6373 131.594 46.5254 131.594 46.3873C131.594 46.2492 131.482 46.1373 131.344 46.1373V46.3873V46.6373ZM127.47 46.1373C127.332 46.1372 127.22 46.2492 127.22 46.3872C127.22 46.5253 127.332 46.6372 127.47 46.6373V46.3873V46.1373ZM122.627 46.6372C122.766 46.6372 122.877 46.5253 122.877 46.3872C122.877 46.2491 122.766 46.1372 122.627 46.1372V46.3872V46.6372ZM120.94 44.9523C120.94 44.8143 120.829 44.7023 120.69 44.7023C120.552 44.7023 120.44 44.8143 120.44 44.9523H120.69H120.94ZM120.44 41.3652C120.44 41.5033 120.552 41.6152 120.69 41.6152C120.829 41.6152 120.94 41.5033 120.94 41.3652H120.69H120.44ZM199.14 46.3881V46.1381H197.203V46.3881V46.6381H199.14V46.3881ZM192.361 46.388V46.138H188.487V46.388V46.638H192.361V46.388ZM183.644 46.3879V46.1379H179.77V46.3879V46.6379H183.644V46.3879ZM174.927 46.3878V46.1378H171.053V46.3878V46.6378H174.927V46.3878ZM166.211 46.3877V46.1377H162.337V46.3877V46.6377H166.211V46.3877ZM157.494 46.3876V46.1376H153.62V46.3876V46.6376H157.494V46.3876ZM148.777 46.3875V46.1375H144.903V46.3875V46.6375H148.777V46.3875ZM140.061 46.3874V46.1374H136.187V46.3874V46.6374H140.061V46.3874ZM131.344 46.3873V46.1373H127.47V46.3873V46.6373H131.344V46.3873ZM122.627 46.3872V46.1372H120.69V46.3872V46.6372H122.627V46.3872ZM120.69 46.3872H120.94V44.9523H120.69H120.44V46.3872H120.69ZM120.69 41.3652H120.94V39.9304H120.69H120.44V41.3652H120.69Z" fill="#131619"/>
<path d="M67.5474 39.9507C70.1788 39.9507 72.312 37.8175 72.312 35.186C72.312 32.5546 70.1788 30.4214 67.5474 30.4214C64.9159 30.4214 62.7827 32.5546 62.7827 35.186C62.7827 37.8175 64.9159 39.9507 67.5474 39.9507Z" fill="white" stroke="#131619" stroke-width="1.5"/>
<path d="M77.787 13.668C77.2456 13.668 76.7883 13.5607 76.415 13.346C76.0416 13.122 75.7476 12.8233 75.533 12.45L75.225 13.5H74.357V4.148H75.533V7.648C75.7476 7.284 76.0416 6.99467 76.415 6.78C76.7883 6.556 77.2456 6.444 77.787 6.444C78.319 6.444 78.809 6.58867 79.257 6.878C79.7143 7.158 80.0783 7.56867 80.349 8.11C80.629 8.642 80.769 9.29067 80.769 10.056C80.769 10.8213 80.629 11.4747 80.349 12.016C80.0783 12.548 79.7143 12.9587 79.257 13.248C78.809 13.528 78.319 13.668 77.787 13.668ZM77.479 12.66C78.0763 12.66 78.5523 12.4313 78.907 11.974C79.271 11.5167 79.453 10.8773 79.453 10.056C79.453 9.22533 79.271 8.586 78.907 8.138C78.5523 7.68067 78.0763 7.452 77.479 7.452C76.8816 7.452 76.401 7.68067 76.037 8.138C75.6823 8.586 75.505 9.22533 75.505 10.056C75.505 10.8773 75.6823 11.5167 76.037 11.974C76.401 12.4313 76.8816 12.66 77.479 12.66ZM82.2866 13.5V6.556H83.1406L83.5186 7.844C83.7613 7.424 84.088 7.088 84.4986 6.836C84.9186 6.57467 85.418 6.444 85.9966 6.444V7.662C85.9313 7.662 85.8613 7.662 85.7866 7.662C85.7213 7.662 85.656 7.66667 85.5906 7.676C84.7973 7.74133 84.242 8.01667 83.9246 8.502C83.6166 8.98733 83.4626 9.65933 83.4626 10.518V13.5H82.2866ZM89.9985 13.668C89.2705 13.668 88.6545 13.5093 88.1505 13.192C87.6465 12.8653 87.2591 12.4313 86.9885 11.89C86.7271 11.3393 86.5965 10.7233 86.5965 10.042C86.5965 9.30467 86.7458 8.67 87.0445 8.138C87.3431 7.59667 87.7445 7.18133 88.2485 6.892C88.7618 6.59333 89.3358 6.444 89.9705 6.444C90.5211 6.444 91.0065 6.556 91.4265 6.78C91.8465 6.99467 92.1918 7.28867 92.4625 7.662C92.7425 8.026 92.9431 8.44133 93.0645 8.908C93.1951 9.37467 93.2418 9.85533 93.2045 10.35H87.8565C87.8751 10.9287 88.0011 11.386 88.2345 11.722C88.4771 12.058 88.7618 12.296 89.0885 12.436C89.4151 12.5667 89.7185 12.632 89.9985 12.632C90.3905 12.632 90.7171 12.5713 90.9785 12.45C91.2491 12.3193 91.4638 12.1513 91.6225 11.946L92.7565 12.282C92.5045 12.6833 92.1451 13.0147 91.6785 13.276C91.2118 13.5373 90.6518 13.668 89.9985 13.668ZM87.8705 9.412H91.9585C91.9585 9.08533 91.8745 8.77267 91.7065 8.474C91.5478 8.17533 91.3191 7.93267 91.0205 7.746C90.7311 7.55 90.3811 7.452 89.9705 7.452C89.6251 7.452 89.2985 7.51733 88.9905 7.648C88.6825 7.77867 88.4258 7.98867 88.2205 8.278C88.0245 8.56733 87.9078 8.94533 87.8705 9.412ZM97.3773 13.668C96.7147 13.668 96.1407 13.514 95.6553 13.206C95.17 12.8887 94.7967 12.4593 94.5353 11.918C94.274 11.3767 94.1433 10.756 94.1433 10.056C94.1433 9.36533 94.2787 8.74933 94.5493 8.208C94.8293 7.65733 95.2213 7.228 95.7253 6.92C96.2293 6.60267 96.822 6.444 97.5033 6.444C98.1287 6.444 98.6653 6.598 99.1133 6.906C99.5613 7.214 99.8973 7.58267 100.121 8.012L99.0433 8.404C98.894 8.124 98.6747 7.9 98.3853 7.732C98.096 7.564 97.774 7.48 97.4193 7.48C97.074 7.48 96.7473 7.57333 96.4393 7.76C96.1313 7.93733 95.884 8.21733 95.6973 8.6C95.5107 8.97333 95.4173 9.454 95.4173 10.042C95.4173 10.6207 95.5107 11.106 95.6973 11.498C95.8933 11.8807 96.1407 12.1653 96.4393 12.352C96.7473 12.5387 97.074 12.632 97.4193 12.632C97.802 12.632 98.1333 12.548 98.4133 12.38C98.7027 12.2027 98.922 11.9833 99.0713 11.722L100.149 12.114C99.888 12.562 99.5147 12.9353 99.0293 13.234C98.544 13.5233 97.9933 13.668 97.3773 13.668ZM101.591 13.5V4.148H102.767V7.606C102.963 7.27933 103.239 7.004 103.593 6.78C103.948 6.556 104.419 6.444 105.007 6.444C105.847 6.444 106.44 6.69133 106.785 7.186C107.131 7.67133 107.303 8.31067 107.303 9.104V13.5H106.127V9.454C106.127 9.09933 106.095 8.77267 106.029 8.474C105.964 8.166 105.819 7.91867 105.595 7.732C105.381 7.54533 105.049 7.452 104.601 7.452C104.032 7.452 103.584 7.648 103.257 8.04C102.931 8.42267 102.767 8.98733 102.767 9.734V13.5H101.591ZM111.18 13.668C110.741 13.668 110.34 13.5887 109.976 13.43C109.612 13.2713 109.323 13.0427 109.108 12.744C108.893 12.4453 108.786 12.086 108.786 11.666C108.786 11.1153 108.977 10.6813 109.36 10.364C109.752 10.0467 110.298 9.804 110.998 9.636C111.707 9.45867 112.533 9.31867 113.476 9.216C113.495 8.628 113.378 8.17533 113.126 7.858C112.874 7.54067 112.468 7.382 111.908 7.382C111.488 7.382 111.143 7.48 110.872 7.676C110.611 7.86267 110.443 8.124 110.368 8.46L109.234 8.124C109.421 7.592 109.752 7.18133 110.228 6.892C110.713 6.59333 111.269 6.444 111.894 6.444C112.855 6.444 113.555 6.67267 113.994 7.13C114.442 7.578 114.666 8.28733 114.666 9.258V10.882C114.666 11.4607 114.689 11.96 114.736 12.38C114.783 12.8 114.839 13.1733 114.904 13.5H113.826L113.546 12.548C113.341 12.8933 113.047 13.1687 112.664 13.374C112.281 13.57 111.787 13.668 111.18 13.668ZM111.432 12.73C111.796 12.73 112.141 12.6647 112.468 12.534C112.795 12.4033 113.061 12.184 113.266 11.876C113.471 11.5587 113.574 11.1293 113.574 10.588V10.154C112.865 10.2287 112.249 10.322 111.726 10.434C111.203 10.5367 110.797 10.686 110.508 10.882C110.228 11.0687 110.088 11.3207 110.088 11.638C110.088 11.9647 110.205 12.2307 110.438 12.436C110.681 12.632 111.012 12.73 111.432 12.73Z" fill="#131619"/>
</g>
<defs>
<clipPath id="clip0_1004_10">
<rect width="200" height="47" fill="white"/>
</clipPath>
</defs>
</svg>
