<svg width="200" height="22" viewBox="0 0 200 22" fill="none" xmlns="http://www.w3.org/2000/svg">
<path d="M139.864 13.668C139.463 13.668 139.066 13.598 138.674 13.458C138.282 13.318 137.923 13.1033 137.596 12.814C137.279 12.5153 137.022 12.1373 136.826 11.68C136.63 11.2227 136.532 10.6813 136.532 10.056C136.532 9.43067 136.63 8.88933 136.826 8.432C137.022 7.97467 137.279 7.60133 137.596 7.312C137.923 7.01333 138.282 6.794 138.674 6.654C139.066 6.514 139.463 6.444 139.864 6.444C140.265 6.444 140.662 6.514 141.054 6.654C141.455 6.794 141.815 7.01333 142.132 7.312C142.459 7.60133 142.715 7.97467 142.902 8.432C143.098 8.88933 143.196 9.43067 143.196 10.056C143.196 10.6813 143.098 11.2227 142.902 11.68C142.715 12.1373 142.459 12.5153 142.132 12.814C141.815 13.1033 141.455 13.318 141.054 13.458C140.662 13.598 140.265 13.668 139.864 13.668ZM139.864 12.632C140.2 12.632 140.527 12.5433 140.844 12.366C141.161 12.1793 141.423 11.8993 141.628 11.526C141.833 11.1433 141.936 10.6533 141.936 10.056C141.936 9.45867 141.833 8.97333 141.628 8.6C141.423 8.21733 141.161 7.93733 140.844 7.76C140.527 7.57333 140.2 7.48 139.864 7.48C139.537 7.48 139.211 7.57333 138.884 7.76C138.567 7.93733 138.305 8.21733 138.1 8.6C137.895 8.97333 137.792 9.45867 137.792 10.056C137.792 10.6533 137.895 11.1433 138.1 11.526C138.305 11.8993 138.567 12.1793 138.884 12.366C139.211 12.5433 139.537 12.632 139.864 12.632ZM148.135 13.668C147.593 13.668 147.136 13.5607 146.763 13.346C146.389 13.122 146.095 12.8233 145.881 12.45L145.573 13.5H144.705V4.148H145.881V7.648C146.095 7.284 146.389 6.99467 146.763 6.78C147.136 6.556 147.593 6.444 148.135 6.444C148.667 6.444 149.157 6.58867 149.605 6.878C150.062 7.158 150.426 7.56867 150.697 8.11C150.977 8.642 151.117 9.29067 151.117 10.056C151.117 10.8213 150.977 11.4747 150.697 12.016C150.426 12.548 150.062 12.9587 149.605 13.248C149.157 13.528 148.667 13.668 148.135 13.668ZM147.827 12.66C148.424 12.66 148.9 12.4313 149.255 11.974C149.619 11.5167 149.801 10.8773 149.801 10.056C149.801 9.22533 149.619 8.586 149.255 8.138C148.9 7.68067 148.424 7.452 147.827 7.452C147.229 7.452 146.749 7.68067 146.385 8.138C146.03 8.586 145.853 9.22533 145.853 10.056C145.853 10.8773 146.03 11.5167 146.385 11.974C146.749 12.4313 147.229 12.66 147.827 12.66ZM155 13.668C154.599 13.668 154.202 13.6073 153.81 13.486C153.428 13.3553 153.082 13.164 152.774 12.912C152.476 12.6507 152.247 12.324 152.088 11.932L153.222 11.512C153.325 11.9227 153.549 12.2213 153.894 12.408C154.249 12.5853 154.618 12.674 155 12.674C155.28 12.674 155.542 12.632 155.784 12.548C156.036 12.464 156.242 12.3427 156.4 12.184C156.559 12.0253 156.638 11.8433 156.638 11.638C156.638 11.2553 156.484 10.9847 156.176 10.826C155.878 10.6673 155.518 10.546 155.098 10.462L154.132 10.266C153.796 10.1913 153.484 10.0887 153.194 9.958C152.905 9.818 152.672 9.622 152.494 9.37C152.317 9.118 152.228 8.782 152.228 8.362C152.228 7.942 152.359 7.592 152.62 7.312C152.882 7.02267 153.213 6.80333 153.614 6.654C154.025 6.50467 154.454 6.43 154.902 6.43C155.453 6.43 155.971 6.54667 156.456 6.78C156.951 7.004 157.301 7.35867 157.506 7.844L156.4 8.25C156.279 7.97 156.064 7.76467 155.756 7.634C155.458 7.494 155.145 7.424 154.818 7.424C154.464 7.424 154.142 7.50333 153.852 7.662C153.563 7.82067 153.418 8.04933 153.418 8.348C153.418 8.64667 153.54 8.866 153.782 9.006C154.034 9.13667 154.342 9.23933 154.706 9.314L155.616 9.496C155.99 9.57067 156.344 9.678 156.68 9.818C157.016 9.958 157.292 10.168 157.506 10.448C157.721 10.7187 157.828 11.1013 157.828 11.596C157.828 12.0347 157.693 12.408 157.422 12.716C157.152 13.024 156.802 13.262 156.372 13.43C155.943 13.5887 155.486 13.668 155 13.668ZM162.178 13.668C161.45 13.668 160.834 13.5093 160.33 13.192C159.826 12.8653 159.439 12.4313 159.168 11.89C158.907 11.3393 158.776 10.7233 158.776 10.042C158.776 9.30467 158.925 8.67 159.224 8.138C159.523 7.59667 159.924 7.18133 160.428 6.892C160.941 6.59333 161.515 6.444 162.15 6.444C162.701 6.444 163.186 6.556 163.606 6.78C164.026 6.99467 164.371 7.28867 164.642 7.662C164.922 8.026 165.123 8.44133 165.244 8.908C165.375 9.37467 165.421 9.85533 165.384 10.35H160.036C160.055 10.9287 160.181 11.386 160.414 11.722C160.657 12.058 160.941 12.296 161.268 12.436C161.595 12.5667 161.898 12.632 162.178 12.632C162.57 12.632 162.897 12.5713 163.158 12.45C163.429 12.3193 163.643 12.1513 163.802 11.946L164.936 12.282C164.684 12.6833 164.325 13.0147 163.858 13.276C163.391 13.5373 162.831 13.668 162.178 13.668ZM160.05 9.412H164.138C164.138 9.08533 164.054 8.77267 163.886 8.474C163.727 8.17533 163.499 7.93267 163.2 7.746C162.911 7.55 162.561 7.452 162.15 7.452C161.805 7.452 161.478 7.51733 161.17 7.648C160.862 7.77867 160.605 7.98867 160.4 8.278C160.204 8.56733 160.087 8.94533 160.05 9.412ZM166.771 13.5V6.556H167.625L168.003 7.844C168.246 7.424 168.572 7.088 168.983 6.836C169.403 6.57467 169.902 6.444 170.481 6.444V7.662C170.416 7.662 170.346 7.662 170.271 7.662C170.206 7.662 170.14 7.66667 170.075 7.676C169.282 7.74133 168.726 8.01667 168.409 8.502C168.101 8.98733 167.947 9.65933 167.947 10.518V13.5H166.771ZM173.396 13.5L170.918 6.556H172.192L174.012 11.96L175.818 6.556H177.092L174.614 13.5H173.396ZM179.764 13.668C179.325 13.668 178.924 13.5887 178.56 13.43C178.196 13.2713 177.907 13.0427 177.692 12.744C177.477 12.4453 177.37 12.086 177.37 11.666C177.37 11.1153 177.561 10.6813 177.944 10.364C178.336 10.0467 178.882 9.804 179.582 9.636C180.291 9.45867 181.117 9.31867 182.06 9.216C182.079 8.628 181.962 8.17533 181.71 7.858C181.458 7.54067 181.052 7.382 180.492 7.382C180.072 7.382 179.727 7.48 179.456 7.676C179.195 7.86267 179.027 8.124 178.952 8.46L177.818 8.124C178.005 7.592 178.336 7.18133 178.812 6.892C179.297 6.59333 179.853 6.444 180.478 6.444C181.439 6.444 182.139 6.67267 182.578 7.13C183.026 7.578 183.25 8.28733 183.25 9.258V10.882C183.25 11.4607 183.273 11.96 183.32 12.38C183.367 12.8 183.423 13.1733 183.488 13.5H182.41L182.13 12.548C181.925 12.8933 181.631 13.1687 181.248 13.374C180.865 13.57 180.371 13.668 179.764 13.668ZM180.016 12.73C180.38 12.73 180.725 12.6647 181.052 12.534C181.379 12.4033 181.645 12.184 181.85 11.876C182.055 11.5587 182.158 11.1293 182.158 10.588V10.154C181.449 10.2287 180.833 10.322 180.31 10.434C179.787 10.5367 179.381 10.686 179.092 10.882C178.812 11.0687 178.672 11.3207 178.672 11.638C178.672 11.9647 178.789 12.2307 179.022 12.436C179.265 12.632 179.596 12.73 180.016 12.73ZM187.721 13.668C187.198 13.668 186.708 13.528 186.251 13.248C185.794 12.9587 185.425 12.548 185.145 12.016C184.874 11.4747 184.739 10.8213 184.739 10.056C184.739 9.29067 184.874 8.642 185.145 8.11C185.425 7.56867 185.794 7.158 186.251 6.878C186.708 6.58867 187.198 6.444 187.721 6.444C188.272 6.444 188.734 6.556 189.107 6.78C189.48 6.99467 189.77 7.284 189.975 7.648V4.148H191.151V10.882C191.151 11.1153 191.16 11.4607 191.179 11.918C191.198 12.366 191.268 12.8933 191.389 13.5H190.283L189.975 12.45C189.77 12.8233 189.48 13.122 189.107 13.346C188.734 13.5607 188.272 13.668 187.721 13.668ZM188.029 12.66C188.626 12.66 189.102 12.4313 189.457 11.974C189.821 11.5167 190.003 10.8773 190.003 10.056C190.003 9.22533 189.821 8.586 189.457 8.138C189.102 7.68067 188.626 7.452 188.029 7.452C187.432 7.452 186.951 7.68067 186.587 8.138C186.232 8.586 186.055 9.22533 186.055 10.056C186.055 10.8773 186.232 11.5167 186.587 11.974C186.951 12.4313 187.432 12.66 188.029 12.66ZM195.035 13.668C194.597 13.668 194.195 13.5887 193.831 13.43C193.467 13.2713 193.178 13.0427 192.963 12.744C192.749 12.4453 192.641 12.086 192.641 11.666C192.641 11.1153 192.833 10.6813 193.215 10.364C193.607 10.0467 194.153 9.804 194.853 9.636C195.563 9.45867 196.389 9.31867 197.331 9.216C197.35 8.628 197.233 8.17533 196.981 7.858C196.729 7.54067 196.323 7.382 195.763 7.382C195.343 7.382 194.998 7.48 194.727 7.676C194.466 7.86267 194.298 8.124 194.223 8.46L193.089 8.124C193.276 7.592 193.607 7.18133 194.083 6.892C194.569 6.59333 195.124 6.444 195.749 6.444C196.711 6.444 197.411 6.67267 197.849 7.13C198.297 7.578 198.521 8.28733 198.521 9.258V10.882C198.521 11.4607 198.545 11.96 198.591 12.38C198.638 12.8 198.694 13.1733 198.759 13.5H197.681L197.401 12.548C197.196 12.8933 196.902 13.1687 196.519 13.374C196.137 13.57 195.642 13.668 195.035 13.668ZM195.287 12.73C195.651 12.73 195.997 12.6647 196.323 12.534C196.65 12.4033 196.916 12.184 197.121 11.876C197.327 11.5587 197.429 11.1293 197.429 10.588V10.154C196.72 10.2287 196.104 10.322 195.581 10.434C195.059 10.5367 194.653 10.686 194.363 10.882C194.083 11.0687 193.943 11.3207 193.943 11.638C193.943 11.9647 194.06 12.2307 194.293 12.436C194.536 12.632 194.867 12.73 195.287 12.73Z" fill="#131619"/>
<path d="M120.447 14.2144C123.078 14.2144 125.211 12.0812 125.211 9.44971C125.211 6.81826 123.078 4.68506 120.447 4.68506C117.815 4.68506 115.682 6.81826 115.682 9.44971C115.682 12.0812 117.815 14.2144 120.447 14.2144Z" fill="#131619" stroke="#131619" stroke-width="1.5"/>
<path d="M120.125 4.1499V14.7144H67.7974V4.1499H120.125Z" stroke="#131619" stroke-width="0.5" stroke-linecap="square"/>
<path d="M67.5754 20.6518H68.0754V21.1518H67.5754V20.6518ZM0.5 21.1518C0.223862 21.1518 0 20.928 0 20.6518C0 20.3757 0.223862 20.1518 0.5 20.1518V20.6518V21.1518ZM0.549179 20.1518C0.825317 20.1518 1.04918 20.3757 1.04918 20.6518C1.04918 20.928 0.825317 21.1518 0.549179 21.1518V20.6518V20.1518ZM3.49971 21.1518C3.22356 21.1518 2.99971 20.928 2.99971 20.6518C2.99971 20.3757 3.22356 20.1518 3.49971 20.1518V20.6518V21.1518ZM3.59806 20.1518C3.8742 20.1518 4.09806 20.3757 4.09806 20.6518C4.09806 20.928 3.8742 21.1518 3.59806 21.1518V20.6518V20.1518ZM6.54859 21.1518C6.27245 21.1518 6.04859 20.928 6.04859 20.6518C6.04859 20.3757 6.27245 20.1518 6.54859 20.1518V20.6518V21.1518ZM6.64694 20.1518C6.92308 20.1518 7.14694 20.3757 7.14694 20.6518C7.14694 20.928 6.92308 21.1518 6.64694 21.1518V20.6518V20.1518ZM9.59748 21.1518C9.32133 21.1518 9.09748 20.928 9.09748 20.6518C9.09748 20.3757 9.32133 20.1518 9.59748 20.1518V20.6518V21.1518ZM9.69583 20.1518C9.97197 20.1518 10.1958 20.3757 10.1958 20.6518C10.1958 20.928 9.97197 21.1518 9.69583 21.1518V20.6518V20.1518ZM12.6464 21.1518C12.3702 21.1518 12.1464 20.928 12.1464 20.6518C12.1464 20.3757 12.3702 20.1518 12.6464 20.1518V20.6518V21.1518ZM12.7447 20.1518C13.0209 20.1518 13.2447 20.3757 13.2447 20.6518C13.2447 20.928 13.0209 21.1518 12.7447 21.1518V20.6518V20.1518ZM15.6952 21.1518C15.4191 21.1518 15.1952 20.928 15.1952 20.6518C15.1952 20.3757 15.4191 20.1518 15.6952 20.1518V20.6518V21.1518ZM15.7936 20.1518C16.0697 20.1518 16.2936 20.3757 16.2936 20.6518C16.2936 20.928 16.0697 21.1518 15.7936 21.1518V20.6518V20.1518ZM18.7441 21.1518C18.468 21.1518 18.2441 20.928 18.2441 20.6518C18.2441 20.3757 18.468 20.1518 18.7441 20.1518V20.6518V21.1518ZM18.8425 20.1518C19.1186 20.1518 19.3425 20.3757 19.3425 20.6518C19.3425 20.928 19.1186 21.1518 18.8425 21.1518V20.6518V20.1518ZM21.793 21.1518C21.5169 21.1518 21.293 20.928 21.293 20.6518C21.293 20.3757 21.5169 20.1518 21.793 20.1518V20.6518V21.1518ZM21.8914 20.1518C22.1675 20.1518 22.3914 20.3757 22.3914 20.6518C22.3914 20.928 22.1675 21.1518 21.8914 21.1518V20.6518V20.1518ZM24.8419 21.1518C24.5658 21.1518 24.3419 20.928 24.3419 20.6518C24.3419 20.3757 24.5658 20.1518 24.8419 20.1518V20.6518V21.1518ZM24.9402 20.1518C25.2164 20.1518 25.4402 20.3757 25.4402 20.6518C25.4402 20.928 25.2164 21.1518 24.9402 21.1518V20.6518V20.1518ZM27.8908 21.1518C27.6146 21.1518 27.3908 20.928 27.3908 20.6518C27.3908 20.3757 27.6146 20.1518 27.8908 20.1518V20.6518V21.1518ZM27.9891 20.1518C28.2653 20.1518 28.4891 20.3757 28.4891 20.6518C28.4891 20.928 28.2653 21.1518 27.9891 21.1518V20.6518V20.1518ZM30.9397 21.1518C30.6635 21.1518 30.4397 20.928 30.4397 20.6518C30.4397 20.3757 30.6635 20.1518 30.9397 20.1518V20.6518V21.1518ZM31.038 20.1518C31.3142 20.1518 31.538 20.3757 31.538 20.6518C31.538 20.928 31.3142 21.1518 31.038 21.1518V20.6518V20.1518ZM33.9885 21.1518C33.7124 21.1518 33.4885 20.928 33.4885 20.6518C33.4885 20.3757 33.7124 20.1518 33.9885 20.1518V20.6518V21.1518ZM34.0869 20.1518C34.363 20.1518 34.5869 20.3757 34.5869 20.6518C34.5869 20.928 34.363 21.1518 34.0869 21.1518V20.6518V20.1518ZM37.0374 21.1518C36.7613 21.1518 36.5374 20.928 36.5374 20.6518C36.5374 20.3757 36.7613 20.1518 37.0374 20.1518V20.6518V21.1518ZM37.1358 20.1518C37.4119 20.1518 37.6358 20.3757 37.6358 20.6518C37.6358 20.928 37.4119 21.1518 37.1358 21.1518V20.6518V20.1518ZM40.0863 21.1518C39.8102 21.1518 39.5863 20.928 39.5863 20.6518C39.5863 20.3757 39.8102 20.1518 40.0863 20.1518V20.6518V21.1518ZM40.1847 20.1518C40.4608 20.1518 40.6847 20.3757 40.6847 20.6518C40.6847 20.928 40.4608 21.1518 40.1847 21.1518V20.6518V20.1518ZM43.1352 21.1518C42.859 21.1518 42.6352 20.928 42.6352 20.6518C42.6352 20.3757 42.859 20.1518 43.1352 20.1518V20.6518V21.1518ZM43.2335 20.1518C43.5097 20.1518 43.7335 20.3757 43.7335 20.6518C43.7335 20.928 43.5097 21.1518 43.2335 21.1518V20.6518V20.1518ZM46.1841 21.1518C45.9079 21.1518 45.6841 20.928 45.6841 20.6518C45.6841 20.3757 45.9079 20.1518 46.1841 20.1518V20.6518V21.1518ZM46.2824 20.1518C46.5586 20.1518 46.7824 20.3757 46.7824 20.6518C46.7824 20.928 46.5586 21.1518 46.2824 21.1518V20.6518V20.1518ZM49.233 21.1518C48.9568 21.1518 48.733 20.928 48.733 20.6518C48.733 20.3757 48.9568 20.1518 49.233 20.1518V20.6518V21.1518ZM49.3313 20.1518C49.6074 20.1518 49.8313 20.3757 49.8313 20.6518C49.8313 20.928 49.6074 21.1518 49.3313 21.1518V20.6518V20.1518ZM52.2818 21.1518C52.0057 21.1518 51.7818 20.928 51.7818 20.6518C51.7818 20.3757 52.0057 20.1518 52.2818 20.1518V20.6518V21.1518ZM52.3802 20.1518C52.6563 20.1518 52.8802 20.3757 52.8802 20.6518C52.8802 20.928 52.6563 21.1518 52.3802 21.1518V20.6518V20.1518ZM55.3307 21.1518C55.0546 21.1518 54.8307 20.928 54.8307 20.6518C54.8307 20.3757 55.0546 20.1518 55.3307 20.1518V20.6518V21.1518ZM55.4291 20.1518C55.7052 20.1518 55.9291 20.3757 55.9291 20.6518C55.9291 20.928 55.7052 21.1518 55.4291 21.1518V20.6518V20.1518ZM58.3796 21.1518C58.1035 21.1518 57.8796 20.928 57.8796 20.6518C57.8796 20.3757 58.1035 20.1518 58.3796 20.1518V20.6518V21.1518ZM58.4779 20.1518C58.7541 20.1518 58.9779 20.3757 58.9779 20.6518C58.9779 20.928 58.7541 21.1518 58.4779 21.1518V20.6518V20.1518ZM61.4285 21.1518C61.1523 21.1518 60.9285 20.928 60.9285 20.6518C60.9285 20.3757 61.1523 20.1518 61.4285 20.1518V20.6518V21.1518ZM61.5268 20.1518C61.803 20.1518 62.0268 20.3757 62.0268 20.6518C62.0268 20.928 61.803 21.1518 61.5268 21.1518V20.6518V20.1518ZM64.4774 21.1518C64.2012 21.1518 63.9774 20.928 63.9774 20.6518C63.9774 20.3757 64.2012 20.1518 64.4774 20.1518V20.6518V21.1518ZM64.5757 20.1518C64.8519 20.1518 65.0757 20.3757 65.0757 20.6518C65.0757 20.928 64.8519 21.1518 64.5757 21.1518V20.6518V20.1518ZM67.5262 21.1518C67.2501 21.1518 67.0262 20.928 67.0262 20.6518C67.0262 20.3757 67.2501 20.1518 67.5262 20.1518V20.6518V21.1518ZM67.0754 20.6019C67.0754 20.3257 67.2993 20.1019 67.5754 20.1019C67.8516 20.1019 68.0754 20.3257 68.0754 20.6019H67.5754H67.0754ZM68.0754 17.6035C68.0754 17.8797 67.8516 18.1035 67.5754 18.1035C67.2993 18.1035 67.0754 17.8797 67.0754 17.6035H67.5754H68.0754ZM67.0754 17.5036C67.0754 17.2275 67.2993 17.0036 67.5754 17.0036C67.8516 17.0036 68.0754 17.2275 68.0754 17.5036H67.5754H67.0754ZM68.0754 14.5053C68.0754 14.7814 67.8516 15.0053 67.5754 15.0053C67.2993 15.0053 67.0754 14.7814 67.0754 14.5053H67.5754H68.0754ZM67.0754 14.4053C67.0754 14.1292 67.2993 13.9053 67.5754 13.9053C67.8516 13.9053 68.0754 14.1292 68.0754 14.4053H67.5754H67.0754ZM68.0754 11.407C68.0754 11.6832 67.8516 11.907 67.5754 11.907C67.2993 11.907 67.0754 11.6832 67.0754 11.407H67.5754H68.0754ZM67.0754 11.3071C67.0754 11.0309 67.2993 10.8071 67.5754 10.8071C67.8516 10.8071 68.0754 11.0309 68.0754 11.3071H67.5754H67.0754ZM68.0754 8.30876C68.0754 8.5849 67.8516 8.80876 67.5754 8.80876C67.2993 8.80876 67.0754 8.5849 67.0754 8.30876H67.5754H68.0754ZM0.5 20.6518V20.1518H0.549179V20.6518V21.1518H0.5V20.6518ZM3.49971 20.6518V20.1518H3.59806V20.6518V21.1518H3.49971V20.6518ZM6.54859 20.6518V20.1518H6.64694V20.6518V21.1518H6.54859V20.6518ZM9.59748 20.6518V20.1518H9.69583V20.6518V21.1518H9.59748V20.6518ZM12.6464 20.6518V20.1518H12.7447V20.6518V21.1518H12.6464V20.6518ZM15.6952 20.6518V20.1518H15.7936V20.6518V21.1518H15.6952V20.6518ZM18.7441 20.6518V20.1518H18.8425V20.6518V21.1518H18.7441V20.6518ZM21.793 20.6518V20.1518H21.8914V20.6518V21.1518H21.793V20.6518ZM24.8419 20.6518V20.1518H24.9402V20.6518V21.1518H24.8419V20.6518ZM27.8908 20.6518V20.1518H27.9891V20.6518V21.1518H27.8908V20.6518ZM30.9397 20.6518V20.1518H31.038V20.6518V21.1518H30.9397V20.6518ZM33.9885 20.6518V20.1518H34.0869V20.6518V21.1518H33.9885V20.6518ZM37.0374 20.6518V20.1518H37.1358V20.6518V21.1518H37.0374V20.6518ZM40.0863 20.6518V20.1518H40.1847V20.6518V21.1518H40.0863V20.6518ZM43.1352 20.6518V20.1518H43.2335V20.6518V21.1518H43.1352V20.6518ZM46.1841 20.6518V20.1518H46.2824V20.6518V21.1518H46.1841V20.6518ZM49.233 20.6518V20.1518H49.3313V20.6518V21.1518H49.233V20.6518ZM52.2818 20.6518V20.1518H52.3802V20.6518V21.1518H52.2818V20.6518ZM55.3307 20.6518V20.1518H55.4291V20.6518V21.1518H55.3307V20.6518ZM58.3796 20.6518V20.1518H58.4779V20.6518V21.1518H58.3796V20.6518ZM61.4285 20.6518V20.1518H61.5268V20.6518V21.1518H61.4285V20.6518ZM64.4774 20.6518V20.1518H64.5757V20.6518V21.1518H64.4774V20.6518ZM67.5262 20.6518V20.1518H67.5754V20.6518V21.1518H67.5262V20.6518ZM67.5754 20.6518H67.0754V20.6019H67.5754H68.0754V20.6518H67.5754ZM67.5754 17.6035H67.0754V17.5036H67.5754H68.0754V17.6035H67.5754ZM67.5754 14.5053H67.0754V14.4053H67.5754H68.0754V14.5053H67.5754ZM67.5754 11.407H67.0754V11.3071H67.5754H68.0754V11.407H67.5754ZM67.5754 8.30876H67.0754V8.25879H67.5754H68.0754V8.30876H67.5754Z" fill="#131619"/>
<path d="M120.69 20.6508H120.44V20.9008H120.69V20.6508ZM199.14 20.9018C199.278 20.9018 199.39 20.7898 199.39 20.6518C199.39 20.5137 199.278 20.4018 199.14 20.4018V20.6518V20.9018ZM197.203 20.4017C197.065 20.4017 196.953 20.5137 196.953 20.6517C196.953 20.7898 197.065 20.9017 197.203 20.9017V20.6517V20.4017ZM192.361 20.9017C192.499 20.9017 192.611 20.7898 192.611 20.6517C192.611 20.5136 192.499 20.4017 192.361 20.4017V20.6517V20.9017ZM188.487 20.4016C188.349 20.4016 188.237 20.5136 188.237 20.6516C188.237 20.7897 188.349 20.9016 188.487 20.9016V20.6516V20.4016ZM183.644 20.9016C183.782 20.9016 183.894 20.7896 183.894 20.6516C183.894 20.5135 183.782 20.4016 183.644 20.4016V20.6516V20.9016ZM179.77 20.4015C179.632 20.4015 179.52 20.5135 179.52 20.6515C179.52 20.7896 179.632 20.9015 179.77 20.9015V20.6515V20.4015ZM174.927 20.9015C175.066 20.9015 175.177 20.7895 175.177 20.6515C175.177 20.5134 175.066 20.4015 174.927 20.4015V20.6515V20.9015ZM171.053 20.4014C170.915 20.4014 170.803 20.5134 170.803 20.6514C170.803 20.7895 170.915 20.9014 171.053 20.9014V20.6514V20.4014ZM166.211 20.9014C166.349 20.9014 166.461 20.7894 166.461 20.6514C166.461 20.5133 166.349 20.4014 166.211 20.4014V20.6514V20.9014ZM162.337 20.4013C162.199 20.4013 162.087 20.5133 162.087 20.6513C162.087 20.7894 162.199 20.9013 162.337 20.9013V20.6513V20.4013ZM157.494 20.9013C157.632 20.9013 157.744 20.7893 157.744 20.6513C157.744 20.5132 157.632 20.4013 157.494 20.4013V20.6513V20.9013ZM153.62 20.4012C153.482 20.4012 153.37 20.5132 153.37 20.6512C153.37 20.7893 153.482 20.9012 153.62 20.9012V20.6512V20.4012ZM148.777 20.9012C148.916 20.9012 149.027 20.7892 149.027 20.6512C149.027 20.5131 148.916 20.4012 148.777 20.4012V20.6512V20.9012ZM144.903 20.4011C144.765 20.4011 144.653 20.5131 144.653 20.6511C144.653 20.7892 144.765 20.9011 144.903 20.9011V20.6511V20.4011ZM140.061 20.9011C140.199 20.9011 140.311 20.7891 140.311 20.6511C140.311 20.513 140.199 20.4011 140.061 20.4011V20.6511V20.9011ZM136.187 20.401C136.049 20.401 135.937 20.513 135.937 20.651C135.937 20.7891 136.049 20.901 136.187 20.901V20.651V20.401ZM131.344 20.901C131.482 20.901 131.594 20.789 131.594 20.651C131.594 20.5129 131.482 20.401 131.344 20.401V20.651V20.901ZM127.47 20.4009C127.332 20.4009 127.22 20.5128 127.22 20.6509C127.22 20.789 127.332 20.9009 127.47 20.9009V20.6509V20.4009ZM122.627 20.9009C122.766 20.9009 122.877 20.7889 122.877 20.6509C122.877 20.5128 122.766 20.4009 122.627 20.4009V20.6509V20.9009ZM120.94 19.216C120.94 19.0779 120.829 18.966 120.69 18.966C120.552 18.966 120.44 19.0779 120.44 19.216H120.69H120.94ZM120.44 15.6289C120.44 15.767 120.552 15.8789 120.69 15.8789C120.829 15.8789 120.94 15.767 120.94 15.6289H120.69H120.44ZM199.14 20.6518V20.4018L197.203 20.4017V20.6517V20.9017L199.14 20.9018V20.6518ZM192.361 20.6517V20.4017L188.487 20.4016V20.6516V20.9016L192.361 20.9017V20.6517ZM183.644 20.6516V20.4016L179.77 20.4015V20.6515V20.9015L183.644 20.9016V20.6516ZM174.927 20.6515V20.4015L171.053 20.4014V20.6514V20.9014L174.927 20.9015V20.6515ZM166.211 20.6514V20.4014L162.337 20.4013V20.6513V20.9013L166.211 20.9014V20.6514ZM157.494 20.6513V20.4013L153.62 20.4012V20.6512V20.9012L157.494 20.9013V20.6513ZM148.777 20.6512V20.4012L144.903 20.4011V20.6511V20.9011L148.777 20.9012V20.6512ZM140.061 20.6511V20.4011L136.187 20.401V20.651V20.901L140.061 20.9011V20.6511ZM131.344 20.651V20.401L127.47 20.4009V20.6509V20.9009L131.344 20.901V20.651ZM122.627 20.6509V20.4009L120.69 20.4008V20.6508V20.9008L122.627 20.9009V20.6509ZM120.69 20.6508H120.94V19.216H120.69H120.44V20.6508H120.69ZM120.69 15.6289H120.94V14.1941H120.69H120.44V15.6289H120.69Z" fill="#131619"/>
<path d="M67.5474 14.2144C70.1788 14.2144 72.312 12.0812 72.312 9.44971C72.312 6.81826 70.1788 4.68506 67.5474 4.68506C64.9159 4.68506 62.7827 6.81826 62.7827 9.44971C62.7827 12.0812 64.9159 14.2144 67.5474 14.2144Z" fill="white" stroke="#131619" stroke-width="1.5"/>
<path d="M3.514 14.668C2.99133 14.668 2.50133 14.528 2.044 14.248C1.58667 13.9587 1.218 13.548 0.938 13.016C0.667333 12.4747 0.532 11.8213 0.532 11.056C0.532 10.2907 0.667333 9.642 0.938 9.11C1.218 8.56867 1.58667 8.158 2.044 7.878C2.50133 7.58867 2.99133 7.444 3.514 7.444C4.06467 7.444 4.52667 7.556 4.9 7.78C5.27333 7.99467 5.56267 8.284 5.768 8.648V5.148H6.944V11.882C6.944 12.1153 6.95333 12.4607 6.972 12.918C6.99067 13.366 7.06067 13.8933 7.182 14.5H6.076L5.768 13.45C5.56267 13.8233 5.27333 14.122 4.9 14.346C4.52667 14.5607 4.06467 14.668 3.514 14.668ZM3.822 13.66C4.41933 13.66 4.89533 13.4313 5.25 12.974C5.614 12.5167 5.796 11.8773 5.796 11.056C5.796 10.2253 5.614 9.586 5.25 9.138C4.89533 8.68067 4.41933 8.452 3.822 8.452C3.22467 8.452 2.744 8.68067 2.38 9.138C2.02533 9.586 1.848 10.2253 1.848 11.056C1.848 11.8773 2.02533 12.5167 2.38 12.974C2.744 13.4313 3.22467 13.66 3.822 13.66ZM11.8363 14.668C11.1083 14.668 10.4923 14.5093 9.98834 14.192C9.48434 13.8653 9.09701 13.4313 8.82634 12.89C8.56501 12.3393 8.43434 11.7233 8.43434 11.042C8.43434 10.3047 8.58368 9.67 8.88234 9.138C9.18101 8.59667 9.58234 8.18133 10.0863 7.892C10.5997 7.59333 11.1737 7.444 11.8083 7.444C12.359 7.444 12.8443 7.556 13.2643 7.78C13.6843 7.99467 14.0297 8.28867 14.3003 8.662C14.5803 9.026 14.781 9.44133 14.9023 9.908C15.033 10.3747 15.0797 10.8553 15.0423 11.35H9.69434C9.71301 11.9287 9.83901 12.386 10.0723 12.722C10.315 13.058 10.5997 13.296 10.9263 13.436C11.253 13.5667 11.5563 13.632 11.8363 13.632C12.2283 13.632 12.555 13.5713 12.8163 13.45C13.087 13.3193 13.3017 13.1513 13.4603 12.946L14.5943 13.282C14.3423 13.6833 13.983 14.0147 13.5163 14.276C13.0497 14.5373 12.4897 14.668 11.8363 14.668ZM9.70834 10.412H13.7963C13.7963 10.0853 13.7123 9.77267 13.5443 9.474C13.3857 9.17533 13.157 8.93267 12.8583 8.746C12.569 8.55 12.219 8.452 11.8083 8.452C11.463 8.452 11.1363 8.51733 10.8283 8.648C10.5203 8.77867 10.2637 8.98867 10.0583 9.278C9.86234 9.56733 9.74568 9.94533 9.70834 10.412ZM18.7952 14.668C18.3939 14.668 17.9972 14.6073 17.6052 14.486C17.2226 14.3553 16.8772 14.164 16.5692 13.912C16.2706 13.6507 16.0419 13.324 15.8832 12.932L17.0172 12.512C17.1199 12.9227 17.3439 13.2213 17.6892 13.408C18.0439 13.5853 18.4126 13.674 18.7952 13.674C19.0752 13.674 19.3366 13.632 19.5792 13.548C19.8312 13.464 20.0366 13.3427 20.1952 13.184C20.3539 13.0253 20.4332 12.8433 20.4332 12.638C20.4332 12.2553 20.2792 11.9847 19.9712 11.826C19.6726 11.6673 19.3132 11.546 18.8932 11.462L17.9272 11.266C17.5912 11.1913 17.2786 11.0887 16.9892 10.958C16.6999 10.818 16.4666 10.622 16.2892 10.37C16.1119 10.118 16.0232 9.782 16.0232 9.362C16.0232 8.942 16.1539 8.592 16.4152 8.312C16.6766 8.02267 17.0079 7.80333 17.4092 7.654C17.8199 7.50467 18.2492 7.43 18.6972 7.43C19.2479 7.43 19.7659 7.54667 20.2512 7.78C20.7459 8.004 21.0959 8.35867 21.3012 8.844L20.1952 9.25C20.0739 8.97 19.8592 8.76467 19.5512 8.634C19.2526 8.494 18.9399 8.424 18.6132 8.424C18.2586 8.424 17.9366 8.50333 17.6472 8.662C17.3579 8.82067 17.2132 9.04933 17.2132 9.348C17.2132 9.64667 17.3346 9.866 17.5772 10.006C17.8292 10.1367 18.1372 10.2393 18.5012 10.314L19.4112 10.496C19.7846 10.5707 20.1392 10.678 20.4752 10.818C20.8112 10.958 21.0866 11.168 21.3012 11.448C21.5159 11.7187 21.6232 12.1013 21.6232 12.596C21.6232 13.0347 21.4879 13.408 21.2172 13.716C20.9466 14.024 20.5966 14.262 20.1672 14.43C19.7379 14.5887 19.2806 14.668 18.7952 14.668ZM25.9731 14.668C25.2451 14.668 24.6291 14.5093 24.1251 14.192C23.6211 13.8653 23.2337 13.4313 22.9631 12.89C22.7017 12.3393 22.5711 11.7233 22.5711 11.042C22.5711 10.3047 22.7204 9.67 23.0191 9.138C23.3177 8.59667 23.7191 8.18133 24.2231 7.892C24.7364 7.59333 25.3104 7.444 25.9451 7.444C26.4957 7.444 26.9811 7.556 27.4011 7.78C27.8211 7.99467 28.1664 8.28867 28.4371 8.662C28.7171 9.026 28.9177 9.44133 29.0391 9.908C29.1697 10.3747 29.2164 10.8553 29.1791 11.35H23.8311C23.8497 11.9287 23.9757 12.386 24.2091 12.722C24.4517 13.058 24.7364 13.296 25.0631 13.436C25.3897 13.5667 25.6931 13.632 25.9731 13.632C26.3651 13.632 26.6917 13.5713 26.9531 13.45C27.2237 13.3193 27.4384 13.1513 27.5971 12.946L28.7311 13.282C28.4791 13.6833 28.1197 14.0147 27.6531 14.276C27.1864 14.5373 26.6264 14.668 25.9731 14.668ZM23.8451 10.412H27.9331C27.9331 10.0853 27.8491 9.77267 27.6811 9.474C27.5224 9.17533 27.2937 8.93267 26.9951 8.746C26.7057 8.55 26.3557 8.452 25.9451 8.452C25.5997 8.452 25.2731 8.51733 24.9651 8.648C24.6571 8.77867 24.4004 8.98867 24.1951 9.278C23.9991 9.56733 23.8824 9.94533 23.8451 10.412ZM32.5119 14.668C32.0733 14.668 31.6719 14.5887 31.3079 14.43C30.9439 14.2713 30.6546 14.0427 30.4399 13.744C30.2253 13.4453 30.1179 13.086 30.1179 12.666C30.1179 12.1153 30.3093 11.6813 30.6919 11.364C31.0839 11.0467 31.6299 10.804 32.3299 10.636C33.0393 10.4587 33.8653 10.3187 34.8079 10.216C34.8266 9.628 34.7099 9.17533 34.4579 8.858C34.2059 8.54067 33.7999 8.382 33.2399 8.382C32.8199 8.382 32.4746 8.48 32.2039 8.676C31.9426 8.86267 31.7746 9.124 31.6999 9.46L30.5659 9.124C30.7526 8.592 31.0839 8.18133 31.5599 7.892C32.0453 7.59333 32.6006 7.444 33.2259 7.444C34.1873 7.444 34.8873 7.67267 35.3259 8.13C35.7739 8.578 35.9979 9.28733 35.9979 10.258V11.882C35.9979 12.4607 36.0213 12.96 36.0679 13.38C36.1146 13.8 36.1706 14.1733 36.2359 14.5H35.1579L34.8779 13.548C34.6726 13.8933 34.3786 14.1687 33.9959 14.374C33.6133 14.57 33.1186 14.668 32.5119 14.668ZM32.7639 13.73C33.1279 13.73 33.4733 13.6647 33.7999 13.534C34.1266 13.4033 34.3926 13.184 34.5979 12.876C34.8033 12.5587 34.9059 12.1293 34.9059 11.588V11.154C34.1966 11.2287 33.5806 11.322 33.0579 11.434C32.5353 11.5367 32.1293 11.686 31.8399 11.882C31.5599 12.0687 31.4199 12.3207 31.4199 12.638C31.4199 12.9647 31.5366 13.2307 31.7699 13.436C32.0126 13.632 32.3439 13.73 32.7639 13.73ZM40.4691 14.668C39.9464 14.668 39.4564 14.528 38.9991 14.248C38.5417 13.9587 38.1731 13.548 37.8931 13.016C37.6224 12.4747 37.4871 11.8213 37.4871 11.056C37.4871 10.2907 37.6224 9.642 37.8931 9.11C38.1731 8.56867 38.5417 8.158 38.9991 7.878C39.4564 7.58867 39.9464 7.444 40.4691 7.444C41.0197 7.444 41.4817 7.556 41.8551 7.78C42.2284 7.99467 42.5177 8.284 42.7231 8.648V5.148H43.8991V11.882C43.8991 12.1153 43.9084 12.4607 43.9271 12.918C43.9457 13.366 44.0157 13.8933 44.1371 14.5H43.0311L42.7231 13.45C42.5177 13.8233 42.2284 14.122 41.8551 14.346C41.4817 14.5607 41.0197 14.668 40.4691 14.668ZM40.7771 13.66C41.3744 13.66 41.8504 13.4313 42.2051 12.974C42.5691 12.5167 42.7511 11.8773 42.7511 11.056C42.7511 10.2253 42.5691 9.586 42.2051 9.138C41.8504 8.68067 41.3744 8.452 40.7771 8.452C40.1797 8.452 39.6991 8.68067 39.3351 9.138C38.9804 9.586 38.8031 10.2253 38.8031 11.056C38.8031 11.8773 38.9804 12.5167 39.3351 12.974C39.6991 13.4313 40.1797 13.66 40.7771 13.66ZM47.7834 14.668C47.3448 14.668 46.9434 14.5887 46.5794 14.43C46.2154 14.2713 45.9261 14.0427 45.7114 13.744C45.4968 13.4453 45.3894 13.086 45.3894 12.666C45.3894 12.1153 45.5808 11.6813 45.9634 11.364C46.3554 11.0467 46.9014 10.804 47.6014 10.636C48.3108 10.4587 49.1368 10.3187 50.0794 10.216C50.0981 9.628 49.9814 9.17533 49.7294 8.858C49.4774 8.54067 49.0714 8.382 48.5114 8.382C48.0914 8.382 47.7461 8.48 47.4754 8.676C47.2141 8.86267 47.0461 9.124 46.9714 9.46L45.8374 9.124C46.0241 8.592 46.3554 8.18133 46.8314 7.892C47.3168 7.59333 47.8721 7.444 48.4974 7.444C49.4588 7.444 50.1588 7.67267 50.5974 8.13C51.0454 8.578 51.2694 9.28733 51.2694 10.258V11.882C51.2694 12.4607 51.2928 12.96 51.3394 13.38C51.3861 13.8 51.4421 14.1733 51.5074 14.5H50.4294L50.1494 13.548C49.9441 13.8933 49.6501 14.1687 49.2674 14.374C48.8848 14.57 48.3901 14.668 47.7834 14.668ZM48.0354 13.73C48.3994 13.73 48.7448 13.6647 49.0714 13.534C49.3981 13.4033 49.6641 13.184 49.8694 12.876C50.0748 12.5587 50.1774 12.1293 50.1774 11.588V11.154C49.4681 11.2287 48.8521 11.322 48.3294 11.434C47.8068 11.5367 47.4008 11.686 47.1114 11.882C46.8314 12.0687 46.6914 12.3207 46.6914 12.638C46.6914 12.9647 46.8081 13.2307 47.0414 13.436C47.2841 13.632 47.6154 13.73 48.0354 13.73Z" fill="#131619"/>
</svg>
