<svg width="200" height="47" viewBox="0 0 200 47" fill="none" xmlns="http://www.w3.org/2000/svg">
<circle cx="120.447" cy="35.186" r="4.76465" fill="#131619" stroke="#131619" stroke-width="1.5"/>
<path d="M67.6628 11.5645V2.5H68.9343V13H67.7722L67.6628 11.5645ZM62.6863 9.38379V9.24023C62.6863 8.67513 62.7546 8.16243 62.8914 7.70215C63.0326 7.2373 63.2309 6.83854 63.4861 6.50586C63.7458 6.17318 64.0535 5.91797 64.4089 5.74023C64.769 5.55794 65.17 5.4668 65.6121 5.4668C66.0769 5.4668 66.4825 5.54883 66.8289 5.71289C67.1798 5.8724 67.476 6.1071 67.7175 6.41699C67.9636 6.72233 68.1573 7.09147 68.2986 7.52441C68.4399 7.95736 68.5378 8.44727 68.5925 8.99414V9.62305C68.5424 10.1654 68.4444 10.653 68.2986 11.0859C68.1573 11.5189 67.9636 11.888 67.7175 12.1934C67.476 12.4987 67.1798 12.7334 66.8289 12.8975C66.4779 13.057 66.0678 13.1367 65.5984 13.1367C65.1654 13.1367 64.769 13.0433 64.4089 12.8564C64.0535 12.6696 63.7458 12.4076 63.4861 12.0703C63.2309 11.7331 63.0326 11.3366 62.8914 10.8809C62.7546 10.4206 62.6863 9.92155 62.6863 9.38379ZM63.9578 9.24023V9.38379C63.9578 9.75293 63.9942 10.0993 64.0671 10.4229C64.1446 10.7464 64.2631 11.0312 64.4226 11.2773C64.5821 11.5234 64.7849 11.7171 65.031 11.8584C65.2771 11.9951 65.571 12.0635 65.9128 12.0635C66.3321 12.0635 66.6762 11.9746 66.9451 11.7969C67.2185 11.6191 67.4373 11.3844 67.6013 11.0928C67.7654 10.8011 67.893 10.4844 67.9841 10.1426V8.49512C67.9294 8.24447 67.8497 8.00293 67.7449 7.77051C67.6446 7.53353 67.5125 7.32389 67.3484 7.1416C67.1889 6.95475 66.9906 6.80664 66.7537 6.69727C66.5212 6.58789 66.2455 6.5332 65.9265 6.5332C65.5802 6.5332 65.2817 6.60612 65.031 6.75195C64.7849 6.89323 64.5821 7.08919 64.4226 7.33984C64.2631 7.58594 64.1446 7.87305 64.0671 8.20117C63.9942 8.52474 63.9578 8.87109 63.9578 9.24023ZM72.2771 5.60352V13H71.0056V5.60352H72.2771ZM70.9099 3.6416C70.9099 3.43652 70.9714 3.26335 71.0945 3.12207C71.2221 2.98079 71.4089 2.91016 71.655 2.91016C71.8966 2.91016 72.0811 2.98079 72.2087 3.12207C72.3409 3.26335 72.407 3.43652 72.407 3.6416C72.407 3.83757 72.3409 4.00618 72.2087 4.14746C72.0811 4.28418 71.8966 4.35254 71.655 4.35254C71.4089 4.35254 71.2221 4.28418 71.0945 4.14746C70.9714 4.00618 70.9099 3.83757 70.9099 3.6416ZM76.1941 13H74.9294V4.82422C74.9294 4.29102 75.0251 3.84212 75.2166 3.47754C75.4125 3.1084 75.6928 2.8304 76.0574 2.64355C76.422 2.45215 76.8549 2.35645 77.3562 2.35645C77.502 2.35645 77.6479 2.36556 77.7937 2.38379C77.9441 2.40202 78.0899 2.42936 78.2312 2.46582L78.1628 3.49805C78.0671 3.47526 77.9578 3.45931 77.8347 3.4502C77.7162 3.44108 77.5977 3.43652 77.4792 3.43652C77.2104 3.43652 76.9779 3.49121 76.782 3.60059C76.5906 3.7054 76.4447 3.86035 76.3445 4.06543C76.2442 4.27051 76.1941 4.52344 76.1941 4.82422V13ZM77.7664 5.60352V6.57422H73.7605V5.60352H77.7664ZM81.0613 13H79.7966V4.82422C79.7966 4.29102 79.8923 3.84212 80.0837 3.47754C80.2797 3.1084 80.56 2.8304 80.9246 2.64355C81.2891 2.45215 81.7221 2.35645 82.2234 2.35645C82.3692 2.35645 82.5151 2.36556 82.6609 2.38379C82.8113 2.40202 82.9571 2.42936 83.0984 2.46582L83.03 3.49805C82.9343 3.47526 82.825 3.45931 82.7019 3.4502C82.5834 3.44108 82.4649 3.43652 82.3464 3.43652C82.0776 3.43652 81.8451 3.49121 81.6492 3.60059C81.4578 3.7054 81.3119 3.86035 81.2117 4.06543C81.1114 4.27051 81.0613 4.52344 81.0613 4.82422V13ZM82.6335 5.60352V6.57422H78.6277V5.60352H82.6335ZM86.947 13.1367C86.432 13.1367 85.9649 13.0501 85.5457 12.877C85.1309 12.6992 84.7732 12.4508 84.4724 12.1318C84.1762 11.8128 83.9483 11.4346 83.7888 10.9971C83.6293 10.5596 83.5496 10.0811 83.5496 9.56152V9.27441C83.5496 8.67285 83.6384 8.13737 83.8162 7.66797C83.9939 7.19401 84.2354 6.79297 84.5408 6.46484C84.8461 6.13672 85.1925 5.88835 85.5798 5.71973C85.9672 5.55111 86.3682 5.4668 86.783 5.4668C87.3116 5.4668 87.7673 5.55794 88.1501 5.74023C88.5375 5.92253 88.8542 6.17773 89.1003 6.50586C89.3464 6.82943 89.5287 7.21224 89.6472 7.6543C89.7657 8.0918 89.825 8.57031 89.825 9.08984V9.65723H84.3015V8.625H88.5603V8.5293C88.5421 8.20117 88.4737 7.88216 88.3552 7.57227C88.2413 7.26237 88.059 7.00716 87.8083 6.80664C87.5577 6.60612 87.2159 6.50586 86.783 6.50586C86.4958 6.50586 86.2315 6.56738 85.99 6.69043C85.7485 6.80892 85.5411 6.98665 85.3679 7.22363C85.1947 7.46061 85.0603 7.75 84.9646 8.0918C84.8689 8.43359 84.821 8.8278 84.821 9.27441V9.56152C84.821 9.91243 84.8689 10.2428 84.9646 10.5527C85.0649 10.8581 85.2084 11.127 85.3953 11.3594C85.5867 11.5918 85.8168 11.7741 86.0857 11.9062C86.3591 12.0384 86.669 12.1045 87.0154 12.1045C87.462 12.1045 87.8403 12.0133 88.1501 11.8311C88.46 11.6488 88.7312 11.4049 88.9636 11.0996L89.7292 11.708C89.5697 11.9495 89.3669 12.1797 89.1208 12.3984C88.8748 12.6172 88.5717 12.7949 88.2117 12.9316C87.8562 13.0684 87.4347 13.1367 86.947 13.1367ZM92.5662 6.76562V13H91.3015V5.60352H92.532L92.5662 6.76562ZM94.8767 5.5625L94.8699 6.73828C94.7651 6.71549 94.6648 6.70182 94.5691 6.69727C94.4779 6.68815 94.3731 6.68359 94.2546 6.68359C93.963 6.68359 93.7055 6.72917 93.4822 6.82031C93.2589 6.91146 93.0697 7.03906 92.9148 7.20312C92.7598 7.36719 92.6368 7.56315 92.5457 7.79102C92.4591 8.01432 92.4021 8.26042 92.3748 8.5293L92.0193 8.73438C92.0193 8.28776 92.0626 7.86849 92.1492 7.47656C92.2403 7.08464 92.3793 6.73828 92.5662 6.4375C92.753 6.13216 92.99 5.89518 93.2771 5.72656C93.5688 5.55339 93.9151 5.4668 94.3162 5.4668C94.4073 5.4668 94.5121 5.47819 94.6306 5.50098C94.7491 5.51921 94.8311 5.53971 94.8767 5.5625ZM98.9783 13.1367C98.4633 13.1367 97.9962 13.0501 97.5769 12.877C97.1622 12.6992 96.8044 12.4508 96.5037 12.1318C96.2074 11.8128 95.9796 11.4346 95.8201 10.9971C95.6606 10.5596 95.5808 10.0811 95.5808 9.56152V9.27441C95.5808 8.67285 95.6697 8.13737 95.8474 7.66797C96.0251 7.19401 96.2667 6.79297 96.572 6.46484C96.8774 6.13672 97.2237 5.88835 97.6111 5.71973C97.9985 5.55111 98.3995 5.4668 98.8142 5.4668C99.3429 5.4668 99.7986 5.55794 100.181 5.74023C100.569 5.92253 100.885 6.17773 101.132 6.50586C101.378 6.82943 101.56 7.21224 101.678 7.6543C101.797 8.0918 101.856 8.57031 101.856 9.08984V9.65723H96.3328V8.625H100.592V8.5293C100.573 8.20117 100.505 7.88216 100.386 7.57227C100.273 7.26237 100.09 7.00716 99.8396 6.80664C99.5889 6.60612 99.2472 6.50586 98.8142 6.50586C98.5271 6.50586 98.2628 6.56738 98.0212 6.69043C97.7797 6.80892 97.5723 6.98665 97.3992 7.22363C97.226 7.46061 97.0916 7.75 96.9958 8.0918C96.9001 8.43359 96.8523 8.8278 96.8523 9.27441V9.56152C96.8523 9.91243 96.9001 10.2428 96.9958 10.5527C97.0961 10.8581 97.2397 11.127 97.4265 11.3594C97.6179 11.5918 97.8481 11.7741 98.1169 11.9062C98.3904 12.0384 98.7003 12.1045 99.0466 12.1045C99.4932 12.1045 99.8715 12.0133 100.181 11.8311C100.491 11.6488 100.762 11.4049 100.995 11.0996L101.76 11.708C101.601 11.9495 101.398 12.1797 101.152 12.3984C100.906 12.6172 100.603 12.7949 100.243 12.9316C99.8875 13.0684 99.4659 13.1367 98.9783 13.1367ZM104.597 7.18262V13H103.333V5.60352H104.529L104.597 7.18262ZM104.297 9.02148L103.77 9.00098C103.775 8.49512 103.85 8.02799 103.996 7.59961C104.142 7.16667 104.347 6.79069 104.611 6.47168C104.875 6.15267 105.19 5.90658 105.554 5.7334C105.924 5.55566 106.331 5.4668 106.778 5.4668C107.143 5.4668 107.471 5.51693 107.762 5.61719C108.054 5.71289 108.302 5.86784 108.508 6.08203C108.717 6.29622 108.877 6.57422 108.986 6.91602C109.095 7.25326 109.15 7.66569 109.15 8.15332V13H107.879V8.13965C107.879 7.75228 107.822 7.44238 107.708 7.20996C107.594 6.97298 107.427 6.80208 107.209 6.69727C106.99 6.58789 106.721 6.5332 106.402 6.5332C106.088 6.5332 105.801 6.59928 105.541 6.73145C105.286 6.86361 105.065 7.0459 104.878 7.27832C104.695 7.51074 104.552 7.77734 104.447 8.07812C104.347 8.37435 104.297 8.6888 104.297 9.02148ZM114.031 12.0977C114.332 12.0977 114.61 12.0361 114.865 11.9131C115.12 11.79 115.33 11.6214 115.494 11.4072C115.658 11.1885 115.751 10.9401 115.774 10.6621H116.977C116.955 11.0996 116.806 11.5075 116.533 11.8857C116.264 12.2594 115.911 12.5625 115.473 12.7949C115.036 13.0228 114.555 13.1367 114.031 13.1367C113.475 13.1367 112.99 13.0387 112.575 12.8428C112.165 12.6468 111.823 12.3779 111.55 12.0361C111.281 11.6943 111.078 11.3024 110.941 10.8604C110.809 10.4137 110.743 9.94206 110.743 9.44531V9.1582C110.743 8.66146 110.809 8.19206 110.941 7.75C111.078 7.30339 111.281 6.90918 111.55 6.56738C111.823 6.22559 112.165 5.95671 112.575 5.76074C112.99 5.56478 113.475 5.4668 114.031 5.4668C114.61 5.4668 115.116 5.58529 115.549 5.82227C115.982 6.05469 116.321 6.3737 116.567 6.7793C116.818 7.18034 116.955 7.63607 116.977 8.14648H115.774C115.751 7.84115 115.665 7.56543 115.514 7.31934C115.369 7.07324 115.168 6.87728 114.913 6.73145C114.662 6.58105 114.368 6.50586 114.031 6.50586C113.644 6.50586 113.318 6.58333 113.053 6.73828C112.794 6.88867 112.586 7.09375 112.431 7.35352C112.281 7.60872 112.172 7.89355 112.103 8.20801C112.039 8.5179 112.008 8.83464 112.008 9.1582V9.44531C112.008 9.76888 112.039 10.0879 112.103 10.4023C112.167 10.7168 112.274 11.0016 112.425 11.2568C112.58 11.512 112.787 11.7171 113.047 11.8721C113.311 12.0225 113.639 12.0977 114.031 12.0977ZM121.469 13.1367C120.954 13.1367 120.486 13.0501 120.067 12.877C119.652 12.6992 119.295 12.4508 118.994 12.1318C118.698 11.8128 118.47 11.4346 118.31 10.9971C118.151 10.5596 118.071 10.0811 118.071 9.56152V9.27441C118.071 8.67285 118.16 8.13737 118.338 7.66797C118.515 7.19401 118.757 6.79297 119.062 6.46484C119.368 6.13672 119.714 5.88835 120.101 5.71973C120.489 5.55111 120.89 5.4668 121.304 5.4668C121.833 5.4668 122.289 5.55794 122.672 5.74023C123.059 5.92253 123.376 6.17773 123.622 6.50586C123.868 6.82943 124.05 7.21224 124.169 7.6543C124.287 8.0918 124.346 8.57031 124.346 9.08984V9.65723H118.823V8.625H123.082V8.5293C123.064 8.20117 122.995 7.88216 122.877 7.57227C122.763 7.26237 122.58 7.00716 122.33 6.80664C122.079 6.60612 121.737 6.50586 121.304 6.50586C121.017 6.50586 120.753 6.56738 120.511 6.69043C120.27 6.80892 120.063 6.98665 119.889 7.22363C119.716 7.46061 119.582 7.75 119.486 8.0918C119.39 8.43359 119.343 8.8278 119.343 9.27441V9.56152C119.343 9.91243 119.39 10.2428 119.486 10.5527C119.586 10.8581 119.73 11.127 119.917 11.3594C120.108 11.5918 120.338 11.7741 120.607 11.9062C120.881 12.0384 121.191 12.1045 121.537 12.1045C121.983 12.1045 122.362 12.0133 122.672 11.8311C122.982 11.6488 123.253 11.4049 123.485 11.0996L124.251 11.708C124.091 11.9495 123.888 12.1797 123.642 12.3984C123.396 12.6172 123.093 12.7949 122.733 12.9316C122.378 13.0684 121.956 13.1367 121.469 13.1367Z" fill="#131619"/>
<path d="M5.875 38.2498V29.1853H7.14648V39.6853H5.98438L5.875 38.2498ZM0.898438 36.0691V35.9255C0.898438 35.3604 0.966797 34.8477 1.10352 34.3875C1.24479 33.9226 1.44303 33.5238 1.69824 33.1912C1.95801 32.8585 2.26562 32.6033 2.62109 32.4255C2.98112 32.2432 3.38216 32.1521 3.82422 32.1521C4.28906 32.1521 4.69466 32.2341 5.04102 32.3982C5.39193 32.5577 5.68815 32.7924 5.92969 33.1023C6.17578 33.4076 6.36947 33.7768 6.51074 34.2097C6.65202 34.6427 6.75 35.1326 6.80469 35.6794V36.3083C6.75456 36.8507 6.65658 37.3383 6.51074 37.7712C6.36947 38.2042 6.17578 38.5733 5.92969 38.8787C5.68815 39.184 5.39193 39.4187 5.04102 39.5828C4.6901 39.7423 4.27995 39.822 3.81055 39.822C3.3776 39.822 2.98112 39.7286 2.62109 39.5417C2.26562 39.3549 1.95801 39.0929 1.69824 38.7556C1.44303 38.4184 1.24479 38.0219 1.10352 37.5662C0.966797 37.1059 0.898438 36.6069 0.898438 36.0691ZM2.16992 35.9255V36.0691C2.16992 36.4382 2.20638 36.7846 2.2793 37.1082C2.35677 37.4317 2.47526 37.7166 2.63477 37.9626C2.79427 38.2087 2.99707 38.4024 3.24316 38.5437C3.48926 38.6804 3.7832 38.7488 4.125 38.7488C4.54427 38.7488 4.88835 38.6599 5.15723 38.4822C5.43066 38.3044 5.64941 38.0697 5.81348 37.7781C5.97754 37.4864 6.10514 37.1697 6.19629 36.8279V35.1804C6.1416 34.9298 6.06185 34.6882 5.95703 34.4558C5.85677 34.2188 5.72461 34.0092 5.56055 33.8269C5.40104 33.6401 5.2028 33.4919 4.96582 33.3826C4.7334 33.2732 4.45768 33.2185 4.13867 33.2185C3.79232 33.2185 3.49382 33.2914 3.24316 33.4373C2.99707 33.5785 2.79427 33.7745 2.63477 34.0251C2.47526 34.2712 2.35677 34.5583 2.2793 34.8865C2.20638 35.21 2.16992 35.5564 2.16992 35.9255ZM12.1846 39.822C11.6696 39.822 11.2025 39.7354 10.7832 39.5623C10.3685 39.3845 10.0107 39.1361 9.70996 38.8171C9.41374 38.4981 9.18587 38.1199 9.02637 37.6824C8.86686 37.2449 8.78711 36.7664 8.78711 36.2468V35.9597C8.78711 35.3582 8.87598 34.8227 9.05371 34.3533C9.23145 33.8793 9.47298 33.4783 9.77832 33.1501C10.0837 32.822 10.43 32.5736 10.8174 32.405C11.2048 32.2364 11.6058 32.1521 12.0205 32.1521C12.5492 32.1521 13.0049 32.2432 13.3877 32.4255C13.7751 32.6078 14.0918 32.863 14.3379 33.1912C14.584 33.5147 14.7663 33.8975 14.8848 34.3396C15.0033 34.7771 15.0625 35.2556 15.0625 35.7751V36.3425H9.53906V35.3103H13.7979V35.2146C13.7796 34.8865 13.7113 34.5675 13.5928 34.2576C13.4788 33.9477 13.2965 33.6925 13.0459 33.4919C12.7952 33.2914 12.4535 33.1912 12.0205 33.1912C11.7334 33.1912 11.4691 33.2527 11.2275 33.3757C10.986 33.4942 10.7786 33.672 10.6055 33.9089C10.4323 34.1459 10.2979 34.4353 10.2021 34.7771C10.1064 35.1189 10.0586 35.5131 10.0586 35.9597V36.2468C10.0586 36.5977 10.1064 36.9281 10.2021 37.238C10.3024 37.5434 10.446 37.8123 10.6328 38.0447C10.8242 38.2771 11.0544 38.4594 11.3232 38.5916C11.5967 38.7237 11.9066 38.7898 12.2529 38.7898C12.6995 38.7898 13.0778 38.6986 13.3877 38.5164C13.6976 38.3341 13.9688 38.0903 14.2012 37.7849L14.9668 38.3933C14.8073 38.6348 14.6045 38.865 14.3584 39.0837C14.1123 39.3025 13.8092 39.4802 13.4492 39.6169C13.0938 39.7537 12.6722 39.822 12.1846 39.822ZM20.8457 37.7234C20.8457 37.5411 20.8047 37.3725 20.7227 37.2175C20.6452 37.058 20.4834 36.9145 20.2373 36.7869C19.9958 36.6547 19.6312 36.5408 19.1436 36.4451C18.7334 36.3585 18.362 36.2559 18.0293 36.1375C17.7012 36.019 17.4209 35.8754 17.1885 35.7068C16.9606 35.5382 16.7852 35.3399 16.6621 35.1121C16.5391 34.8842 16.4775 34.6176 16.4775 34.3123C16.4775 34.0206 16.5413 33.7449 16.6689 33.4851C16.8011 33.2253 16.9857 32.9952 17.2227 32.7947C17.4642 32.5942 17.7536 32.4369 18.0908 32.323C18.4281 32.2091 18.804 32.1521 19.2188 32.1521C19.8112 32.1521 20.3171 32.2569 20.7363 32.4666C21.1556 32.6762 21.4769 32.9565 21.7002 33.3074C21.9235 33.6537 22.0352 34.0388 22.0352 34.4626H20.7705C20.7705 34.2576 20.709 34.0593 20.5859 33.8679C20.4674 33.672 20.292 33.5102 20.0596 33.3826C19.8317 33.255 19.5514 33.1912 19.2188 33.1912C18.8678 33.1912 18.583 33.2458 18.3643 33.3552C18.1501 33.46 17.9928 33.5945 17.8926 33.7585C17.7969 33.9226 17.749 34.0958 17.749 34.2781C17.749 34.4148 17.7718 34.5378 17.8174 34.6472C17.8675 34.752 17.9541 34.85 18.0771 34.9412C18.2002 35.0278 18.3734 35.1098 18.5967 35.1873C18.82 35.2647 19.1048 35.3422 19.4512 35.4197C20.0573 35.5564 20.5563 35.7205 20.9482 35.9119C21.3402 36.1033 21.6318 36.338 21.8232 36.616C22.0146 36.894 22.1104 37.2312 22.1104 37.6277C22.1104 37.9513 22.042 38.2475 21.9053 38.5164C21.7731 38.7852 21.5794 39.0177 21.3242 39.2136C21.0736 39.405 20.7728 39.5554 20.4219 39.6648C20.0755 39.7696 19.6859 39.822 19.2529 39.822C18.6012 39.822 18.0498 39.7058 17.5986 39.4734C17.1475 39.241 16.8057 38.9402 16.5732 38.571C16.3408 38.2019 16.2246 37.8123 16.2246 37.4021H17.4961C17.5143 37.7485 17.6146 38.0242 17.7969 38.2292C17.9792 38.4298 18.2025 38.5733 18.4668 38.6599C18.7311 38.7419 18.9932 38.783 19.2529 38.783C19.5993 38.783 19.8887 38.7374 20.1211 38.6462C20.3581 38.5551 20.5381 38.4298 20.6611 38.2703C20.7842 38.1108 20.8457 37.9285 20.8457 37.7234ZM25.1455 32.2888V39.6853H23.874V32.2888H25.1455ZM23.7783 30.3269C23.7783 30.1218 23.8398 29.9486 23.9629 29.8074C24.0905 29.6661 24.2773 29.5955 24.5234 29.5955C24.765 29.5955 24.9495 29.6661 25.0771 29.8074C25.2093 29.9486 25.2754 30.1218 25.2754 30.3269C25.2754 30.5229 25.2093 30.6915 25.0771 30.8328C24.9495 30.9695 24.765 31.0378 24.5234 31.0378C24.2773 31.0378 24.0905 30.9695 23.9629 30.8328C23.8398 30.6915 23.7783 30.5229 23.7783 30.3269ZM28.4404 33.4509V39.6853H27.1758V32.2888H28.4062L28.4404 33.4509ZM30.751 32.2478L30.7441 33.4236C30.6393 33.4008 30.5391 33.3871 30.4434 33.3826C30.3522 33.3735 30.2474 33.3689 30.1289 33.3689C29.8372 33.3689 29.5798 33.4145 29.3564 33.5056C29.1331 33.5968 28.944 33.7244 28.7891 33.8884C28.6341 34.0525 28.5111 34.2485 28.4199 34.4763C28.3333 34.6996 28.2764 34.9457 28.249 35.2146L27.8936 35.4197C27.8936 34.9731 27.9368 34.5538 28.0234 34.1619C28.1146 33.7699 28.2536 33.4236 28.4404 33.1228C28.6273 32.8175 28.8643 32.5805 29.1514 32.4119C29.443 32.2387 29.7894 32.1521 30.1904 32.1521C30.2816 32.1521 30.3864 32.1635 30.5049 32.1863C30.6234 32.2045 30.7054 32.225 30.751 32.2478ZM34.8525 39.822C34.3376 39.822 33.8704 39.7354 33.4512 39.5623C33.0365 39.3845 32.6787 39.1361 32.3779 38.8171C32.0817 38.4981 31.8538 38.1199 31.6943 37.6824C31.5348 37.2449 31.4551 36.7664 31.4551 36.2468V35.9597C31.4551 35.3582 31.5439 34.8227 31.7217 34.3533C31.8994 33.8793 32.141 33.4783 32.4463 33.1501C32.7516 32.822 33.098 32.5736 33.4854 32.405C33.8727 32.2364 34.2738 32.1521 34.6885 32.1521C35.2171 32.1521 35.6729 32.2432 36.0557 32.4255C36.443 32.6078 36.7598 32.863 37.0059 33.1912C37.252 33.5147 37.4342 33.8975 37.5527 34.3396C37.6712 34.7771 37.7305 35.2556 37.7305 35.7751V36.3425H32.207V35.3103H36.4658V35.2146C36.4476 34.8865 36.3792 34.5675 36.2607 34.2576C36.1468 33.9477 35.9645 33.6925 35.7139 33.4919C35.4632 33.2914 35.1214 33.1912 34.6885 33.1912C34.4014 33.1912 34.137 33.2527 33.8955 33.3757C33.654 33.4942 33.4466 33.672 33.2734 33.9089C33.1003 34.1459 32.9658 34.4353 32.8701 34.7771C32.7744 35.1189 32.7266 35.5131 32.7266 35.9597V36.2468C32.7266 36.5977 32.7744 36.9281 32.8701 37.238C32.9704 37.5434 33.1139 37.8123 33.3008 38.0447C33.4922 38.2771 33.7223 38.4594 33.9912 38.5916C34.2646 38.7237 34.5745 38.7898 34.9209 38.7898C35.3675 38.7898 35.7458 38.6986 36.0557 38.5164C36.3656 38.3341 36.6367 38.0903 36.8691 37.7849L37.6348 38.3933C37.4753 38.6348 37.2725 38.865 37.0264 39.0837C36.7803 39.3025 36.4772 39.4802 36.1172 39.6169C35.7617 39.7537 35.3402 39.822 34.8525 39.822ZM43.8691 38.2498V29.1853H45.1406V39.6853H43.9785L43.8691 38.2498ZM38.8926 36.0691V35.9255C38.8926 35.3604 38.9609 34.8477 39.0977 34.3875C39.2389 33.9226 39.4372 33.5238 39.6924 33.1912C39.9521 32.8585 40.2598 32.6033 40.6152 32.4255C40.9753 32.2432 41.3763 32.1521 41.8184 32.1521C42.2832 32.1521 42.6888 32.2341 43.0352 32.3982C43.3861 32.5577 43.6823 32.7924 43.9238 33.1023C44.1699 33.4076 44.3636 33.7768 44.5049 34.2097C44.6462 34.6427 44.7441 35.1326 44.7988 35.6794V36.3083C44.7487 36.8507 44.6507 37.3383 44.5049 37.7712C44.3636 38.2042 44.1699 38.5733 43.9238 38.8787C43.6823 39.184 43.3861 39.4187 43.0352 39.5828C42.6842 39.7423 42.2741 39.822 41.8047 39.822C41.3717 39.822 40.9753 39.7286 40.6152 39.5417C40.2598 39.3549 39.9521 39.0929 39.6924 38.7556C39.4372 38.4184 39.2389 38.0219 39.0977 37.5662C38.9609 37.1059 38.8926 36.6069 38.8926 36.0691ZM40.1641 35.9255V36.0691C40.1641 36.4382 40.2005 36.7846 40.2734 37.1082C40.3509 37.4317 40.4694 37.7166 40.6289 37.9626C40.7884 38.2087 40.9912 38.4024 41.2373 38.5437C41.4834 38.6804 41.7773 38.7488 42.1191 38.7488C42.5384 38.7488 42.8825 38.6599 43.1514 38.4822C43.4248 38.3044 43.6436 38.0697 43.8076 37.7781C43.9717 37.4864 44.0993 37.1697 44.1904 36.8279V35.1804C44.1357 34.9298 44.056 34.6882 43.9512 34.4558C43.8509 34.2188 43.7188 34.0092 43.5547 33.8269C43.3952 33.6401 43.1969 33.4919 42.96 33.3826C42.7275 33.2732 42.4518 33.2185 42.1328 33.2185C41.7865 33.2185 41.488 33.2914 41.2373 33.4373C40.9912 33.5785 40.7884 33.7745 40.6289 34.0251C40.4694 34.2712 40.3509 34.5583 40.2734 34.8865C40.2005 35.21 40.1641 35.5564 40.1641 35.9255Z" fill="#131619"/>
<path d="M142.51 35.1201V34.9629C142.51 34.4297 142.587 33.9352 142.742 33.4795C142.897 33.0192 143.12 32.6204 143.412 32.2832C143.704 31.9414 144.057 31.6771 144.471 31.4902C144.886 31.2988 145.351 31.2031 145.866 31.2031C146.385 31.2031 146.853 31.2988 147.267 31.4902C147.687 31.6771 148.042 31.9414 148.334 32.2832C148.63 32.6204 148.856 33.0192 149.01 33.4795C149.165 33.9352 149.243 34.4297 149.243 34.9629V35.1201C149.243 35.6533 149.165 36.1478 149.01 36.6035C148.856 37.0592 148.63 37.458 148.334 37.7998C148.042 38.137 147.689 38.4014 147.274 38.5928C146.864 38.7796 146.399 38.873 145.88 38.873C145.36 38.873 144.893 38.7796 144.478 38.5928C144.064 38.4014 143.708 38.137 143.412 37.7998C143.12 37.458 142.897 37.0592 142.742 36.6035C142.587 36.1478 142.51 35.6533 142.51 35.1201ZM143.774 34.9629V35.1201C143.774 35.4893 143.817 35.8379 143.904 36.166C143.991 36.4896 144.121 36.7767 144.294 37.0273C144.471 37.278 144.692 37.4762 144.957 37.6221C145.221 37.7633 145.529 37.834 145.88 37.834C146.226 37.834 146.529 37.7633 146.789 37.6221C147.053 37.4762 147.272 37.278 147.445 37.0273C147.618 36.7767 147.748 36.4896 147.835 36.166C147.926 35.8379 147.971 35.4893 147.971 35.1201V34.9629C147.971 34.5983 147.926 34.2542 147.835 33.9307C147.748 33.6025 147.616 33.3132 147.438 33.0625C147.265 32.8073 147.046 32.6068 146.782 32.4609C146.522 32.3151 146.217 32.2422 145.866 32.2422C145.52 32.2422 145.214 32.3151 144.95 32.4609C144.69 32.6068 144.471 32.8073 144.294 33.0625C144.121 33.3132 143.991 33.6025 143.904 33.9307C143.817 34.2542 143.774 34.5983 143.774 34.9629ZM150.822 28.2363H152.094V37.3008L151.984 38.7363H150.822V28.2363ZM157.091 34.9766V35.1201C157.091 35.6579 157.027 36.1569 156.899 36.6172C156.772 37.0729 156.585 37.4694 156.339 37.8066C156.093 38.1439 155.792 38.4059 155.436 38.5928C155.081 38.7796 154.673 38.873 154.213 38.873C153.743 38.873 153.331 38.7933 152.975 38.6338C152.624 38.4697 152.328 38.235 152.087 37.9297C151.845 37.6243 151.651 37.2552 151.506 36.8223C151.364 36.3893 151.266 35.9017 151.212 35.3594V34.7305C151.266 34.1836 151.364 33.6937 151.506 33.2607C151.651 32.8278 151.845 32.4587 152.087 32.1533C152.328 31.8434 152.624 31.6087 152.975 31.4492C153.326 31.2852 153.734 31.2031 154.199 31.2031C154.664 31.2031 155.076 31.2943 155.436 31.4766C155.796 31.6543 156.097 31.9095 156.339 32.2422C156.585 32.5749 156.772 32.9736 156.899 33.4385C157.027 33.8988 157.091 34.4115 157.091 34.9766ZM155.819 35.1201V34.9766C155.819 34.6074 155.785 34.2611 155.717 33.9375C155.648 33.6094 155.539 33.3223 155.388 33.0762C155.238 32.8255 155.04 32.6296 154.794 32.4883C154.548 32.3424 154.245 32.2695 153.885 32.2695C153.566 32.2695 153.288 32.3242 153.051 32.4336C152.818 32.543 152.62 32.6911 152.456 32.8779C152.292 33.0602 152.157 33.2699 152.052 33.5068C151.952 33.7393 151.877 33.9808 151.827 34.2314V35.8789C151.9 36.1979 152.018 36.5055 152.182 36.8018C152.351 37.0934 152.574 37.3327 152.852 37.5195C153.135 37.7064 153.483 37.7998 153.898 37.7998C154.24 37.7998 154.532 37.7314 154.773 37.5947C155.019 37.4535 155.218 37.2598 155.368 37.0137C155.523 36.7676 155.637 36.4827 155.71 36.1592C155.783 35.8356 155.819 35.4893 155.819 35.1201ZM162.997 36.7744C162.997 36.5921 162.956 36.4235 162.874 36.2686C162.796 36.109 162.635 35.9655 162.388 35.8379C162.147 35.7057 161.782 35.5918 161.295 35.4961C160.885 35.4095 160.513 35.307 160.18 35.1885C159.852 35.07 159.572 34.9264 159.34 34.7578C159.112 34.5892 158.936 34.391 158.813 34.1631C158.69 33.9352 158.629 33.6686 158.629 33.3633C158.629 33.0716 158.692 32.7959 158.82 32.5361C158.952 32.2764 159.137 32.0462 159.374 31.8457C159.615 31.6452 159.905 31.488 160.242 31.374C160.579 31.2601 160.955 31.2031 161.37 31.2031C161.962 31.2031 162.468 31.3079 162.887 31.5176C163.307 31.7272 163.628 32.0075 163.851 32.3584C164.075 32.7048 164.186 33.0898 164.186 33.5137H162.922C162.922 33.3086 162.86 33.1104 162.737 32.9189C162.619 32.723 162.443 32.5612 162.211 32.4336C161.983 32.306 161.703 32.2422 161.37 32.2422C161.019 32.2422 160.734 32.2969 160.515 32.4062C160.301 32.5111 160.144 32.6455 160.044 32.8096C159.948 32.9736 159.9 33.1468 159.9 33.3291C159.9 33.4658 159.923 33.5889 159.969 33.6982C160.019 33.8031 160.105 33.901 160.228 33.9922C160.351 34.0788 160.524 34.1608 160.748 34.2383C160.971 34.3158 161.256 34.3932 161.602 34.4707C162.208 34.6074 162.707 34.7715 163.099 34.9629C163.491 35.1543 163.783 35.389 163.974 35.667C164.166 35.945 164.261 36.2822 164.261 36.6787C164.261 37.0023 164.193 37.2985 164.056 37.5674C163.924 37.8363 163.731 38.0687 163.475 38.2646C163.225 38.4561 162.924 38.6064 162.573 38.7158C162.227 38.8206 161.837 38.873 161.404 38.873C160.752 38.873 160.201 38.7568 159.75 38.5244C159.299 38.292 158.957 37.9912 158.724 37.6221C158.492 37.2529 158.376 36.8633 158.376 36.4531H159.647C159.665 36.7995 159.766 37.0752 159.948 37.2803C160.13 37.4808 160.354 37.6243 160.618 37.7109C160.882 37.793 161.144 37.834 161.404 37.834C161.75 37.834 162.04 37.7884 162.272 37.6973C162.509 37.6061 162.689 37.4808 162.812 37.3213C162.935 37.1618 162.997 36.9795 162.997 36.7744ZM168.992 38.873C168.477 38.873 168.01 38.7865 167.591 38.6133C167.176 38.4355 166.818 38.1872 166.517 37.8682C166.221 37.5492 165.993 37.1709 165.834 36.7334C165.674 36.2959 165.594 35.8174 165.594 35.2979V35.0107C165.594 34.4092 165.683 33.8737 165.861 33.4043C166.039 32.9303 166.28 32.5293 166.586 32.2012C166.891 31.873 167.237 31.6247 167.625 31.4561C168.012 31.2874 168.413 31.2031 168.828 31.2031C169.357 31.2031 169.812 31.2943 170.195 31.4766C170.582 31.6589 170.899 31.9141 171.145 32.2422C171.391 32.5658 171.574 32.9486 171.692 33.3906C171.811 33.8281 171.87 34.3066 171.87 34.8262V35.3936H166.346V34.3613H170.605V34.2656C170.587 33.9375 170.519 33.6185 170.4 33.3086C170.286 32.9987 170.104 32.7435 169.853 32.543C169.603 32.3424 169.261 32.2422 168.828 32.2422C168.541 32.2422 168.276 32.3037 168.035 32.4268C167.793 32.5452 167.586 32.723 167.413 32.96C167.24 33.1969 167.105 33.4863 167.01 33.8281C166.914 34.1699 166.866 34.5641 166.866 35.0107V35.2979C166.866 35.6488 166.914 35.9792 167.01 36.2891C167.11 36.5944 167.253 36.8633 167.44 37.0957C167.632 37.3281 167.862 37.5104 168.131 37.6426C168.404 37.7747 168.714 37.8408 169.06 37.8408C169.507 37.8408 169.885 37.7497 170.195 37.5674C170.505 37.3851 170.776 37.1413 171.009 36.8359L171.774 37.4443C171.615 37.6859 171.412 37.916 171.166 38.1348C170.92 38.3535 170.617 38.5312 170.257 38.668C169.901 38.8047 169.48 38.873 168.992 38.873ZM174.611 32.502V38.7363H173.346V31.3398H174.577L174.611 32.502ZM176.922 31.2988L176.915 32.4746C176.81 32.4518 176.71 32.4382 176.614 32.4336C176.523 32.4245 176.418 32.4199 176.3 32.4199C176.008 32.4199 175.75 32.4655 175.527 32.5566C175.304 32.6478 175.115 32.7754 174.96 32.9395C174.805 33.1035 174.682 33.2995 174.591 33.5273C174.504 33.7507 174.447 33.9967 174.42 34.2656L174.064 34.4707C174.064 34.0241 174.108 33.6048 174.194 33.2129C174.285 32.821 174.424 32.4746 174.611 32.1738C174.798 31.8685 175.035 31.6315 175.322 31.4629C175.614 31.2897 175.96 31.2031 176.361 31.2031C176.452 31.2031 176.557 31.2145 176.676 31.2373C176.794 31.2555 176.876 31.276 176.922 31.2988ZM180.463 37.5947L182.486 31.3398H183.778L181.119 38.7363H180.271L180.463 37.5947ZM178.774 31.3398L180.859 37.6289L181.003 38.7363H180.155L177.475 31.3398H178.774ZM187.969 38.873C187.454 38.873 186.986 38.7865 186.567 38.6133C186.152 38.4355 185.795 38.1872 185.494 37.8682C185.198 37.5492 184.97 37.1709 184.81 36.7334C184.651 36.2959 184.571 35.8174 184.571 35.2979V35.0107C184.571 34.4092 184.66 33.8737 184.838 33.4043C185.015 32.9303 185.257 32.5293 185.562 32.2012C185.868 31.873 186.214 31.6247 186.601 31.4561C186.989 31.2874 187.39 31.2031 187.804 31.2031C188.333 31.2031 188.789 31.2943 189.172 31.4766C189.559 31.6589 189.876 31.9141 190.122 32.2422C190.368 32.5658 190.55 32.9486 190.669 33.3906C190.787 33.8281 190.846 34.3066 190.846 34.8262V35.3936H185.323V34.3613H189.582V34.2656C189.564 33.9375 189.495 33.6185 189.377 33.3086C189.263 32.9987 189.08 32.7435 188.83 32.543C188.579 32.3424 188.237 32.2422 187.804 32.2422C187.517 32.2422 187.253 32.3037 187.011 32.4268C186.77 32.5452 186.563 32.723 186.389 32.96C186.216 33.1969 186.082 33.4863 185.986 33.8281C185.89 34.1699 185.843 34.5641 185.843 35.0107V35.2979C185.843 35.6488 185.89 35.9792 185.986 36.2891C186.086 36.5944 186.23 36.8633 186.417 37.0957C186.608 37.3281 186.838 37.5104 187.107 37.6426C187.381 37.7747 187.691 37.8408 188.037 37.8408C188.483 37.8408 188.862 37.7497 189.172 37.5674C189.482 37.3851 189.753 37.1413 189.985 36.8359L190.751 37.4443C190.591 37.6859 190.388 37.916 190.142 38.1348C189.896 38.3535 189.593 38.5312 189.233 38.668C188.878 38.8047 188.456 38.873 187.969 38.873ZM196.985 37.3008V28.2363H198.257V38.7363H197.094L196.985 37.3008ZM192.009 35.1201V34.9766C192.009 34.4115 192.077 33.8988 192.214 33.4385C192.355 32.9736 192.553 32.5749 192.808 32.2422C193.068 31.9095 193.376 31.6543 193.731 31.4766C194.091 31.2943 194.492 31.2031 194.934 31.2031C195.399 31.2031 195.805 31.2852 196.151 31.4492C196.502 31.6087 196.798 31.8434 197.04 32.1533C197.286 32.4587 197.48 32.8278 197.621 33.2607C197.762 33.6937 197.86 34.1836 197.915 34.7305V35.3594C197.865 35.9017 197.767 36.3893 197.621 36.8223C197.48 37.2552 197.286 37.6243 197.04 37.9297C196.798 38.235 196.502 38.4697 196.151 38.6338C195.8 38.7933 195.39 38.873 194.921 38.873C194.488 38.873 194.091 38.7796 193.731 38.5928C193.376 38.4059 193.068 38.1439 192.808 37.8066C192.553 37.4694 192.355 37.0729 192.214 36.6172C192.077 36.1569 192.009 35.6579 192.009 35.1201ZM193.28 34.9766V35.1201C193.28 35.4893 193.316 35.8356 193.389 36.1592C193.467 36.4827 193.585 36.7676 193.745 37.0137C193.904 37.2598 194.107 37.4535 194.353 37.5947C194.599 37.7314 194.893 37.7998 195.235 37.7998C195.654 37.7998 195.998 37.7109 196.267 37.5332C196.541 37.3555 196.76 37.1208 196.924 36.8291C197.088 36.5374 197.215 36.2207 197.306 35.8789V34.2314C197.252 33.9808 197.172 33.7393 197.067 33.5068C196.967 33.2699 196.835 33.0602 196.671 32.8779C196.511 32.6911 196.313 32.543 196.076 32.4336C195.844 32.3242 195.568 32.2695 195.249 32.2695C194.902 32.2695 194.604 32.3424 194.353 32.4883C194.107 32.6296 193.904 32.8255 193.745 33.0762C193.585 33.3223 193.467 33.6094 193.389 33.9375C193.316 34.2611 193.28 34.6074 193.28 34.9766Z" fill="#131619"/>
<path d="M120.125 29.8862V40.4507H67.7974V29.8862H120.125Z" stroke="#131619" stroke-width="0.5" stroke-linecap="square"/>
<path d="M62.1094 19.1334L93.1165 19.1334M93.1165 19.1334L93.1165 29.7464M93.1165 19.1334L125.477 19.1334" stroke="#131619" stroke-width="0.5"/>
<path d="M67.5754 46.3883H68.0754V46.8883H67.5754V46.3883ZM0.5 46.8883C0.223862 46.8883 0 46.6644 0 46.3883C0 46.1121 0.223862 45.8883 0.5 45.8883V46.3883V46.8883ZM0.549179 45.8883C0.825317 45.8883 1.04918 46.1121 1.04918 46.3883C1.04918 46.6644 0.825317 46.8883 0.549179 46.8883V46.3883V45.8883ZM3.49971 46.8883C3.22356 46.8883 2.99971 46.6644 2.99971 46.3883C2.99971 46.1121 3.22356 45.8883 3.49971 45.8883V46.3883V46.8883ZM3.59806 45.8883C3.8742 45.8883 4.09806 46.1121 4.09806 46.3883C4.09806 46.6644 3.8742 46.8883 3.59806 46.8883V46.3883V45.8883ZM6.54859 46.8883C6.27245 46.8883 6.04859 46.6644 6.04859 46.3883C6.04859 46.1121 6.27245 45.8883 6.54859 45.8883V46.3883V46.8883ZM6.64694 45.8883C6.92308 45.8883 7.14694 46.1121 7.14694 46.3883C7.14694 46.6644 6.92308 46.8883 6.64694 46.8883V46.3883V45.8883ZM9.59748 46.8883C9.32133 46.8883 9.09748 46.6644 9.09748 46.3883C9.09748 46.1121 9.32133 45.8883 9.59748 45.8883V46.3883V46.8883ZM9.69583 45.8883C9.97197 45.8883 10.1958 46.1121 10.1958 46.3883C10.1958 46.6644 9.97197 46.8883 9.69583 46.8883V46.3883V45.8883ZM12.6464 46.8883C12.3702 46.8883 12.1464 46.6644 12.1464 46.3883C12.1464 46.1121 12.3702 45.8883 12.6464 45.8883V46.3883V46.8883ZM12.7447 45.8883C13.0209 45.8883 13.2447 46.1121 13.2447 46.3883C13.2447 46.6644 13.0209 46.8883 12.7447 46.8883V46.3883V45.8883ZM15.6952 46.8883C15.4191 46.8883 15.1952 46.6644 15.1952 46.3883C15.1952 46.1121 15.4191 45.8883 15.6952 45.8883V46.3883V46.8883ZM15.7936 45.8883C16.0697 45.8883 16.2936 46.1121 16.2936 46.3883C16.2936 46.6644 16.0697 46.8883 15.7936 46.8883V46.3883V45.8883ZM18.7441 46.8883C18.468 46.8883 18.2441 46.6644 18.2441 46.3883C18.2441 46.1121 18.468 45.8883 18.7441 45.8883V46.3883V46.8883ZM18.8425 45.8883C19.1186 45.8883 19.3425 46.1121 19.3425 46.3883C19.3425 46.6644 19.1186 46.8883 18.8425 46.8883V46.3883V45.8883ZM21.793 46.8883C21.5169 46.8883 21.293 46.6644 21.293 46.3883C21.293 46.1121 21.5169 45.8883 21.793 45.8883V46.3883V46.8883ZM21.8914 45.8883C22.1675 45.8883 22.3914 46.1121 22.3914 46.3883C22.3914 46.6644 22.1675 46.8883 21.8914 46.8883V46.3883V45.8883ZM24.8419 46.8883C24.5658 46.8883 24.3419 46.6644 24.3419 46.3883C24.3419 46.1121 24.5658 45.8883 24.8419 45.8883V46.3883V46.8883ZM24.9402 45.8883C25.2164 45.8883 25.4402 46.1121 25.4402 46.3883C25.4402 46.6644 25.2164 46.8883 24.9402 46.8883V46.3883V45.8883ZM27.8908 46.8883C27.6146 46.8883 27.3908 46.6644 27.3908 46.3883C27.3908 46.1121 27.6146 45.8883 27.8908 45.8883V46.3883V46.8883ZM27.9891 45.8883C28.2653 45.8883 28.4891 46.1121 28.4891 46.3883C28.4891 46.6644 28.2653 46.8883 27.9891 46.8883V46.3883V45.8883ZM30.9397 46.8883C30.6635 46.8883 30.4397 46.6644 30.4397 46.3883C30.4397 46.1121 30.6635 45.8883 30.9397 45.8883V46.3883V46.8883ZM31.038 45.8883C31.3142 45.8883 31.538 46.1121 31.538 46.3883C31.538 46.6644 31.3142 46.8883 31.038 46.8883V46.3883V45.8883ZM33.9885 46.8883C33.7124 46.8883 33.4885 46.6644 33.4885 46.3883C33.4885 46.1121 33.7124 45.8883 33.9885 45.8883V46.3883V46.8883ZM34.0869 45.8883C34.363 45.8883 34.5869 46.1121 34.5869 46.3883C34.5869 46.6644 34.363 46.8883 34.0869 46.8883V46.3883V45.8883ZM37.0374 46.8883C36.7613 46.8883 36.5374 46.6644 36.5374 46.3883C36.5374 46.1121 36.7613 45.8883 37.0374 45.8883V46.3883V46.8883ZM37.1358 45.8883C37.4119 45.8883 37.6358 46.1121 37.6358 46.3883C37.6358 46.6644 37.4119 46.8883 37.1358 46.8883V46.3883V45.8883ZM40.0863 46.8883C39.8102 46.8883 39.5863 46.6644 39.5863 46.3883C39.5863 46.1121 39.8102 45.8883 40.0863 45.8883V46.3883V46.8883ZM40.1847 45.8883C40.4608 45.8883 40.6847 46.1121 40.6847 46.3883C40.6847 46.6644 40.4608 46.8883 40.1847 46.8883V46.3883V45.8883ZM43.1352 46.8883C42.859 46.8883 42.6352 46.6644 42.6352 46.3883C42.6352 46.1121 42.859 45.8883 43.1352 45.8883V46.3883V46.8883ZM43.2335 45.8883C43.5097 45.8883 43.7335 46.1121 43.7335 46.3883C43.7335 46.6644 43.5097 46.8883 43.2335 46.8883V46.3883V45.8883ZM46.1841 46.8883C45.9079 46.8883 45.6841 46.6644 45.6841 46.3883C45.6841 46.1121 45.9079 45.8883 46.1841 45.8883V46.3883V46.8883ZM46.2824 45.8883C46.5586 45.8883 46.7824 46.1121 46.7824 46.3883C46.7824 46.6644 46.5586 46.8883 46.2824 46.8883V46.3883V45.8883ZM49.233 46.8883C48.9568 46.8883 48.733 46.6644 48.733 46.3883C48.733 46.1121 48.9568 45.8883 49.233 45.8883V46.3883V46.8883ZM49.3313 45.8883C49.6074 45.8883 49.8313 46.1121 49.8313 46.3883C49.8313 46.6644 49.6074 46.8883 49.3313 46.8883V46.3883V45.8883ZM52.2818 46.8883C52.0057 46.8883 51.7818 46.6644 51.7818 46.3883C51.7818 46.1121 52.0057 45.8883 52.2818 45.8883V46.3883V46.8883ZM52.3802 45.8883C52.6563 45.8883 52.8802 46.1121 52.8802 46.3883C52.8802 46.6644 52.6563 46.8883 52.3802 46.8883V46.3883V45.8883ZM55.3307 46.8883C55.0546 46.8883 54.8307 46.6644 54.8307 46.3883C54.8307 46.1121 55.0546 45.8883 55.3307 45.8883V46.3883V46.8883ZM55.4291 45.8883C55.7052 45.8883 55.9291 46.1121 55.9291 46.3883C55.9291 46.6644 55.7052 46.8883 55.4291 46.8883V46.3883V45.8883ZM58.3796 46.8883C58.1035 46.8883 57.8796 46.6644 57.8796 46.3883C57.8796 46.1121 58.1035 45.8883 58.3796 45.8883V46.3883V46.8883ZM58.4779 45.8883C58.7541 45.8883 58.9779 46.1121 58.9779 46.3883C58.9779 46.6644 58.7541 46.8883 58.4779 46.8883V46.3883V45.8883ZM61.4285 46.8883C61.1523 46.8883 60.9285 46.6644 60.9285 46.3883C60.9285 46.1121 61.1523 45.8883 61.4285 45.8883V46.3883V46.8883ZM61.5268 45.8883C61.803 45.8883 62.0268 46.1121 62.0268 46.3883C62.0268 46.6644 61.803 46.8883 61.5268 46.8883V46.3883V45.8883ZM64.4774 46.8883C64.2012 46.8883 63.9774 46.6644 63.9774 46.3883C63.9774 46.1121 64.2012 45.8883 64.4774 45.8883V46.3883V46.8883ZM64.5757 45.8883C64.8519 45.8883 65.0757 46.1121 65.0757 46.3883C65.0757 46.6644 64.8519 46.8883 64.5757 46.8883V46.3883V45.8883ZM67.5262 46.8883C67.2501 46.8883 67.0262 46.6644 67.0262 46.3883C67.0262 46.1121 67.2501 45.8883 67.5262 45.8883V46.3883V46.8883ZM67.0754 46.3383C67.0754 46.0621 67.2993 45.8383 67.5754 45.8383C67.8516 45.8383 68.0754 46.0621 68.0754 46.3383H67.5754H67.0754ZM68.0754 43.34C68.0754 43.6161 67.8516 43.84 67.5754 43.84C67.2993 43.84 67.0754 43.6161 67.0754 43.34H67.5754H68.0754ZM67.0754 43.24C67.0754 42.9639 67.2993 42.74 67.5754 42.74C67.8516 42.74 68.0754 42.9639 68.0754 43.24H67.5754H67.0754ZM68.0754 40.2417C68.0754 40.5179 67.8516 40.7417 67.5754 40.7417C67.2993 40.7417 67.0754 40.5179 67.0754 40.2417H67.5754H68.0754ZM67.0754 40.1418C67.0754 39.8656 67.2993 39.6418 67.5754 39.6418C67.8516 39.6418 68.0754 39.8656 68.0754 40.1418H67.5754H67.0754ZM68.0754 37.1435C68.0754 37.4196 67.8516 37.6435 67.5754 37.6435C67.2993 37.6435 67.0754 37.4196 67.0754 37.1435H67.5754H68.0754ZM67.0754 37.0435C67.0754 36.7674 67.2993 36.5435 67.5754 36.5435C67.8516 36.5435 68.0754 36.7674 68.0754 37.0435H67.5754H67.0754ZM68.0754 34.0452C68.0754 34.3213 67.8516 34.5452 67.5754 34.5452C67.2993 34.5452 67.0754 34.3213 67.0754 34.0452H67.5754H68.0754ZM0.5 46.3883V45.8883H0.549179V46.3883V46.8883H0.5V46.3883ZM3.49971 46.3883V45.8883H3.59806V46.3883V46.8883H3.49971V46.3883ZM6.54859 46.3883V45.8883H6.64694V46.3883V46.8883H6.54859V46.3883ZM9.59748 46.3883V45.8883H9.69583V46.3883V46.8883H9.59748V46.3883ZM12.6464 46.3883V45.8883H12.7447V46.3883V46.8883H12.6464V46.3883ZM15.6952 46.3883V45.8883H15.7936V46.3883V46.8883H15.6952V46.3883ZM18.7441 46.3883V45.8883H18.8425V46.3883V46.8883H18.7441V46.3883ZM21.793 46.3883V45.8883H21.8914V46.3883V46.8883H21.793V46.3883ZM24.8419 46.3883V45.8883H24.9402V46.3883V46.8883H24.8419V46.3883ZM27.8908 46.3883V45.8883H27.9891V46.3883V46.8883H27.8908V46.3883ZM30.9397 46.3883V45.8883H31.038V46.3883V46.8883H30.9397V46.3883ZM33.9885 46.3883V45.8883H34.0869V46.3883V46.8883H33.9885V46.3883ZM37.0374 46.3883V45.8883H37.1358V46.3883V46.8883H37.0374V46.3883ZM40.0863 46.3883V45.8883H40.1847V46.3883V46.8883H40.0863V46.3883ZM43.1352 46.3883V45.8883H43.2335V46.3883V46.8883H43.1352V46.3883ZM46.1841 46.3883V45.8883H46.2824V46.3883V46.8883H46.1841V46.3883ZM49.233 46.3883V45.8883H49.3313V46.3883V46.8883H49.233V46.3883ZM52.2818 46.3883V45.8883H52.3802V46.3883V46.8883H52.2818V46.3883ZM55.3307 46.3883V45.8883H55.4291V46.3883V46.8883H55.3307V46.3883ZM58.3796 46.3883V45.8883H58.4779V46.3883V46.8883H58.3796V46.3883ZM61.4285 46.3883V45.8883H61.5268V46.3883V46.8883H61.4285V46.3883ZM64.4774 46.3883V45.8883H64.5757V46.3883V46.8883H64.4774V46.3883ZM67.5262 46.3883V45.8883H67.5754V46.3883V46.8883H67.5262V46.3883ZM67.5754 46.3883H67.0754V46.3383H67.5754H68.0754V46.3883H67.5754ZM67.5754 43.34H67.0754V43.24H67.5754H68.0754V43.34H67.5754ZM67.5754 40.2417H67.0754V40.1418H67.5754H68.0754V40.2417H67.5754ZM67.5754 37.1435H67.0754V37.0435H67.5754H68.0754V37.1435H67.5754ZM67.5754 34.0452H67.0754V33.9952H67.5754H68.0754V34.0452H67.5754Z" fill="#131619"/>
<path d="M120.69 46.3873H120.44V46.6373L120.69 46.6373L120.69 46.3873ZM199.14 46.6382C199.278 46.6382 199.39 46.5263 199.39 46.3882C199.39 46.2501 199.278 46.1382 199.14 46.1382V46.3882V46.6382ZM197.203 46.1382C197.065 46.1382 196.953 46.2501 196.953 46.3882C196.953 46.5262 197.065 46.6382 197.203 46.6382L197.203 46.3882V46.1382ZM192.361 46.6381C192.499 46.6381 192.611 46.5262 192.611 46.3881C192.611 46.25 192.499 46.1381 192.361 46.1381V46.3881V46.6381ZM188.487 46.1381C188.349 46.1381 188.237 46.25 188.237 46.3881C188.237 46.5261 188.349 46.6381 188.487 46.6381L188.487 46.3881V46.1381ZM183.644 46.638C183.782 46.638 183.894 46.5261 183.894 46.388C183.894 46.2499 183.782 46.138 183.644 46.138V46.388L183.644 46.638ZM179.77 46.138C179.632 46.138 179.52 46.2499 179.52 46.388C179.52 46.526 179.632 46.638 179.77 46.638L179.77 46.388L179.77 46.138ZM174.927 46.6379C175.066 46.6379 175.177 46.526 175.177 46.3879C175.177 46.2498 175.066 46.1379 174.927 46.1379L174.927 46.3879L174.927 46.6379ZM171.053 46.1379C170.915 46.1379 170.803 46.2498 170.803 46.3879C170.803 46.5259 170.915 46.6379 171.053 46.6379V46.3879L171.053 46.1379ZM166.211 46.6378C166.349 46.6378 166.461 46.5259 166.461 46.3878C166.461 46.2497 166.349 46.1378 166.211 46.1378L166.211 46.3878L166.211 46.6378ZM162.337 46.1378C162.199 46.1378 162.087 46.2497 162.087 46.3878C162.087 46.5258 162.199 46.6378 162.337 46.6378L162.337 46.3878L162.337 46.1378ZM157.494 46.6377C157.632 46.6377 157.744 46.5258 157.744 46.3877C157.744 46.2496 157.632 46.1377 157.494 46.1377L157.494 46.3877V46.6377ZM153.62 46.1377C153.482 46.1377 153.37 46.2496 153.37 46.3877C153.37 46.5257 153.482 46.6377 153.62 46.6377L153.62 46.3877L153.62 46.1377ZM148.777 46.6376C148.916 46.6376 149.027 46.5257 149.027 46.3876C149.027 46.2495 148.916 46.1376 148.777 46.1376L148.777 46.3876L148.777 46.6376ZM144.903 46.1376C144.765 46.1376 144.653 46.2495 144.653 46.3876C144.653 46.5256 144.765 46.6376 144.903 46.6376L144.903 46.3876L144.903 46.1376ZM140.061 46.6375C140.199 46.6375 140.311 46.5256 140.311 46.3875C140.311 46.2494 140.199 46.1375 140.061 46.1375L140.061 46.3875L140.061 46.6375ZM136.187 46.1375C136.049 46.1375 135.937 46.2494 135.937 46.3874C135.937 46.5255 136.049 46.6375 136.187 46.6375L136.187 46.3875L136.187 46.1375ZM131.344 46.6374C131.482 46.6374 131.594 46.5255 131.594 46.3874C131.594 46.2493 131.482 46.1374 131.344 46.1374L131.344 46.3874L131.344 46.6374ZM127.47 46.1374C127.332 46.1373 127.22 46.2493 127.22 46.3873C127.22 46.5254 127.332 46.6373 127.47 46.6374L127.47 46.3874L127.47 46.1374ZM122.627 46.6373C122.766 46.6373 122.877 46.5254 122.877 46.3873C122.877 46.2492 122.766 46.1373 122.627 46.1373L122.627 46.3873L122.627 46.6373ZM120.94 44.9524C120.94 44.8144 120.829 44.7024 120.69 44.7024C120.552 44.7024 120.44 44.8144 120.44 44.9524H120.69H120.94ZM120.44 41.3653C120.44 41.5034 120.552 41.6153 120.69 41.6153C120.829 41.6153 120.94 41.5034 120.94 41.3653H120.69H120.44ZM199.14 46.3882V46.1382L197.203 46.1382V46.3882L197.203 46.6382L199.14 46.6382V46.3882ZM192.361 46.3881V46.1381L188.487 46.1381V46.3881L188.487 46.6381L192.361 46.6381V46.3881ZM183.644 46.388V46.138L179.77 46.138L179.77 46.388L179.77 46.638L183.644 46.638L183.644 46.388ZM174.927 46.3879L174.927 46.1379L171.053 46.1379L171.053 46.3879V46.6379L174.927 46.6379L174.927 46.3879ZM166.211 46.3878L166.211 46.1378L162.337 46.1378L162.337 46.3878L162.337 46.6378L166.211 46.6378L166.211 46.3878ZM157.494 46.3877L157.494 46.1377L153.62 46.1377L153.62 46.3877L153.62 46.6377L157.494 46.6377V46.3877ZM148.777 46.3876L148.777 46.1376L144.903 46.1376L144.903 46.3876L144.903 46.6376L148.777 46.6376L148.777 46.3876ZM140.061 46.3875L140.061 46.1375L136.187 46.1375L136.187 46.3875L136.187 46.6375L140.061 46.6375L140.061 46.3875ZM131.344 46.3874L131.344 46.1374L127.47 46.1374L127.47 46.3874L127.47 46.6374L131.344 46.6374L131.344 46.3874ZM122.627 46.3873L122.627 46.1373L120.69 46.1373L120.69 46.3873L120.69 46.6373L122.627 46.6373L122.627 46.3873ZM120.69 46.3873H120.94V44.9524H120.69H120.44V46.3873H120.69ZM120.69 41.3653H120.94V39.9305H120.69H120.44V41.3653H120.69Z" fill="#131619"/>
<circle cx="67.5474" cy="35.186" r="4.76465" fill="white" stroke="#131619" stroke-width="1.5"/>
</svg>
