<svg width="200" height="22" viewBox="0 0 200 22" fill="none" xmlns="http://www.w3.org/2000/svg">
<circle cx="120.447" cy="9.44971" r="4.76465" fill="#131619" stroke="#131619" stroke-width="1.5"/>
<path d="M5.875 12.5134V3.44897H7.14648V13.949H5.98438L5.875 12.5134ZM0.898438 10.3328V10.1892C0.898438 9.6241 0.966797 9.11141 1.10352 8.65112C1.24479 8.18628 1.44303 7.78752 1.69824 7.45483C1.95801 7.12215 2.26562 6.86694 2.62109 6.68921C2.98112 6.50692 3.38216 6.41577 3.82422 6.41577C4.28906 6.41577 4.69466 6.4978 5.04102 6.66187C5.39193 6.82137 5.68815 7.05607 5.92969 7.36597C6.17578 7.67131 6.36947 8.04045 6.51074 8.47339C6.65202 8.90633 6.75 9.39624 6.80469 9.94312V10.572C6.75456 11.1143 6.65658 11.602 6.51074 12.0349C6.36947 12.4679 6.17578 12.837 5.92969 13.1423C5.68815 13.4477 5.39193 13.6824 5.04102 13.8464C4.6901 14.0059 4.27995 14.0857 3.81055 14.0857C3.3776 14.0857 2.98112 13.9923 2.62109 13.8054C2.26562 13.6186 1.95801 13.3565 1.69824 13.0193C1.44303 12.682 1.24479 12.2856 1.10352 11.8298C0.966797 11.3695 0.898438 10.8705 0.898438 10.3328ZM2.16992 10.1892V10.3328C2.16992 10.7019 2.20638 11.0483 2.2793 11.3718C2.35677 11.6954 2.47526 11.9802 2.63477 12.2263C2.79427 12.4724 2.99707 12.6661 3.24316 12.8074C3.48926 12.9441 3.7832 13.0125 4.125 13.0125C4.54427 13.0125 4.88835 12.9236 5.15723 12.7458C5.43066 12.5681 5.64941 12.3334 5.81348 12.0417C5.97754 11.7501 6.10514 11.4333 6.19629 11.0916V9.44409C6.1416 9.19344 6.06185 8.9519 5.95703 8.71948C5.85677 8.4825 5.72461 8.27287 5.56055 8.09058C5.40104 7.90373 5.2028 7.75562 4.96582 7.64624C4.7334 7.53687 4.45768 7.48218 4.13867 7.48218C3.79232 7.48218 3.49382 7.55509 3.24316 7.70093C2.99707 7.8422 2.79427 8.03817 2.63477 8.28882C2.47526 8.53491 2.35677 8.82202 2.2793 9.15015C2.20638 9.47371 2.16992 9.82007 2.16992 10.1892ZM12.1846 14.0857C11.6696 14.0857 11.2025 13.9991 10.7832 13.8259C10.3685 13.6482 10.0107 13.3998 9.70996 13.0808C9.41374 12.7618 9.18587 12.3835 9.02637 11.946C8.86686 11.5085 8.78711 11.03 8.78711 10.5105V10.2234C8.78711 9.62183 8.87598 9.08634 9.05371 8.61694C9.23145 8.14299 9.47298 7.74194 9.77832 7.41382C10.0837 7.08569 10.43 6.83732 10.8174 6.6687C11.2048 6.50008 11.6058 6.41577 12.0205 6.41577C12.5492 6.41577 13.0049 6.50692 13.3877 6.68921C13.7751 6.8715 14.0918 7.12671 14.3379 7.45483C14.584 7.7784 14.7663 8.16121 14.8848 8.60327C15.0033 9.04077 15.0625 9.51929 15.0625 10.0388V10.6062H9.53906V9.57397H13.7979V9.47827C13.7796 9.15015 13.7113 8.83114 13.5928 8.52124C13.4788 8.21134 13.2965 7.95614 13.0459 7.75562C12.7952 7.55509 12.4535 7.45483 12.0205 7.45483C11.7334 7.45483 11.4691 7.51636 11.2275 7.6394C10.986 7.75789 10.7786 7.93563 10.6055 8.17261C10.4323 8.40959 10.2979 8.69897 10.2021 9.04077C10.1064 9.38257 10.0586 9.77677 10.0586 10.2234V10.5105C10.0586 10.8614 10.1064 11.1918 10.2021 11.5017C10.3024 11.807 10.446 12.0759 10.6328 12.3083C10.8242 12.5408 11.0544 12.7231 11.3232 12.8552C11.5967 12.9874 11.9066 13.0535 12.2529 13.0535C12.6995 13.0535 13.0778 12.9623 13.3877 12.78C13.6976 12.5977 13.9688 12.3539 14.2012 12.0486L14.9668 12.657C14.8073 12.8985 14.6045 13.1287 14.3584 13.3474C14.1123 13.5662 13.8092 13.7439 13.4492 13.8806C13.0938 14.0173 12.6722 14.0857 12.1846 14.0857ZM20.8457 11.9871C20.8457 11.8048 20.8047 11.6361 20.7227 11.4812C20.6452 11.3217 20.4834 11.1781 20.2373 11.0505C19.9958 10.9184 19.6312 10.8044 19.1436 10.7087C18.7334 10.6222 18.362 10.5196 18.0293 10.4011C17.7012 10.2826 17.4209 10.1391 17.1885 9.97046C16.9606 9.80184 16.7852 9.6036 16.6621 9.37573C16.5391 9.14787 16.4775 8.88127 16.4775 8.57593C16.4775 8.28426 16.5413 8.00854 16.6689 7.74878C16.8011 7.48901 16.9857 7.25887 17.2227 7.05835C17.4642 6.85783 17.7536 6.7006 18.0908 6.58667C18.4281 6.47274 18.804 6.41577 19.2188 6.41577C19.8112 6.41577 20.3171 6.52059 20.7363 6.73022C21.1556 6.93986 21.4769 7.22013 21.7002 7.57104C21.9235 7.9174 22.0352 8.30249 22.0352 8.72632H20.7705C20.7705 8.52124 20.709 8.323 20.5859 8.13159C20.4674 7.93563 20.292 7.77384 20.0596 7.64624C19.8317 7.51864 19.5514 7.45483 19.2188 7.45483C18.8678 7.45483 18.583 7.50952 18.3643 7.6189C18.1501 7.72371 17.9928 7.85815 17.8926 8.02222C17.7969 8.18628 17.749 8.35946 17.749 8.54175C17.749 8.67847 17.7718 8.80151 17.8174 8.91089C17.8675 9.01571 17.9541 9.11369 18.0771 9.20483C18.2002 9.29142 18.3734 9.37345 18.5967 9.45093C18.82 9.5284 19.1048 9.60588 19.4512 9.68335C20.0573 9.82007 20.5563 9.98413 20.9482 10.1755C21.3402 10.3669 21.6318 10.6016 21.8232 10.8796C22.0146 11.1576 22.1104 11.4949 22.1104 11.8914C22.1104 12.2149 22.042 12.5111 21.9053 12.78C21.7731 13.0489 21.5794 13.2813 21.3242 13.4773C21.0736 13.6687 20.7728 13.8191 20.4219 13.9285C20.0755 14.0333 19.6859 14.0857 19.2529 14.0857C18.6012 14.0857 18.0498 13.9695 17.5986 13.7371C17.1475 13.5046 16.8057 13.2039 16.5732 12.8347C16.3408 12.4656 16.2246 12.0759 16.2246 11.6658H17.4961C17.5143 12.0121 17.6146 12.2878 17.7969 12.4929C17.9792 12.6934 18.2025 12.837 18.4668 12.9236C18.7311 13.0056 18.9932 13.0466 19.2529 13.0466C19.5993 13.0466 19.8887 13.0011 20.1211 12.9099C20.3581 12.8188 20.5381 12.6934 20.6611 12.5339C20.7842 12.3744 20.8457 12.1921 20.8457 11.9871ZM25.1455 6.55249V13.949H23.874V6.55249H25.1455ZM23.7783 4.59058C23.7783 4.3855 23.8398 4.21232 23.9629 4.07104C24.0905 3.92977 24.2773 3.85913 24.5234 3.85913C24.765 3.85913 24.9495 3.92977 25.0771 4.07104C25.2093 4.21232 25.2754 4.3855 25.2754 4.59058C25.2754 4.78654 25.2093 4.95516 25.0771 5.09644C24.9495 5.23315 24.765 5.30151 24.5234 5.30151C24.2773 5.30151 24.0905 5.23315 23.9629 5.09644C23.8398 4.95516 23.7783 4.78654 23.7783 4.59058ZM28.4404 7.7146V13.949H27.1758V6.55249H28.4062L28.4404 7.7146ZM30.751 6.51147L30.7441 7.68726C30.6393 7.66447 30.5391 7.6508 30.4434 7.64624C30.3522 7.63713 30.2474 7.63257 30.1289 7.63257C29.8372 7.63257 29.5798 7.67814 29.3564 7.76929C29.1331 7.86043 28.944 7.98804 28.7891 8.1521C28.6341 8.31616 28.5111 8.51213 28.4199 8.73999C28.3333 8.9633 28.2764 9.20939 28.249 9.47827L27.8936 9.68335C27.8936 9.23674 27.9368 8.81746 28.0234 8.42554C28.1146 8.03361 28.2536 7.68726 28.4404 7.38647C28.6273 7.08114 28.8643 6.84416 29.1514 6.67554C29.443 6.50236 29.7894 6.41577 30.1904 6.41577C30.2816 6.41577 30.3864 6.42716 30.5049 6.44995C30.6234 6.46818 30.7054 6.48869 30.751 6.51147ZM34.8525 14.0857C34.3376 14.0857 33.8704 13.9991 33.4512 13.8259C33.0365 13.6482 32.6787 13.3998 32.3779 13.0808C32.0817 12.7618 31.8538 12.3835 31.6943 11.946C31.5348 11.5085 31.4551 11.03 31.4551 10.5105V10.2234C31.4551 9.62183 31.5439 9.08634 31.7217 8.61694C31.8994 8.14299 32.141 7.74194 32.4463 7.41382C32.7516 7.08569 33.098 6.83732 33.4854 6.6687C33.8727 6.50008 34.2738 6.41577 34.6885 6.41577C35.2171 6.41577 35.6729 6.50692 36.0557 6.68921C36.443 6.8715 36.7598 7.12671 37.0059 7.45483C37.252 7.7784 37.4342 8.16121 37.5527 8.60327C37.6712 9.04077 37.7305 9.51929 37.7305 10.0388V10.6062H32.207V9.57397H36.4658V9.47827C36.4476 9.15015 36.3792 8.83114 36.2607 8.52124C36.1468 8.21134 35.9645 7.95614 35.7139 7.75562C35.4632 7.55509 35.1214 7.45483 34.6885 7.45483C34.4014 7.45483 34.137 7.51636 33.8955 7.6394C33.654 7.75789 33.4466 7.93563 33.2734 8.17261C33.1003 8.40959 32.9658 8.69897 32.8701 9.04077C32.7744 9.38257 32.7266 9.77677 32.7266 10.2234V10.5105C32.7266 10.8614 32.7744 11.1918 32.8701 11.5017C32.9704 11.807 33.1139 12.0759 33.3008 12.3083C33.4922 12.5408 33.7223 12.7231 33.9912 12.8552C34.2646 12.9874 34.5745 13.0535 34.9209 13.0535C35.3675 13.0535 35.7458 12.9623 36.0557 12.78C36.3656 12.5977 36.6367 12.3539 36.8691 12.0486L37.6348 12.657C37.4753 12.8985 37.2725 13.1287 37.0264 13.3474C36.7803 13.5662 36.4772 13.7439 36.1172 13.8806C35.7617 14.0173 35.3402 14.0857 34.8525 14.0857ZM43.8691 12.5134V3.44897H45.1406V13.949H43.9785L43.8691 12.5134ZM38.8926 10.3328V10.1892C38.8926 9.6241 38.9609 9.11141 39.0977 8.65112C39.2389 8.18628 39.4372 7.78752 39.6924 7.45483C39.9521 7.12215 40.2598 6.86694 40.6152 6.68921C40.9753 6.50692 41.3763 6.41577 41.8184 6.41577C42.2832 6.41577 42.6888 6.4978 43.0352 6.66187C43.3861 6.82137 43.6823 7.05607 43.9238 7.36597C44.1699 7.67131 44.3636 8.04045 44.5049 8.47339C44.6462 8.90633 44.7441 9.39624 44.7988 9.94312V10.572C44.7487 11.1143 44.6507 11.602 44.5049 12.0349C44.3636 12.4679 44.1699 12.837 43.9238 13.1423C43.6823 13.4477 43.3861 13.6824 43.0352 13.8464C42.6842 14.0059 42.2741 14.0857 41.8047 14.0857C41.3717 14.0857 40.9753 13.9923 40.6152 13.8054C40.2598 13.6186 39.9521 13.3565 39.6924 13.0193C39.4372 12.682 39.2389 12.2856 39.0977 11.8298C38.9609 11.3695 38.8926 10.8705 38.8926 10.3328ZM40.1641 10.1892V10.3328C40.1641 10.7019 40.2005 11.0483 40.2734 11.3718C40.3509 11.6954 40.4694 11.9802 40.6289 12.2263C40.7884 12.4724 40.9912 12.6661 41.2373 12.8074C41.4834 12.9441 41.7773 13.0125 42.1191 13.0125C42.5384 13.0125 42.8825 12.9236 43.1514 12.7458C43.4248 12.5681 43.6436 12.3334 43.8076 12.0417C43.9717 11.7501 44.0993 11.4333 44.1904 11.0916V9.44409C44.1357 9.19344 44.056 8.9519 43.9512 8.71948C43.8509 8.4825 43.7188 8.27287 43.5547 8.09058C43.3952 7.90373 43.1969 7.75562 42.96 7.64624C42.7275 7.53687 42.4518 7.48218 42.1328 7.48218C41.7865 7.48218 41.488 7.55509 41.2373 7.70093C40.9912 7.8422 40.7884 8.03817 40.6289 8.28882C40.4694 8.53491 40.3509 8.82202 40.2734 9.15015C40.2005 9.47371 40.1641 9.82007 40.1641 10.1892Z" fill="#131619"/>
<path d="M142.51 9.38379V9.22656C142.51 8.69336 142.587 8.19889 142.742 7.74316C142.897 7.28288 143.12 6.88411 143.412 6.54688C143.704 6.20508 144.057 5.94076 144.471 5.75391C144.886 5.5625 145.351 5.4668 145.866 5.4668C146.385 5.4668 146.853 5.5625 147.267 5.75391C147.687 5.94076 148.042 6.20508 148.334 6.54688C148.63 6.88411 148.856 7.28288 149.01 7.74316C149.165 8.19889 149.243 8.69336 149.243 9.22656V9.38379C149.243 9.91699 149.165 10.4115 149.01 10.8672C148.856 11.3229 148.63 11.7217 148.334 12.0635C148.042 12.4007 147.689 12.665 147.274 12.8564C146.864 13.0433 146.399 13.1367 145.88 13.1367C145.36 13.1367 144.893 13.0433 144.478 12.8564C144.064 12.665 143.708 12.4007 143.412 12.0635C143.12 11.7217 142.897 11.3229 142.742 10.8672C142.587 10.4115 142.51 9.91699 142.51 9.38379ZM143.774 9.22656V9.38379C143.774 9.75293 143.817 10.1016 143.904 10.4297C143.991 10.7533 144.121 11.0404 144.294 11.291C144.471 11.5417 144.692 11.7399 144.957 11.8857C145.221 12.027 145.529 12.0977 145.88 12.0977C146.226 12.0977 146.529 12.027 146.789 11.8857C147.053 11.7399 147.272 11.5417 147.445 11.291C147.618 11.0404 147.748 10.7533 147.835 10.4297C147.926 10.1016 147.971 9.75293 147.971 9.38379V9.22656C147.971 8.86198 147.926 8.5179 147.835 8.19434C147.748 7.86621 147.616 7.57682 147.438 7.32617C147.265 7.07096 147.046 6.87044 146.782 6.72461C146.522 6.57878 146.217 6.50586 145.866 6.50586C145.52 6.50586 145.214 6.57878 144.95 6.72461C144.69 6.87044 144.471 7.07096 144.294 7.32617C144.121 7.57682 143.991 7.86621 143.904 8.19434C143.817 8.5179 143.774 8.86198 143.774 9.22656ZM150.822 2.5H152.094V11.5645L151.984 13H150.822V2.5ZM157.091 9.24023V9.38379C157.091 9.92155 157.027 10.4206 156.899 10.8809C156.772 11.3366 156.585 11.7331 156.339 12.0703C156.093 12.4076 155.792 12.6696 155.436 12.8564C155.081 13.0433 154.673 13.1367 154.213 13.1367C153.743 13.1367 153.331 13.057 152.975 12.8975C152.624 12.7334 152.328 12.4987 152.087 12.1934C151.845 11.888 151.651 11.5189 151.506 11.0859C151.364 10.653 151.266 10.1654 151.212 9.62305V8.99414C151.266 8.44727 151.364 7.95736 151.506 7.52441C151.651 7.09147 151.845 6.72233 152.087 6.41699C152.328 6.1071 152.624 5.8724 152.975 5.71289C153.326 5.54883 153.734 5.4668 154.199 5.4668C154.664 5.4668 155.076 5.55794 155.436 5.74023C155.796 5.91797 156.097 6.17318 156.339 6.50586C156.585 6.83854 156.772 7.2373 156.899 7.70215C157.027 8.16243 157.091 8.67513 157.091 9.24023ZM155.819 9.38379V9.24023C155.819 8.87109 155.785 8.52474 155.717 8.20117C155.648 7.87305 155.539 7.58594 155.388 7.33984C155.238 7.08919 155.04 6.89323 154.794 6.75195C154.548 6.60612 154.245 6.5332 153.885 6.5332C153.566 6.5332 153.288 6.58789 153.051 6.69727C152.818 6.80664 152.62 6.95475 152.456 7.1416C152.292 7.32389 152.157 7.53353 152.052 7.77051C151.952 8.00293 151.877 8.24447 151.827 8.49512V10.1426C151.9 10.4616 152.018 10.7692 152.182 11.0654C152.351 11.3571 152.574 11.5964 152.852 11.7832C153.135 11.9701 153.483 12.0635 153.898 12.0635C154.24 12.0635 154.532 11.9951 154.773 11.8584C155.019 11.7171 155.218 11.5234 155.368 11.2773C155.523 11.0312 155.637 10.7464 155.71 10.4229C155.783 10.0993 155.819 9.75293 155.819 9.38379ZM162.997 11.0381C162.997 10.8558 162.956 10.6872 162.874 10.5322C162.796 10.3727 162.635 10.2292 162.388 10.1016C162.147 9.9694 161.782 9.85547 161.295 9.75977C160.885 9.67318 160.513 9.57064 160.18 9.45215C159.852 9.33366 159.572 9.1901 159.34 9.02148C159.112 8.85286 158.936 8.65462 158.813 8.42676C158.69 8.19889 158.629 7.93229 158.629 7.62695C158.629 7.33529 158.692 7.05957 158.82 6.7998C158.952 6.54004 159.137 6.3099 159.374 6.10938C159.615 5.90885 159.905 5.75163 160.242 5.6377C160.579 5.52376 160.955 5.4668 161.37 5.4668C161.962 5.4668 162.468 5.57161 162.887 5.78125C163.307 5.99089 163.628 6.27116 163.851 6.62207C164.075 6.96842 164.186 7.35352 164.186 7.77734H162.922C162.922 7.57227 162.86 7.37402 162.737 7.18262C162.619 6.98665 162.443 6.82487 162.211 6.69727C161.983 6.56966 161.703 6.50586 161.37 6.50586C161.019 6.50586 160.734 6.56055 160.515 6.66992C160.301 6.77474 160.144 6.90918 160.044 7.07324C159.948 7.2373 159.9 7.41048 159.9 7.59277C159.9 7.72949 159.923 7.85254 159.969 7.96191C160.019 8.06673 160.105 8.16471 160.228 8.25586C160.351 8.34245 160.524 8.42448 160.748 8.50195C160.971 8.57943 161.256 8.6569 161.602 8.73438C162.208 8.87109 162.707 9.03516 163.099 9.22656C163.491 9.41797 163.783 9.65267 163.974 9.93066C164.166 10.2087 164.261 10.5459 164.261 10.9424C164.261 11.266 164.193 11.5622 164.056 11.8311C163.924 12.0999 163.731 12.3324 163.475 12.5283C163.225 12.7197 162.924 12.8701 162.573 12.9795C162.227 13.0843 161.837 13.1367 161.404 13.1367C160.752 13.1367 160.201 13.0205 159.75 12.7881C159.299 12.5557 158.957 12.2549 158.724 11.8857C158.492 11.5166 158.376 11.127 158.376 10.7168H159.647C159.665 11.0632 159.766 11.3389 159.948 11.5439C160.13 11.7445 160.354 11.888 160.618 11.9746C160.882 12.0566 161.144 12.0977 161.404 12.0977C161.75 12.0977 162.04 12.0521 162.272 11.9609C162.509 11.8698 162.689 11.7445 162.812 11.585C162.935 11.4255 162.997 11.2432 162.997 11.0381ZM168.992 13.1367C168.477 13.1367 168.01 13.0501 167.591 12.877C167.176 12.6992 166.818 12.4508 166.517 12.1318C166.221 11.8128 165.993 11.4346 165.834 10.9971C165.674 10.5596 165.594 10.0811 165.594 9.56152V9.27441C165.594 8.67285 165.683 8.13737 165.861 7.66797C166.039 7.19401 166.28 6.79297 166.586 6.46484C166.891 6.13672 167.237 5.88835 167.625 5.71973C168.012 5.55111 168.413 5.4668 168.828 5.4668C169.357 5.4668 169.812 5.55794 170.195 5.74023C170.582 5.92253 170.899 6.17773 171.145 6.50586C171.391 6.82943 171.574 7.21224 171.692 7.6543C171.811 8.0918 171.87 8.57031 171.87 9.08984V9.65723H166.346V8.625H170.605V8.5293C170.587 8.20117 170.519 7.88216 170.4 7.57227C170.286 7.26237 170.104 7.00716 169.853 6.80664C169.603 6.60612 169.261 6.50586 168.828 6.50586C168.541 6.50586 168.276 6.56738 168.035 6.69043C167.793 6.80892 167.586 6.98665 167.413 7.22363C167.24 7.46061 167.105 7.75 167.01 8.0918C166.914 8.43359 166.866 8.8278 166.866 9.27441V9.56152C166.866 9.91243 166.914 10.2428 167.01 10.5527C167.11 10.8581 167.253 11.127 167.44 11.3594C167.632 11.5918 167.862 11.7741 168.131 11.9062C168.404 12.0384 168.714 12.1045 169.06 12.1045C169.507 12.1045 169.885 12.0133 170.195 11.8311C170.505 11.6488 170.776 11.4049 171.009 11.0996L171.774 11.708C171.615 11.9495 171.412 12.1797 171.166 12.3984C170.92 12.6172 170.617 12.7949 170.257 12.9316C169.901 13.0684 169.48 13.1367 168.992 13.1367ZM174.611 6.76562V13H173.346V5.60352H174.577L174.611 6.76562ZM176.922 5.5625L176.915 6.73828C176.81 6.71549 176.71 6.70182 176.614 6.69727C176.523 6.68815 176.418 6.68359 176.3 6.68359C176.008 6.68359 175.75 6.72917 175.527 6.82031C175.304 6.91146 175.115 7.03906 174.96 7.20312C174.805 7.36719 174.682 7.56315 174.591 7.79102C174.504 8.01432 174.447 8.26042 174.42 8.5293L174.064 8.73438C174.064 8.28776 174.108 7.86849 174.194 7.47656C174.285 7.08464 174.424 6.73828 174.611 6.4375C174.798 6.13216 175.035 5.89518 175.322 5.72656C175.614 5.55339 175.96 5.4668 176.361 5.4668C176.452 5.4668 176.557 5.47819 176.676 5.50098C176.794 5.51921 176.876 5.53971 176.922 5.5625ZM180.463 11.8584L182.486 5.60352H183.778L181.119 13H180.271L180.463 11.8584ZM178.774 5.60352L180.859 11.8926L181.003 13H180.155L177.475 5.60352H178.774ZM187.969 13.1367C187.454 13.1367 186.986 13.0501 186.567 12.877C186.152 12.6992 185.795 12.4508 185.494 12.1318C185.198 11.8128 184.97 11.4346 184.81 10.9971C184.651 10.5596 184.571 10.0811 184.571 9.56152V9.27441C184.571 8.67285 184.66 8.13737 184.838 7.66797C185.015 7.19401 185.257 6.79297 185.562 6.46484C185.868 6.13672 186.214 5.88835 186.601 5.71973C186.989 5.55111 187.39 5.4668 187.804 5.4668C188.333 5.4668 188.789 5.55794 189.172 5.74023C189.559 5.92253 189.876 6.17773 190.122 6.50586C190.368 6.82943 190.55 7.21224 190.669 7.6543C190.787 8.0918 190.846 8.57031 190.846 9.08984V9.65723H185.323V8.625H189.582V8.5293C189.564 8.20117 189.495 7.88216 189.377 7.57227C189.263 7.26237 189.08 7.00716 188.83 6.80664C188.579 6.60612 188.237 6.50586 187.804 6.50586C187.517 6.50586 187.253 6.56738 187.011 6.69043C186.77 6.80892 186.563 6.98665 186.389 7.22363C186.216 7.46061 186.082 7.75 185.986 8.0918C185.89 8.43359 185.843 8.8278 185.843 9.27441V9.56152C185.843 9.91243 185.89 10.2428 185.986 10.5527C186.086 10.8581 186.23 11.127 186.417 11.3594C186.608 11.5918 186.838 11.7741 187.107 11.9062C187.381 12.0384 187.691 12.1045 188.037 12.1045C188.483 12.1045 188.862 12.0133 189.172 11.8311C189.482 11.6488 189.753 11.4049 189.985 11.0996L190.751 11.708C190.591 11.9495 190.388 12.1797 190.142 12.3984C189.896 12.6172 189.593 12.7949 189.233 12.9316C188.878 13.0684 188.456 13.1367 187.969 13.1367ZM196.985 11.5645V2.5H198.257V13H197.094L196.985 11.5645ZM192.009 9.38379V9.24023C192.009 8.67513 192.077 8.16243 192.214 7.70215C192.355 7.2373 192.553 6.83854 192.808 6.50586C193.068 6.17318 193.376 5.91797 193.731 5.74023C194.091 5.55794 194.492 5.4668 194.934 5.4668C195.399 5.4668 195.805 5.54883 196.151 5.71289C196.502 5.8724 196.798 6.1071 197.04 6.41699C197.286 6.72233 197.48 7.09147 197.621 7.52441C197.762 7.95736 197.86 8.44727 197.915 8.99414V9.62305C197.865 10.1654 197.767 10.653 197.621 11.0859C197.48 11.5189 197.286 11.888 197.04 12.1934C196.798 12.4987 196.502 12.7334 196.151 12.8975C195.8 13.057 195.39 13.1367 194.921 13.1367C194.488 13.1367 194.091 13.0433 193.731 12.8564C193.376 12.6696 193.068 12.4076 192.808 12.0703C192.553 11.7331 192.355 11.3366 192.214 10.8809C192.077 10.4206 192.009 9.92155 192.009 9.38379ZM193.28 9.24023V9.38379C193.28 9.75293 193.316 10.0993 193.389 10.4229C193.467 10.7464 193.585 11.0312 193.745 11.2773C193.904 11.5234 194.107 11.7171 194.353 11.8584C194.599 11.9951 194.893 12.0635 195.235 12.0635C195.654 12.0635 195.998 11.9746 196.267 11.7969C196.541 11.6191 196.76 11.3844 196.924 11.0928C197.088 10.8011 197.215 10.4844 197.306 10.1426V8.49512C197.252 8.24447 197.172 8.00293 197.067 7.77051C196.967 7.53353 196.835 7.32389 196.671 7.1416C196.511 6.95475 196.313 6.80664 196.076 6.69727C195.844 6.58789 195.568 6.5332 195.249 6.5332C194.902 6.5332 194.604 6.60612 194.353 6.75195C194.107 6.89323 193.904 7.08919 193.745 7.33984C193.585 7.58594 193.467 7.87305 193.389 8.20117C193.316 8.52474 193.28 8.87109 193.28 9.24023Z" fill="#131619"/>
<path d="M120.125 4.1499V14.7144H67.7974V4.1499H120.125Z" stroke="#131619" stroke-width="0.5" stroke-linecap="square"/>
<path d="M67.5754 20.6519H68.0754V21.1519H67.5754V20.6519ZM0.5 21.1519C0.223862 21.1519 0 20.9281 0 20.6519C0 20.3758 0.223862 20.1519 0.5 20.1519V20.6519V21.1519ZM0.549179 20.1519C0.825317 20.1519 1.04918 20.3758 1.04918 20.6519C1.04918 20.9281 0.825317 21.1519 0.549179 21.1519V20.6519V20.1519ZM3.49971 21.1519C3.22356 21.1519 2.99971 20.9281 2.99971 20.6519C2.99971 20.3758 3.22356 20.1519 3.49971 20.1519V20.6519V21.1519ZM3.59806 20.1519C3.8742 20.1519 4.09806 20.3758 4.09806 20.6519C4.09806 20.9281 3.8742 21.1519 3.59806 21.1519V20.6519V20.1519ZM6.54859 21.1519C6.27245 21.1519 6.04859 20.9281 6.04859 20.6519C6.04859 20.3758 6.27245 20.1519 6.54859 20.1519V20.6519V21.1519ZM6.64694 20.1519C6.92308 20.1519 7.14694 20.3758 7.14694 20.6519C7.14694 20.9281 6.92308 21.1519 6.64694 21.1519V20.6519V20.1519ZM9.59748 21.1519C9.32133 21.1519 9.09748 20.9281 9.09748 20.6519C9.09748 20.3758 9.32133 20.1519 9.59748 20.1519V20.6519V21.1519ZM9.69583 20.1519C9.97197 20.1519 10.1958 20.3758 10.1958 20.6519C10.1958 20.9281 9.97197 21.1519 9.69583 21.1519V20.6519V20.1519ZM12.6464 21.1519C12.3702 21.1519 12.1464 20.9281 12.1464 20.6519C12.1464 20.3758 12.3702 20.1519 12.6464 20.1519V20.6519V21.1519ZM12.7447 20.1519C13.0209 20.1519 13.2447 20.3758 13.2447 20.6519C13.2447 20.9281 13.0209 21.1519 12.7447 21.1519V20.6519V20.1519ZM15.6952 21.1519C15.4191 21.1519 15.1952 20.9281 15.1952 20.6519C15.1952 20.3758 15.4191 20.1519 15.6952 20.1519V20.6519V21.1519ZM15.7936 20.1519C16.0697 20.1519 16.2936 20.3758 16.2936 20.6519C16.2936 20.9281 16.0697 21.1519 15.7936 21.1519V20.6519V20.1519ZM18.7441 21.1519C18.468 21.1519 18.2441 20.9281 18.2441 20.6519C18.2441 20.3758 18.468 20.1519 18.7441 20.1519V20.6519V21.1519ZM18.8425 20.1519C19.1186 20.1519 19.3425 20.3758 19.3425 20.6519C19.3425 20.9281 19.1186 21.1519 18.8425 21.1519V20.6519V20.1519ZM21.793 21.1519C21.5169 21.1519 21.293 20.9281 21.293 20.6519C21.293 20.3758 21.5169 20.1519 21.793 20.1519V20.6519V21.1519ZM21.8914 20.1519C22.1675 20.1519 22.3914 20.3758 22.3914 20.6519C22.3914 20.9281 22.1675 21.1519 21.8914 21.1519V20.6519V20.1519ZM24.8419 21.1519C24.5658 21.1519 24.3419 20.9281 24.3419 20.6519C24.3419 20.3758 24.5658 20.1519 24.8419 20.1519V20.6519V21.1519ZM24.9402 20.1519C25.2164 20.1519 25.4402 20.3758 25.4402 20.6519C25.4402 20.9281 25.2164 21.1519 24.9402 21.1519V20.6519V20.1519ZM27.8908 21.1519C27.6146 21.1519 27.3908 20.9281 27.3908 20.6519C27.3908 20.3758 27.6146 20.1519 27.8908 20.1519V20.6519V21.1519ZM27.9891 20.1519C28.2653 20.1519 28.4891 20.3758 28.4891 20.6519C28.4891 20.9281 28.2653 21.1519 27.9891 21.1519V20.6519V20.1519ZM30.9397 21.1519C30.6635 21.1519 30.4397 20.9281 30.4397 20.6519C30.4397 20.3758 30.6635 20.1519 30.9397 20.1519V20.6519V21.1519ZM31.038 20.1519C31.3142 20.1519 31.538 20.3758 31.538 20.6519C31.538 20.9281 31.3142 21.1519 31.038 21.1519V20.6519V20.1519ZM33.9885 21.1519C33.7124 21.1519 33.4885 20.9281 33.4885 20.6519C33.4885 20.3758 33.7124 20.1519 33.9885 20.1519V20.6519V21.1519ZM34.0869 20.1519C34.363 20.1519 34.5869 20.3758 34.5869 20.6519C34.5869 20.9281 34.363 21.1519 34.0869 21.1519V20.6519V20.1519ZM37.0374 21.1519C36.7613 21.1519 36.5374 20.9281 36.5374 20.6519C36.5374 20.3758 36.7613 20.1519 37.0374 20.1519V20.6519V21.1519ZM37.1358 20.1519C37.4119 20.1519 37.6358 20.3758 37.6358 20.6519C37.6358 20.9281 37.4119 21.1519 37.1358 21.1519V20.6519V20.1519ZM40.0863 21.1519C39.8102 21.1519 39.5863 20.9281 39.5863 20.6519C39.5863 20.3758 39.8102 20.1519 40.0863 20.1519V20.6519V21.1519ZM40.1847 20.1519C40.4608 20.1519 40.6847 20.3758 40.6847 20.6519C40.6847 20.9281 40.4608 21.1519 40.1847 21.1519V20.6519V20.1519ZM43.1352 21.1519C42.859 21.1519 42.6352 20.9281 42.6352 20.6519C42.6352 20.3758 42.859 20.1519 43.1352 20.1519V20.6519V21.1519ZM43.2335 20.1519C43.5097 20.1519 43.7335 20.3758 43.7335 20.6519C43.7335 20.9281 43.5097 21.1519 43.2335 21.1519V20.6519V20.1519ZM46.1841 21.1519C45.9079 21.1519 45.6841 20.9281 45.6841 20.6519C45.6841 20.3758 45.9079 20.1519 46.1841 20.1519V20.6519V21.1519ZM46.2824 20.1519C46.5586 20.1519 46.7824 20.3758 46.7824 20.6519C46.7824 20.9281 46.5586 21.1519 46.2824 21.1519V20.6519V20.1519ZM49.233 21.1519C48.9568 21.1519 48.733 20.9281 48.733 20.6519C48.733 20.3758 48.9568 20.1519 49.233 20.1519V20.6519V21.1519ZM49.3313 20.1519C49.6074 20.1519 49.8313 20.3758 49.8313 20.6519C49.8313 20.9281 49.6074 21.1519 49.3313 21.1519V20.6519V20.1519ZM52.2818 21.1519C52.0057 21.1519 51.7818 20.9281 51.7818 20.6519C51.7818 20.3758 52.0057 20.1519 52.2818 20.1519V20.6519V21.1519ZM52.3802 20.1519C52.6563 20.1519 52.8802 20.3758 52.8802 20.6519C52.8802 20.9281 52.6563 21.1519 52.3802 21.1519V20.6519V20.1519ZM55.3307 21.1519C55.0546 21.1519 54.8307 20.9281 54.8307 20.6519C54.8307 20.3758 55.0546 20.1519 55.3307 20.1519V20.6519V21.1519ZM55.4291 20.1519C55.7052 20.1519 55.9291 20.3758 55.9291 20.6519C55.9291 20.9281 55.7052 21.1519 55.4291 21.1519V20.6519V20.1519ZM58.3796 21.1519C58.1035 21.1519 57.8796 20.9281 57.8796 20.6519C57.8796 20.3758 58.1035 20.1519 58.3796 20.1519V20.6519V21.1519ZM58.4779 20.1519C58.7541 20.1519 58.9779 20.3758 58.9779 20.6519C58.9779 20.9281 58.7541 21.1519 58.4779 21.1519V20.6519V20.1519ZM61.4285 21.1519C61.1523 21.1519 60.9285 20.9281 60.9285 20.6519C60.9285 20.3758 61.1523 20.1519 61.4285 20.1519V20.6519V21.1519ZM61.5268 20.1519C61.803 20.1519 62.0268 20.3758 62.0268 20.6519C62.0268 20.9281 61.803 21.1519 61.5268 21.1519V20.6519V20.1519ZM64.4774 21.1519C64.2012 21.1519 63.9774 20.9281 63.9774 20.6519C63.9774 20.3758 64.2012 20.1519 64.4774 20.1519V20.6519V21.1519ZM64.5757 20.1519C64.8519 20.1519 65.0757 20.3758 65.0757 20.6519C65.0757 20.9281 64.8519 21.1519 64.5757 21.1519V20.6519V20.1519ZM67.5262 21.1519C67.2501 21.1519 67.0262 20.9281 67.0262 20.6519C67.0262 20.3758 67.2501 20.1519 67.5262 20.1519V20.6519V21.1519ZM67.0754 20.602C67.0754 20.3258 67.2993 20.102 67.5754 20.102C67.8516 20.102 68.0754 20.3258 68.0754 20.602H67.5754H67.0754ZM68.0754 17.6036C68.0754 17.8798 67.8516 18.1036 67.5754 18.1036C67.2993 18.1036 67.0754 17.8798 67.0754 17.6036H67.5754H68.0754ZM67.0754 17.5037C67.0754 17.2276 67.2993 17.0037 67.5754 17.0037C67.8516 17.0037 68.0754 17.2276 68.0754 17.5037H67.5754H67.0754ZM68.0754 14.5054C68.0754 14.7815 67.8516 15.0054 67.5754 15.0054C67.2993 15.0054 67.0754 14.7815 67.0754 14.5054H67.5754H68.0754ZM67.0754 14.4054C67.0754 14.1293 67.2993 13.9054 67.5754 13.9054C67.8516 13.9054 68.0754 14.1293 68.0754 14.4054H67.5754H67.0754ZM68.0754 11.4071C68.0754 11.6833 67.8516 11.9071 67.5754 11.9071C67.2993 11.9071 67.0754 11.6833 67.0754 11.4071H67.5754H68.0754ZM67.0754 11.3072C67.0754 11.031 67.2993 10.8072 67.5754 10.8072C67.8516 10.8072 68.0754 11.031 68.0754 11.3072H67.5754H67.0754ZM68.0754 8.30887C68.0754 8.58501 67.8516 8.80887 67.5754 8.80887C67.2993 8.80887 67.0754 8.58501 67.0754 8.30887H67.5754H68.0754ZM0.5 20.6519V20.1519H0.549179V20.6519V21.1519H0.5V20.6519ZM3.49971 20.6519V20.1519H3.59806V20.6519V21.1519H3.49971V20.6519ZM6.54859 20.6519V20.1519H6.64694V20.6519V21.1519H6.54859V20.6519ZM9.59748 20.6519V20.1519H9.69583V20.6519V21.1519H9.59748V20.6519ZM12.6464 20.6519V20.1519H12.7447V20.6519V21.1519H12.6464V20.6519ZM15.6952 20.6519V20.1519H15.7936V20.6519V21.1519H15.6952V20.6519ZM18.7441 20.6519V20.1519H18.8425V20.6519V21.1519H18.7441V20.6519ZM21.793 20.6519V20.1519H21.8914V20.6519V21.1519H21.793V20.6519ZM24.8419 20.6519V20.1519H24.9402V20.6519V21.1519H24.8419V20.6519ZM27.8908 20.6519V20.1519H27.9891V20.6519V21.1519H27.8908V20.6519ZM30.9397 20.6519V20.1519H31.038V20.6519V21.1519H30.9397V20.6519ZM33.9885 20.6519V20.1519H34.0869V20.6519V21.1519H33.9885V20.6519ZM37.0374 20.6519V20.1519H37.1358V20.6519V21.1519H37.0374V20.6519ZM40.0863 20.6519V20.1519H40.1847V20.6519V21.1519H40.0863V20.6519ZM43.1352 20.6519V20.1519H43.2335V20.6519V21.1519H43.1352V20.6519ZM46.1841 20.6519V20.1519H46.2824V20.6519V21.1519H46.1841V20.6519ZM49.233 20.6519V20.1519H49.3313V20.6519V21.1519H49.233V20.6519ZM52.2818 20.6519V20.1519H52.3802V20.6519V21.1519H52.2818V20.6519ZM55.3307 20.6519V20.1519H55.4291V20.6519V21.1519H55.3307V20.6519ZM58.3796 20.6519V20.1519H58.4779V20.6519V21.1519H58.3796V20.6519ZM61.4285 20.6519V20.1519H61.5268V20.6519V21.1519H61.4285V20.6519ZM64.4774 20.6519V20.1519H64.5757V20.6519V21.1519H64.4774V20.6519ZM67.5262 20.6519V20.1519H67.5754V20.6519V21.1519H67.5262V20.6519ZM67.5754 20.6519H67.0754V20.602H67.5754H68.0754V20.6519H67.5754ZM67.5754 17.6036H67.0754V17.5037H67.5754H68.0754V17.6036H67.5754ZM67.5754 14.5054H67.0754V14.4054H67.5754H68.0754V14.5054H67.5754ZM67.5754 11.4071H67.0754V11.3072H67.5754H68.0754V11.4071H67.5754ZM67.5754 8.30887H67.0754V8.2589H67.5754H68.0754V8.30887H67.5754Z" fill="#131619"/>
<path d="M120.69 20.6509H120.44V20.9009L120.69 20.9009L120.69 20.6509ZM199.14 20.9019C199.278 20.9019 199.39 20.7899 199.39 20.6519C199.39 20.5138 199.278 20.4019 199.14 20.4019V20.6519V20.9019ZM197.203 20.4018C197.065 20.4018 196.953 20.5138 196.953 20.6518C196.953 20.7899 197.065 20.9018 197.203 20.9018L197.203 20.6518V20.4018ZM192.361 20.9018C192.499 20.9018 192.611 20.7899 192.611 20.6518C192.611 20.5137 192.499 20.4018 192.361 20.4018V20.6518V20.9018ZM188.487 20.4017C188.349 20.4017 188.237 20.5137 188.237 20.6517C188.237 20.7898 188.349 20.9017 188.487 20.9017L188.487 20.6517V20.4017ZM183.644 20.9017C183.782 20.9017 183.894 20.7897 183.894 20.6517C183.894 20.5136 183.782 20.4017 183.644 20.4017V20.6517L183.644 20.9017ZM179.77 20.4016C179.632 20.4016 179.52 20.5136 179.52 20.6516C179.52 20.7897 179.632 20.9016 179.77 20.9016L179.77 20.6516L179.77 20.4016ZM174.927 20.9016C175.066 20.9016 175.177 20.7896 175.177 20.6516C175.177 20.5135 175.066 20.4016 174.927 20.4016L174.927 20.6516L174.927 20.9016ZM171.053 20.4015C170.915 20.4015 170.803 20.5135 170.803 20.6515C170.803 20.7896 170.915 20.9015 171.053 20.9015V20.6515L171.053 20.4015ZM166.211 20.9015C166.349 20.9015 166.461 20.7895 166.461 20.6515C166.461 20.5134 166.349 20.4015 166.211 20.4015L166.211 20.6515L166.211 20.9015ZM162.337 20.4014C162.199 20.4014 162.087 20.5134 162.087 20.6514C162.087 20.7895 162.199 20.9014 162.337 20.9014L162.337 20.6514L162.337 20.4014ZM157.494 20.9014C157.632 20.9014 157.744 20.7894 157.744 20.6514C157.744 20.5133 157.632 20.4014 157.494 20.4014L157.494 20.6514V20.9014ZM153.62 20.4013C153.482 20.4013 153.37 20.5133 153.37 20.6513C153.37 20.7894 153.482 20.9013 153.62 20.9013L153.62 20.6513L153.62 20.4013ZM148.777 20.9013C148.916 20.9013 149.027 20.7893 149.027 20.6513C149.027 20.5132 148.916 20.4013 148.777 20.4013L148.777 20.6513L148.777 20.9013ZM144.903 20.4012C144.765 20.4012 144.653 20.5132 144.653 20.6512C144.653 20.7893 144.765 20.9012 144.903 20.9012L144.903 20.6512L144.903 20.4012ZM140.061 20.9012C140.199 20.9012 140.311 20.7892 140.311 20.6512C140.311 20.5131 140.199 20.4012 140.061 20.4012L140.061 20.6512L140.061 20.9012ZM136.187 20.4011C136.049 20.4011 135.937 20.5131 135.937 20.6511C135.937 20.7892 136.049 20.9011 136.187 20.9011L136.187 20.6511L136.187 20.4011ZM131.344 20.9011C131.482 20.9011 131.594 20.7891 131.594 20.6511C131.594 20.513 131.482 20.4011 131.344 20.4011L131.344 20.6511L131.344 20.9011ZM127.47 20.401C127.332 20.401 127.22 20.5129 127.22 20.651C127.22 20.7891 127.332 20.901 127.47 20.901L127.47 20.651L127.47 20.401ZM122.627 20.901C122.766 20.901 122.877 20.789 122.877 20.651C122.877 20.5129 122.766 20.401 122.627 20.401L122.627 20.651L122.627 20.901ZM120.94 19.2161C120.94 19.078 120.829 18.9661 120.69 18.9661C120.552 18.9661 120.44 19.078 120.44 19.2161H120.69H120.94ZM120.44 15.629C120.44 15.7671 120.552 15.879 120.69 15.879C120.829 15.879 120.94 15.7671 120.94 15.629H120.69H120.44ZM199.14 20.6519V20.4019L197.203 20.4018V20.6518L197.203 20.9018L199.14 20.9019V20.6519ZM192.361 20.6518V20.4018L188.487 20.4017V20.6517L188.487 20.9017L192.361 20.9018V20.6518ZM183.644 20.6517V20.4017L179.77 20.4016L179.77 20.6516L179.77 20.9016L183.644 20.9017L183.644 20.6517ZM174.927 20.6516L174.927 20.4016L171.053 20.4015L171.053 20.6515V20.9015L174.927 20.9016L174.927 20.6516ZM166.211 20.6515L166.211 20.4015L162.337 20.4014L162.337 20.6514L162.337 20.9014L166.211 20.9015L166.211 20.6515ZM157.494 20.6514L157.494 20.4014L153.62 20.4013L153.62 20.6513L153.62 20.9013L157.494 20.9014V20.6514ZM148.777 20.6513L148.777 20.4013L144.903 20.4012L144.903 20.6512L144.903 20.9012L148.777 20.9013L148.777 20.6513ZM140.061 20.6512L140.061 20.4012L136.187 20.4011L136.187 20.6511L136.187 20.9011L140.061 20.9012L140.061 20.6512ZM131.344 20.6511L131.344 20.4011L127.47 20.401L127.47 20.651L127.47 20.901L131.344 20.9011L131.344 20.6511ZM122.627 20.651L122.627 20.401L120.69 20.4009L120.69 20.6509L120.69 20.9009L122.627 20.901L122.627 20.651ZM120.69 20.6509H120.94V19.2161H120.69H120.44V20.6509H120.69ZM120.69 15.629H120.94V14.1942H120.69H120.44V15.629H120.69Z" fill="#131619"/>
<circle cx="67.5474" cy="9.44971" r="4.76465" fill="white" stroke="#131619" stroke-width="1.5"/>
</svg>
